  0
SECTION
  2
HEADER
  9
$ACADVER
  1
AC1024
  9
$ACADMAINTVER
 70
6
  9
$DWGCODEPAGE
  3
ANSI_1252
  9
$LASTSAVEDBY
  1
ezdxf
  9
$INSBASE
 10
0.0
 20
0.0
 30
0.0
  9
$EXTMIN
 10
1e+20
 20
1e+20
 30
1e+20
  9
$EXTMAX
 10
-1e+20
 20
-1e+20
 30
-1e+20
  9
$LIMMIN
 10
0.0
 20
0.0
  9
$LIMMAX
 10
420.0
 20
297.0
  9
$ORTHOMODE
 70
0
  9
$REGENMODE
 70
1
  9
$FILLMODE
 70
1
  9
$QTEXTMODE
 70
0
  9
$MIRRTEXT
 70
1
  9
$LTSCALE
 40
1.0
  9
$ATTMODE
 70
1
  9
$TEXTSIZE
 40
2.5
  9
$TRACEWID
 40
1.0
  9
$TEXTSTYLE
  7
Standard
  9
$CLAYER
  8
0
  9
$CELTYPE
  6
ByLayer
  9
$CECOLOR
 62
256
  9
$CELTSCALE
 40
1.0
  9
$DISPSILH
 70
0
  9
$DIMSCALE
 40
1.0
  9
$DIMASZ
 40
2.5
  9
$DIMEXO
 40
0.625
  9
$DIMDLI
 40
3.75
  9
$DIMRND
 40
0.0
  9
$DIMDLE
 40
0.0
  9
$DIMEXE
 40
1.25
  9
$DIMTP
 40
0.0
  9
$DIMTM
 40
0.0
  9
$DIMTXT
 40
2.5
  9
$DIMCEN
 40
2.5
  9
$DIMTSZ
 40
0.0
  9
$DIMTOL
 70
0
  9
$DIMLIM
 70
0
  9
$DIMTIH
 70
0
  9
$DIMTOH
 70
0
  9
$DIMSE1
 70
0
  9
$DIMSE2
 70
0
  9
$DIMTAD
 70
1
  9
$DIMZIN
 70
8
  9
$DIMBLK
  1

  9
$DIMASO
 70
1
  9
$DIMSHO
 70
1
  9
$DIMPOST
  1

  9
$DIMAPOST
  1

  9
$DIMALT
 70
0
  9
$DIMALTD
 70
3
  9
$DIMALTF
 40
0.03937007874
  9
$DIMLFAC
 40
1.0
  9
$DIMTOFL
 70
1
  9
$DIMTVP
 40
0.0
  9
$DIMTIX
 70
0
  9
$DIMSOXD
 70
0
  9
$DIMSAH
 70
0
  9
$DIMBLK1
  1

  9
$DIMBLK2
  1

  9
$DIMSTYLE
  2
ISO-25
  9
$DIMCLRD
 70
0
  9
$DIMCLRE
 70
0
  9
$DIMCLRT
 70
0
  9
$DIMTFAC
 40
1.0
  9
$DIMGAP
 40
0.625
  9
$DIMJUST
 70
0
  9
$DIMSD1
 70
0
  9
$DIMSD2
 70
0
  9
$DIMTOLJ
 70
0
  9
$DIMTZIN
 70
8
  9
$DIMALTZ
 70
0
  9
$DIMALTTZ
 70
0
  9
$DIMUPT
 70
0
  9
$DIMDEC
 70
2
  9
$DIMTDEC
 70
2
  9
$DIMALTU
 70
2
  9
$DIMALTTD
 70
3
  9
$DIMTXSTY
  7
Standard
  9
$DIMAUNIT
 70
0
  9
$DIMADEC
 70
0
  9
$DIMALTRND
 40
0.0
  9
$DIMAZIN
 70
0
  9
$DIMDSEP
 70
44
  9
$DIMATFIT
 70
3
  9
$DIMFRAC
 70
0
  9
$DIMLDRBLK
  1

  9
$DIMLUNIT
 70
2
  9
$DIMLWD
 70
-2
  9
$DIMLWE
 70
-2
  9
$DIMTMOVE
 70
0
  9
$DIMFXL
 40
1.0
  9
$DIMFXLON
 70
0
  9
$DIMJOGANG
 40
0.785398163397
  9
$DIMTFILL
 70
0
  9
$DIMTFILLCLR
 70
0
  9
$DIMARCSYM
 70
0
  9
$DIMLTYPE
  6

  9
$DIMLTEX1
  6

  9
$DIMLTEX2
  6

  9
$DIMTXTDIRECTION
 70
0
  9
$LUNITS
 70
2
  9
$LUPREC
 70
4
  9
$SKETCHINC
 40
1.0
  9
$FILLETRAD
 40
10.0
  9
$AUNITS
 70
0
  9
$AUPREC
 70
2
  9
$MENU
  1
.
  9
$ELEVATION
 40
0.0
  9
$PELEVATION
 40
0.0
  9
$THICKNESS
 40
0.0
  9
$LIMCHECK
 70
0
  9
$CHAMFERA
 40
0.0
  9
$CHAMFERB
 40
0.0
  9
$CHAMFERC
 40
0.0
  9
$CHAMFERD
 40
0.0
  9
$SKPOLY
 70
0
  9
$TDCREATE
 40
2460761.810474537
  9
$TDUCREATE
 40
2458532.153996898
  9
$TDUPDATE
 40
2460761.810474537
  9
$TDUUPDATE
 40
2458532.1544311
  9
$TDINDWG
 40
0.0
  9
$TDUSRTIMER
 40
0.0
  9
$USRTIMER
 70
1
  9
$ANGBASE
 50
0.0
  9
$ANGDIR
 70
0
  9
$PDMODE
 70
0
  9
$PDSIZE
 40
0.0
  9
$PLINEWID
 40
0.0
  9
$SPLFRAME
 70
0
  9
$SPLINETYPE
 70
6
  9
$SPLINESEGS
 70
8
  9
$HANDSEED
  5
2D6
  9
$SURFTAB1
 70
6
  9
$SURFTAB2
 70
6
  9
$SURFTYPE
 70
6
  9
$SURFU
 70
6
  9
$SURFV
 70
6
  9
$UCSBASE
  2

  9
$UCSNAME
  2

  9
$UCSORG
 10
0.0
 20
0.0
 30
0.0
  9
$UCSXDIR
 10
1.0
 20
0.0
 30
0.0
  9
$UCSYDIR
 10
0.0
 20
1.0
 30
0.0
  9
$UCSORTHOREF
  2

  9
$UCSORTHOVIEW
 70
0
  9
$UCSORGTOP
 10
0.0
 20
0.0
 30
0.0
  9
$UCSORGBOTTOM
 10
0.0
 20
0.0
 30
0.0
  9
$UCSORGLEFT
 10
0.0
 20
0.0
 30
0.0
  9
$UCSORGRIGHT
 10
0.0
 20
0.0
 30
0.0
  9
$UCSORGFRONT
 10
0.0
 20
0.0
 30
0.0
  9
$UCSORGBACK
 10
0.0
 20
0.0
 30
0.0
  9
$PUCSBASE
  2

  9
$PUCSNAME
  2

  9
$PUCSORG
 10
0.0
 20
0.0
 30
0.0
  9
$PUCSXDIR
 10
1.0
 20
0.0
 30
0.0
  9
$PUCSYDIR
 10
0.0
 20
1.0
 30
0.0
  9
$PUCSORTHOREF
  2

  9
$PUCSORTHOVIEW
 70
0
  9
$PUCSORGTOP
 10
0.0
 20
0.0
 30
0.0
  9
$PUCSORGBOTTOM
 10
0.0
 20
0.0
 30
0.0
  9
$PUCSORGLEFT
 10
0.0
 20
0.0
 30
0.0
  9
$PUCSORGRIGHT
 10
0.0
 20
0.0
 30
0.0
  9
$PUCSORGFRONT
 10
0.0
 20
0.0
 30
0.0
  9
$PUCSORGBACK
 10
0.0
 20
0.0
 30
0.0
  9
$USERI1
 70
0
  9
$USERI2
 70
0
  9
$USERI3
 70
0
  9
$USERI4
 70
0
  9
$USERI5
 70
0
  9
$USERR1
 40
0.0
  9
$USERR2
 40
0.0
  9
$USERR3
 40
0.0
  9
$USERR4
 40
0.0
  9
$USERR5
 40
0.0
  9
$WORLDVIEW
 70
1
  9
$SHADEDGE
 70
3
  9
$SHADEDIF
 70
70
  9
$TILEMODE
 70
1
  9
$MAXACTVP
 70
64
  9
$PINSBASE
 10
0.0
 20
0.0
 30
0.0
  9
$PLIMCHECK
 70
0
  9
$PEXTMIN
 10
1e+20
 20
1e+20
 30
1e+20
  9
$PEXTMAX
 10
-1e+20
 20
-1e+20
 30
-1e+20
  9
$PLIMMIN
 10
0.0
 20
0.0
  9
$PLIMMAX
 10
420.0
 20
297.0
  9
$UNITMODE
 70
0
  9
$VISRETAIN
 70
1
  9
$PLINEGEN
 70
0
  9
$PSLTSCALE
 70
1
  9
$TREEDEPTH
 70
3020
  9
$CMLSTYLE
  2
Standard
  9
$CMLJUST
 70
0
  9
$CMLSCALE
 40
20.0
  9
$PROXYGRAPHICS
 70
1
  9
$MEASUREMENT
 70
1
  9
$CELWEIGHT
370
-1
  9
$ENDCAPS
280
0
  9
$JOINSTYLE
280
0
  9
$LWDISPLAY
290
0
  9
$INSUNITS
 70
6
  9
$HYPERLINKBASE
  1

  9
$STYLESHEET
  1

  9
$XEDIT
290
1
  9
$CEPSNTYPE
380
0
  9
$PSTYLEMODE
290
1
  9
$FINGERPRINTGUID
  2
{FCCEC8DD-AD9B-4BF5-9A71-513F2D86F6AF}
  9
$VERSIONGUID
  2
{75389CC9-5FF5-4113-9260-6A5412B00BA2}
  9
$EXTNAMES
290
1
  9
$PSVPSCALE
 40
0.0
  9
$OLESTARTUP
290
0
  9
$SORTENTS
280
127
  9
$INDEXCTL
280
0
  9
$HIDETEXT
280
1
  9
$XCLIPFRAME
280
1
  9
$HALOGAP
280
0
  9
$OBSCOLOR
 70
257
  9
$OBSLTYPE
280
0
  9
$INTERSECTIONDISPLAY
280
0
  9
$INTERSECTIONCOLOR
 70
257
  9
$DIMASSOC
280
2
  9
$PROJECTNAME
  1

  9
$CAMERADISPLAY
290
0
  9
$LENSLENGTH
 40
50.0
  9
$CAMERAHEIGHT
 40
0.0
  9
$STEPSPERSEC
 40
24.0
  9
$STEPSIZE
 40
100.0
  9
$3DDWFPREC
 40
2.0
  9
$PSOLWIDTH
 40
0.005
  9
$PSOLHEIGHT
 40
0.08
  9
$LOFTANG1
 40
1.570796326795
  9
$LOFTANG2
 40
1.570796326795
  9
$LOFTMAG1
 40
0.0
  9
$LOFTMAG2
 40
0.0
  9
$LOFTPARAM
 70
7
  9
$LOFTNORMALS
280
1
  9
$LATITUDE
 40
37.795
  9
$LONGITUDE
 40
-122.394
  9
$NORTHDIRECTION
 40
0.0
  9
$TIMEZONE
 70
-8000
  9
$LIGHTGLYPHDISPLAY
280
1
  9
$TILEMODELIGHTSYNCH
280
1
  9
$CMATERIAL
347
20
  9
$SOLIDHIST
280
0
  9
$SHOWHIST
280
1
  9
$DWFFRAME
280
2
  9
$DGNFRAME
280
2
  9
$REALWORLDSCALE
290
1
  9
$INTERFERECOLOR
 62
256
  9
$CSHADOW
280
0
  9
$SHADOWPLANELOCATION
 40
0.0
  0
ENDSEC
  0
SECTION
  2
CLASSES
  0
CLASS
  1
ACDBDICTIONARYWDFLT
  2
AcDbDictionaryWithDefault
  3
ObjectDBX Classes
 90
0
 91
0
280
0
281
0
  0
CLASS
  1
SUN
  2
AcDbSun
  3
SCENEOE
 90
1153
 91
0
280
0
281
0
  0
CLASS
  1
VISUALSTYLE
  2
AcDbVisualStyle
  3
ObjectDBX Classes
 90
4095
 91
0
280
0
281
0
  0
CLASS
  1
MATERIAL
  2
AcDbMaterial
  3
ObjectDBX Classes
 90
1153
 91
0
280
0
281
0
  0
CLASS
  1
SCALE
  2
AcDbScale
  3
ObjectDBX Classes
 90
1153
 91
0
280
0
281
0
  0
CLASS
  1
TABLESTYLE
  2
AcDbTableStyle
  3
ObjectDBX Classes
 90
4095
 91
0
280
0
281
0
  0
CLASS
  1
MLEADERSTYLE
  2
AcDbMLeaderStyle
  3
ACDB_MLEADERSTYLE_CLASS
 90
4095
 91
0
280
0
281
0
  0
CLASS
  1
DICTIONARYVAR
  2
AcDbDictionaryVar
  3
ObjectDBX Classes
 90
0
 91
0
280
0
281
0
  0
CLASS
  1
CELLSTYLEMAP
  2
AcDbCellStyleMap
  3
ObjectDBX Classes
 90
1152
 91
0
280
0
281
0
  0
CLASS
  1
MENTALRAYRENDERSETTINGS
  2
AcDbMentalRayRenderSettings
  3
SCENEOE
 90
1024
 91
0
280
0
281
0
  0
CLASS
  1
ACDBDETAILVIEWSTYLE
  2
AcDbDetailViewStyle
  3
ObjectDBX Classes
 90
1025
 91
0
280
0
281
0
  0
CLASS
  1
ACDBSECTIONVIEWSTYLE
  2
AcDbSectionViewStyle
  3
ObjectDBX Classes
 90
1025
 91
0
280
0
281
0
  0
CLASS
  1
RASTERVARIABLES
  2
AcDbRasterVariables
  3
ISM
 90
0
 91
0
280
0
281
0
  0
CLASS
  1
ACDBPLACEHOLDER
  2
AcDbPlaceHolder
  3
ObjectDBX Classes
 90
0
 91
0
280
0
281
0
  0
CLASS
  1
LAYOUT
  2
AcDbLayout
  3
ObjectDBX Classes
 90
0
 91
0
280
0
281
0
  0
ENDSEC
  0
SECTION
  2
TABLES
  0
TABLE
  2
VPORT
  5
8
330
0
100
AcDbSymbolTable
 70
1
  0
VPORT
  5
23
330
8
100
AcDbSymbolTableRecord
100
AcDbViewportTableRecord
  2
*Active
 70
0
 10
0.0
 20
0.0
 11
1.0
 21
1.0
 12
0.0
 22
0.0
 13
0.0
 23
0.0
 14
0.5
 24
0.5
 15
0.5
 25
0.5
 16
0.0
 26
0.0
 36
1.0
 17
0.0
 27
0.0
 37
0.0
 40
1000.0
 41
1.34
 42
50.0
 43
0.0
 44
0.0
 50
0.0
 51
0.0
 71
0
 72
1000
 73
1
 74
3
 75
0
 76
0
 77
0
 78
0
281
0
 65
0
146
0.0
  0
ENDTAB
  0
TABLE
  2
LTYPE
  5
2
330
0
100
AcDbSymbolTable
 70
3
  0
LTYPE
  5
24
330
2
100
AcDbSymbolTableRecord
100
AcDbLinetypeTableRecord
  2
ByBlock
 70
0
  3

 72
65
 73
0
 40
0.0
  0
LTYPE
  5
25
330
2
100
AcDbSymbolTableRecord
100
AcDbLinetypeTableRecord
  2
ByLayer
 70
0
  3

 72
65
 73
0
 40
0.0
  0
LTYPE
  5
26
330
2
100
AcDbSymbolTableRecord
100
AcDbLinetypeTableRecord
  2
Continuous
 70
0
  3

 72
65
 73
0
 40
0.0
  0
ENDTAB
  0
TABLE
  2
LAYER
  5
1
330
0
100
AcDbSymbolTable
 70
2
  0
LAYER
  5
27
330
1
100
AcDbSymbolTableRecord
100
AcDbLayerTableRecord
  2
0
 70
0
 62
7
  6
Continuous
370
-3
390
13
347
21
  0
LAYER
  5
28
330
1
100
AcDbSymbolTableRecord
100
AcDbLayerTableRecord
  2
Defpoints
 70
0
 62
7
  6
Continuous
290
0
370
-3
390
13
347
21
  0
ENDTAB
  0
TABLE
  2
STYLE
  5
5
330
0
100
AcDbSymbolTable
 70
1
  0
STYLE
  5
29
330
5
100
AcDbSymbolTableRecord
100
AcDbTextStyleTableRecord
  2
Standard
 70
0
 40
0.0
 41
1.0
 50
0.0
 71
0
 42
2.5
  3
txt
  4

  0
ENDTAB
  0
TABLE
  2
VIEW
  5
7
330
0
100
AcDbSymbolTable
 70
0
  0
ENDTAB
  0
TABLE
  2
UCS
  5
6
330
0
100
AcDbSymbolTable
 70
0
  0
ENDTAB
  0
TABLE
  2
APPID
  5
3
330
0
100
AcDbSymbolTable
 70
3
  0
APPID
  5
2A
330
3
100
AcDbSymbolTableRecord
100
AcDbRegAppTableRecord
  2
ACAD
 70
0
  0
APPID
  5
2D3
330
3
100
AcDbSymbolTableRecord
100
AcDbRegAppTableRecord
  2
HATCHBACKGROUNDCOLOR
 70
0
  0
APPID
  5
2D4
330
3
100
AcDbSymbolTableRecord
100
AcDbRegAppTableRecord
  2
EZDXF
 70
0
  0
ENDTAB
  0
TABLE
  2
DIMSTYLE
  5
4
330
0
100
AcDbSymbolTable
 70
1
100
AcDbDimStyleTable
  0
DIMSTYLE
105
2B
330
4
100
AcDbSymbolTableRecord
100
AcDbDimStyleTableRecord
  2
Standard
 70
0
 40
1.0
 41
2.5
 42
0.625
 43
3.75
 44
1.25
 45
0.0
 46
0.0
 47
0.0
 48
0.0
 49
2.5
140
2.5
141
2.5
142
0.0
143
0.03937007874
144
1.0
145
0.0
146
1.0
147
0.625
148
0.0
 69
0
 70
0
 71
0
 72
0
 73
0
 74
0
 75
0
 76
0
 77
1
 78
8
 79
3
170
0
171
3
172
1
173
0
174
0
175
0
176
0
177
0
178
0
179
2
271
2
272
2
273
2
274
3
275
0
276
0
277
2
278
44
279
0
280
0
281
0
282
0
283
0
284
8
285
0
286
0
288
0
289
3
290
0
371
-2
372
-2
  0
ENDTAB
  0
TABLE
  2
BLOCK_RECORD
  5
9
330
0
100
AcDbSymbolTable
 70
2
  0
BLOCK_RECORD
  5
17
330
9
100
AcDbSymbolTableRecord
100
AcDbBlockTableRecord
  2
*Model_Space
340
1A
 70
0
280
1
281
0
  0
BLOCK_RECORD
  5
1B
330
9
100
AcDbSymbolTableRecord
100
AcDbBlockTableRecord
  2
*Paper_Space
340
1E
 70
0
280
1
281
0
  0
ENDTAB
  0
ENDSEC
  0
SECTION
  2
BLOCKS
  0
BLOCK
  5
18
330
17
100
AcDbEntity
  8
0
100
AcDbBlockBegin
  2
*Model_Space
 70
0
 10
0.0
 20
0.0
 30
0.0
  3
*Model_Space
  1

  0
ENDBLK
  5
19
330
17
100
AcDbEntity
  8
0
100
AcDbBlockEnd
  0
BLOCK
  5
1C
330
1B
100
AcDbEntity
  8
0
100
AcDbBlockBegin
  2
*Paper_Space
 70
0
 10
0.0
 20
0.0
 30
0.0
  3
*Paper_Space
  1

  0
ENDBLK
  5
1D
330
1B
100
AcDbEntity
  8
0
100
AcDbBlockEnd
  0
ENDSEC
  0
SECTION
  2
ENTITIES
  0
LINE
  5
2F
330
17
100
AcDbEntity
  8
0
100
AcDbLine
 10
550.0
 20
34.0
 30
0.0
 11
818.0
 21
20.0
 31
0.0
  0
LINE
  5
30
330
17
100
AcDbEntity
  8
0
100
AcDbLine
 10
892.0
 20
1377.0
 30
0.0
 11
997.0
 21
1371.0
 31
0.0
  0
LINE
  5
31
330
17
100
AcDbEntity
  8
0
100
AcDbLine
 10
1013.0
 20
230.0
 30
0.0
 11
1018.0
 21
433.0
 31
0.0
  0
LINE
  5
32
330
17
100
AcDbEntity
  8
0
100
AcDbLine
 10
503.0
 20
31.0
 30
0.0
 11
714.0
 21
22.0
 31
0.0
  0
LINE
  5
33
330
17
100
AcDbEntity
  8
0
100
AcDbLine
 10
466.0
 20
44.0
 30
0.0
 11
473.0
 21
264.0
 31
0.0
  0
LINE
  5
34
330
17
100
AcDbEntity
  8
0
100
AcDbLine
 10
473.0
 20
347.0
 30
0.0
 11
481.0
 21
554.0
 31
0.0
  0
LINE
  5
35
330
17
100
AcDbEntity
  8
0
100
AcDbLine
 10
486.0
 20
638.0
 30
0.0
 11
494.0
 21
848.0
 31
0.0
  0
LINE
  5
36
330
17
100
AcDbEntity
  8
0
100
AcDbLine
 10
475.0
 20
345.0
 30
0.0
 11
486.0
 21
506.0
 31
0.0
  0
LINE
  5
37
330
17
100
AcDbEntity
  8
0
100
AcDbLine
 10
165.0
 20
666.0
 30
0.0
 11
175.0
 21
814.0
 31
0.0
  0
LINE
  5
38
330
17
100
AcDbEntity
  8
0
100
AcDbLine
 10
893.0
 20
1380.0
 30
0.0
 11
1189.0
 21
1360.0
 31
0.0
  0
LINE
  5
39
330
17
100
AcDbEntity
  8
0
100
AcDbLine
 10
1009.0
 20
229.0
 30
0.0
 11
1241.0
 21
213.0
 31
0.0
  0
LINE
  5
3A
330
17
100
AcDbEntity
  8
0
100
AcDbLine
 10
904.0
 20
1380.0
 30
0.0
 11
932.0
 21
1705.0
 31
0.0
  0
LINE
  5
3B
330
17
100
AcDbEntity
  8
0
100
AcDbLine
 10
138.0
 20
240.0
 30
0.0
 11
154.0
 21
507.0
 31
0.0
  0
LINE
  5
3C
330
17
100
AcDbEntity
  8
0
100
AcDbLine
 10
510.0
 20
219.0
 30
0.0
 11
512.0
 21
345.0
 31
0.0
  0
LINE
  5
3D
330
17
100
AcDbEntity
  8
0
100
AcDbLine
 10
458.0
 20
62.0
 30
0.0
 11
462.0
 21
159.0
 31
0.0
  0
LINE
  5
3E
330
17
100
AcDbEntity
  8
0
100
AcDbLine
 10
518.0
 20
525.0
 30
0.0
 11
527.0
 21
660.0
 31
0.0
  0
LINE
  5
3F
330
17
100
AcDbEntity
  8
0
100
AcDbLine
 10
954.0
 20
509.0
 30
0.0
 11
963.0
 21
598.0
 31
0.0
  0
LINE
  5
40
330
17
100
AcDbEntity
  8
0
100
AcDbLine
 10
459.0
 20
358.0
 30
0.0
 11
466.0
 21
429.0
 31
0.0
  0
LINE
  5
41
330
17
100
AcDbEntity
  8
0
100
AcDbLine
 10
576.0
 20
1153.0
 30
0.0
 11
605.0
 21
1264.0
 31
0.0
  0
LINE
  5
42
330
17
100
AcDbEntity
  8
0
100
AcDbLine
 10
1267.0
 20
1359.0
 30
0.0
 11
1324.0
 21
1356.0
 31
0.0
  0
LINE
  5
43
330
17
100
AcDbEntity
  8
0
100
AcDbLine
 10
555.0
 20
1090.0
 30
0.0
 11
560.0
 21
1155.0
 31
0.0
  0
LINE
  5
44
330
17
100
AcDbEntity
  8
0
100
AcDbLine
 10
1235.0
 20
89.0
 30
0.0
 11
1237.0
 21
217.0
 31
0.0
  0
LINE
  5
45
330
17
100
AcDbEntity
  8
0
100
AcDbLine
 10
467.0
 20
207.0
 30
0.0
 11
470.0
 21
261.0
 31
0.0
  0
LINE
  5
46
330
17
100
AcDbEntity
  8
0
100
AcDbLine
 10
1004.0
 20
921.0
 30
0.0
 11
1015.0
 21
1089.0
 31
0.0
  0
LINE
  5
47
330
17
100
AcDbEntity
  8
0
100
AcDbLine
 10
726.0
 20
780.0
 30
0.0
 11
1000.0
 21
755.0
 31
0.0
  0
LINE
  5
48
330
17
100
AcDbEntity
  8
0
100
AcDbLine
 10
539.0
 20
845.0
 30
0.0
 11
544.0
 21
915.0
 31
0.0
  0
LINE
  5
49
330
17
100
AcDbEntity
  8
0
100
AcDbLine
 10
139.0
 20
241.0
 30
0.0
 11
163.0
 21
609.0
 31
0.0
  0
LINE
  5
4A
330
17
100
AcDbEntity
  8
0
100
AcDbLine
 10
734.0
 20
1388.0
 30
0.0
 11
736.0
 21
1647.0
 31
0.0
  0
LINE
  5
4B
330
17
100
AcDbEntity
  8
0
100
AcDbLine
 10
515.0
 20
526.0
 30
0.0
 11
520.0
 21
636.0
 31
0.0
  0
LINE
  5
4C
330
17
100
AcDbEntity
  8
0
100
AcDbLine
 10
515.0
 20
939.0
 30
0.0
 11
529.0
 21
1087.0
 31
0.0
  0
LINE
  5
4D
330
17
100
AcDbEntity
  8
0
100
AcDbLine
 10
737.0
 20
1654.0
 30
0.0
 11
737.0
 21
1383.0
 31
0.0
  0
LINE
  5
4E
330
17
100
AcDbEntity
  8
0
100
AcDbLine
 10
523.0
 20
934.0
 30
0.0
 11
526.0
 21
1086.0
 31
0.0
  0
LINE
  5
4F
330
17
100
AcDbEntity
  8
0
100
AcDbLine
 10
1150.0
 20
879.0
 30
0.0
 11
1150.0
 21
788.0
 31
0.0
  0
LINE
  5
50
330
17
100
AcDbEntity
  8
0
100
AcDbLine
 10
1007.0
 20
230.0
 30
0.0
 11
1014.0
 21
428.0
 31
0.0
  0
LINE
  5
51
330
17
100
AcDbEntity
  8
0
100
AcDbLine
 10
994.0
 20
840.0
 30
0.0
 11
1012.0
 21
1086.0
 31
0.0
  0
LINE
  5
52
330
17
100
AcDbEntity
  8
0
100
AcDbLine
 10
1069.0
 20
6.0
 30
0.0
 11
1129.0
 21
3.0
 31
0.0
  0
LINE
  5
53
330
17
100
AcDbEntity
  8
0
100
AcDbLine
 10
523.0
 20
555.0
 30
0.0
 11
531.0
 21
662.0
 31
0.0
  0
LINE
  5
54
330
17
100
AcDbEntity
  8
0
100
AcDbLine
 10
531.0
 20
932.0
 30
0.0
 11
547.0
 21
1087.0
 31
0.0
  0
LINE
  5
55
330
17
100
AcDbEntity
  8
0
100
AcDbLine
 10
438.0
 20
51.0
 30
0.0
 11
447.0
 21
157.0
 31
0.0
  0
LINE
  5
56
330
17
100
AcDbEntity
  8
0
100
AcDbLine
 10
782.0
 20
778.0
 30
0.0
 11
1004.0
 21
758.0
 31
0.0
  0
LINE
  5
57
330
17
100
AcDbEntity
  8
0
100
AcDbLine
 10
978.0
 20
15.0
 30
0.0
 11
1222.0
 21
1.0
 31
0.0
  0
LINE
  5
58
330
17
100
AcDbEntity
  8
0
100
AcDbLine
 10
1237.0
 20
88.0
 30
0.0
 11
1243.0
 21
189.0
 31
0.0
  0
LINE
  5
59
330
17
100
AcDbEntity
  8
0
100
AcDbLine
 10
1234.0
 20
606.0
 30
0.0
 11
1251.0
 21
748.0
 31
0.0
  0
LINE
  5
5A
330
17
100
AcDbEntity
  8
0
100
AcDbLine
 10
1012.0
 20
233.0
 30
0.0
 11
1236.0
 21
214.0
 31
0.0
  0
LINE
  5
5B
330
17
100
AcDbEntity
  8
0
100
AcDbLine
 10
1145.0
 20
422.0
 30
0.0
 11
1148.0
 21
567.0
 31
0.0
  0
LINE
  5
5C
330
17
100
AcDbEntity
  8
0
100
AcDbLine
 10
730.0
 20
774.0
 30
0.0
 11
730.0
 21
858.0
 31
0.0
  0
LINE
  5
5D
330
17
100
AcDbEntity
  8
0
100
AcDbLine
 10
789.0
 20
858.0
 30
0.0
 11
1007.0
 21
836.0
 31
0.0
  0
LINE
  5
5E
330
17
100
AcDbEntity
  8
0
100
AcDbLine
 10
589.0
 20
1184.0
 30
0.0
 11
597.0
 21
1277.0
 31
0.0
  0
LINE
  5
5F
330
17
100
AcDbEntity
  8
0
100
AcDbLine
 10
1188.0
 20
1374.0
 30
0.0
 11
1277.0
 21
1372.0
 31
0.0
  0
LINE
  5
60
330
17
100
AcDbEntity
  8
0
100
AcDbLine
 10
494.0
 20
700.0
 30
0.0
 11
502.0
 21
856.0
 31
0.0
  0
LINE
  5
61
330
17
100
AcDbEntity
  8
0
100
AcDbLine
 10
1013.0
 20
429.0
 30
0.0
 11
1227.0
 21
421.0
 31
0.0
  0
LINE
  5
62
330
17
100
AcDbEntity
  8
0
100
AcDbLine
 10
560.0
 20
1094.0
 30
0.0
 11
566.0
 21
1207.0
 31
0.0
  0
LINE
  5
63
330
17
100
AcDbEntity
  8
0
100
AcDbLine
 10
517.0
 20
222.0
 30
0.0
 11
521.0
 21
337.0
 31
0.0
  0
LINE
  5
64
330
17
100
AcDbEntity
  8
0
100
AcDbLine
 10
460.0
 20
62.0
 30
0.0
 11
464.0
 21
167.0
 31
0.0
  0
LINE
  5
65
330
17
100
AcDbEntity
  8
0
100
AcDbLine
 10
476.0
 20
344.0
 30
0.0
 11
485.0
 21
559.0
 31
0.0
  0
LINE
  5
66
330
17
100
AcDbEntity
  8
0
100
AcDbLine
 10
580.0
 20
1393.0
 30
0.0
 11
783.0
 21
1382.0
 31
0.0
  0
LINE
  5
67
330
17
100
AcDbEntity
  8
0
100
AcDbLine
 10
1156.0
 20
1070.0
 30
0.0
 11
1156.0
 21
1128.0
 31
0.0
  0
LINE
  5
68
330
17
100
AcDbEntity
  8
0
100
AcDbLine
 10
1152.0
 20
879.0
 30
0.0
 11
1152.0
 21
787.0
 31
0.0
  0
LINE
  5
69
330
17
100
AcDbEntity
  8
0
100
AcDbLine
 10
892.0
 20
1384.0
 30
0.0
 11
1099.0
 21
1368.0
 31
0.0
  0
LINE
  5
6A
330
17
100
AcDbEntity
  8
0
100
AcDbLine
 10
906.0
 20
1375.0
 30
0.0
 11
925.0
 21
1594.0
 31
0.0
  0
LINE
  5
6B
330
17
100
AcDbEntity
  8
0
100
AcDbLine
 10
169.0
 20
670.0
 30
0.0
 11
178.0
 21
811.0
 31
0.0
  0
LINE
  5
6C
330
17
100
AcDbEntity
  8
0
100
AcDbLine
 10
1314.0
 20
1176.0
 30
0.0
 11
1325.0
 21
1351.0
 31
0.0
  0
LINE
  5
6D
330
17
100
AcDbEntity
  8
0
100
AcDbLine
 10
475.0
 20
479.0
 30
0.0
 11
477.0
 21
547.0
 31
0.0
  0
LINE
  5
6E
330
17
100
AcDbEntity
  8
0
100
AcDbLine
 10
142.0
 20
240.0
 30
0.0
 11
162.0
 21
584.0
 31
0.0
  0
LINE
  5
6F
330
17
100
AcDbEntity
  8
0
100
AcDbLine
 10
466.0
 20
357.0
 30
0.0
 11
471.0
 21
431.0
 31
0.0
  0
LINE
  5
70
330
17
100
AcDbEntity
  8
0
100
AcDbLine
 10
506.0
 20
220.0
 30
0.0
 11
515.0
 21
342.0
 31
0.0
  0
LINE
  5
71
330
17
100
AcDbEntity
  8
0
100
AcDbLine
 10
717.0
 20
23.0
 30
0.0
 11
776.0
 21
20.0
 31
0.0
  0
LINE
  5
72
330
17
100
AcDbEntity
  8
0
100
AcDbLine
 10
545.0
 20
849.0
 30
0.0
 11
549.0
 21
934.0
 31
0.0
  0
LINE
  5
73
330
17
100
AcDbEntity
  8
0
100
AcDbLine
 10
1270.0
 20
1355.0
 30
0.0
 11
1325.0
 21
1352.0
 31
0.0
  0
LINE
  5
74
330
17
100
AcDbEntity
  8
0
100
AcDbLine
 10
1154.0
 20
877.0
 30
0.0
 11
1154.0
 21
788.0
 31
0.0
  0
LINE
  5
75
330
17
100
AcDbEntity
  8
0
100
AcDbLine
 10
520.0
 20
934.0
 30
0.0
 11
522.0
 21
998.0
 31
0.0
  0
LINE
  5
76
330
17
100
AcDbEntity
  8
0
100
AcDbLine
 10
576.0
 20
1389.0
 30
0.0
 11
694.0
 21
1386.0
 31
0.0
  0
LINE
  5
77
330
17
100
AcDbEntity
  8
0
100
AcDbLine
 10
1161.0
 20
1185.0
 30
0.0
 11
1312.0
 21
1179.0
 31
0.0
  0
LINE
  5
78
330
17
100
AcDbEntity
  8
0
100
AcDbLine
 10
461.0
 20
61.0
 30
0.0
 11
465.0
 21
166.0
 31
0.0
  0
LINE
  5
79
330
17
100
AcDbEntity
  8
0
100
AcDbLine
 10
727.0
 20
1390.0
 30
0.0
 11
750.0
 21
1601.0
 31
0.0
  0
LINE
  5
7A
330
17
100
AcDbEntity
  8
0
100
AcDbLine
 10
723.0
 20
1386.0
 30
0.0
 11
745.0
 21
1591.0
 31
0.0
  0
LINE
  5
7B
330
17
100
AcDbEntity
  8
0
100
AcDbLine
 10
529.0
 20
554.0
 30
0.0
 11
533.0
 21
628.0
 31
0.0
  0
LINE
  5
7C
330
17
100
AcDbEntity
  8
0
100
AcDbLine
 10
1016.0
 20
12.0
 30
0.0
 11
1217.0
 21
0.0
 31
0.0
  0
LINE
  5
7D
330
17
100
AcDbEntity
  8
0
100
AcDbLine
 10
522.0
 20
555.0
 30
0.0
 11
529.0
 21
662.0
 31
0.0
  0
LINE
  5
7E
330
17
100
AcDbEntity
  8
0
100
AcDbLine
 10
1243.0
 20
8.0
 30
0.0
 11
1247.0
 21
89.0
 31
0.0
  0
LINE
  5
7F
330
17
100
AcDbEntity
  8
0
100
AcDbLine
 10
532.0
 20
560.0
 30
0.0
 11
535.0
 21
618.0
 31
0.0
  0
LINE
  5
80
330
17
100
AcDbEntity
  8
0
100
AcDbLine
 10
591.0
 20
1396.0
 30
0.0
 11
739.0
 21
1391.0
 31
0.0
  0
LINE
  5
81
330
17
100
AcDbEntity
  8
0
100
AcDbLine
 10
555.0
 20
1389.0
 30
0.0
 11
619.0
 21
1208.0
 31
0.0
  0
LINE
  5
82
330
17
100
AcDbEntity
  8
0
100
AcDbLine
 10
157.0
 20
563.0
 30
0.0
 11
173.0
 21
814.0
 31
0.0
  0
LINE
  5
83
330
17
100
AcDbEntity
  8
0
100
AcDbLine
 10
476.0
 20
467.0
 30
0.0
 11
480.0
 21
554.0
 31
0.0
  0
LINE
  5
84
330
17
100
AcDbEntity
  8
0
100
AcDbLine
 10
958.0
 20
594.0
 30
0.0
 11
1048.0
 21
591.0
 31
0.0
  0
LINE
  5
85
330
17
100
AcDbEntity
  8
0
100
AcDbLine
 10
1308.0
 20
1171.0
 30
0.0
 11
1316.0
 21
1303.0
 31
0.0
  0
LINE
  5
86
330
17
100
AcDbEntity
  8
0
100
AcDbLine
 10
152.0
 20
464.0
 30
0.0
 11
243.0
 21
461.0
 31
0.0
  0
LINE
  5
87
330
17
100
AcDbEntity
  8
0
100
AcDbLine
 10
526.0
 20
933.0
 30
0.0
 11
528.0
 21
1086.0
 31
0.0
  0
LINE
  5
88
330
17
100
AcDbEntity
  8
0
100
AcDbLine
 10
749.0
 20
1669.0
 30
0.0
 11
762.0
 21
1747.0
 31
0.0
  0
LINE
  5
89
330
17
100
AcDbEntity
  8
0
100
AcDbLine
 10
986.0
 20
837.0
 30
0.0
 11
993.0
 21
917.0
 31
0.0
  0
LINE
  5
8A
330
17
100
AcDbEntity
  8
0
100
AcDbLine
 10
538.0
 20
1087.0
 30
0.0
 11
543.0
 21
846.0
 31
0.0
  0
LINE
  5
8B
330
17
100
AcDbEntity
  8
0
100
AcDbLine
 10
1153.0
 20
611.0
 30
0.0
 11
1228.0
 21
607.0
 31
0.0
  0
LINE
  5
8C
330
17
100
AcDbEntity
  8
0
100
AcDbLine
 10
469.0
 20
219.0
 30
0.0
 11
478.0
 21
265.0
 31
0.0
  0
LINE
  5
8D
330
17
100
AcDbEntity
  8
0
100
AcDbLine
 10
956.0
 20
577.0
 30
0.0
 11
960.0
 21
509.0
 31
0.0
  0
LINE
  5
8E
330
17
100
AcDbEntity
  8
0
100
AcDbLine
 10
727.0
 20
1438.0
 30
0.0
 11
739.0
 21
1571.0
 31
0.0
  0
LINE
  5
8F
330
17
100
AcDbEntity
  8
0
100
AcDbLine
 10
793.0
 20
862.0
 30
0.0
 11
1019.0
 21
839.0
 31
0.0
  0
LINE
  5
90
330
17
100
AcDbEntity
  8
0
100
AcDbLine
 10
764.0
 20
1746.0
 30
0.0
 11
917.0
 21
1737.0
 31
0.0
  0
LINE
  5
91
330
17
100
AcDbEntity
  8
0
100
AcDbLine
 10
430.0
 20
61.0
 30
0.0
 11
475.0
 21
57.0
 31
0.0
  0
LINE
  5
92
330
17
100
AcDbEntity
  8
0
100
AcDbLine
 10
1312.0
 20
1181.0
 30
0.0
 11
1321.0
 21
1357.0
 31
0.0
  0
LINE
  5
93
330
17
100
AcDbEntity
  8
0
100
AcDbLine
 10
511.0
 20
216.0
 30
0.0
 11
518.0
 21
337.0
 31
0.0
  0
LINE
  5
94
330
17
100
AcDbEntity
  8
0
100
AcDbLine
 10
1147.0
 20
421.0
 30
0.0
 11
1153.0
 21
572.0
 31
0.0
  0
LINE
  5
95
330
17
100
AcDbEntity
  8
0
100
AcDbLine
 10
748.0
 20
1740.0
 30
0.0
 11
926.0
 21
1732.0
 31
0.0
  0
LINE
  5
96
330
17
100
AcDbEntity
  8
0
100
AcDbLine
 10
794.0
 20
857.0
 30
0.0
 11
1010.0
 21
835.0
 31
0.0
  0
LINE
  5
97
330
17
100
AcDbEntity
  8
0
100
AcDbLine
 10
525.0
 20
937.0
 30
0.0
 11
542.0
 21
1022.0
 31
0.0
  0
LINE
  5
98
330
17
100
AcDbEntity
  8
0
100
AcDbLine
 10
168.0
 20
668.0
 30
0.0
 11
176.0
 21
809.0
 31
0.0
  0
LINE
  5
99
330
17
100
AcDbEntity
  8
0
100
AcDbLine
 10
158.0
 20
631.0
 30
0.0
 11
161.0
 21
677.0
 31
0.0
  0
LINE
  5
9A
330
17
100
AcDbEntity
  8
0
100
AcDbLine
 10
1149.0
 20
1069.0
 30
0.0
 11
1150.0
 21
1211.0
 31
0.0
  0
LINE
  5
9B
330
17
100
AcDbEntity
  8
0
100
AcDbLine
 10
624.0
 20
1340.0
 30
0.0
 11
628.0
 21
1396.0
 31
0.0
  0
LINE
  5
9C
330
17
100
AcDbEntity
  8
0
100
AcDbLine
 10
441.0
 20
556.0
 30
0.0
 11
508.0
 21
550.0
 31
0.0
  0
LINE
  5
9D
330
17
100
AcDbEntity
  8
0
100
AcDbLine
 10
750.0
 20
1741.0
 30
0.0
 11
750.0
 21
1669.0
 31
0.0
  0
LINE
  5
9E
330
17
100
AcDbEntity
  8
0
100
AcDbLine
 10
906.0
 20
1446.0
 30
0.0
 11
909.0
 21
1502.0
 31
0.0
  0
LINE
  5
9F
330
17
100
AcDbEntity
  8
0
100
AcDbLine
 10
1223.0
 20
1184.0
 30
0.0
 11
1304.0
 21
1171.0
 31
0.0
  0
LINE
  5
A0
330
17
100
AcDbEntity
  8
0
100
AcDbLine
 10
1134.0
 20
14.0
 30
0.0
 11
1218.0
 21
6.0
 31
0.0
  0
LINE
  5
A1
330
17
100
AcDbEntity
  8
0
100
AcDbLine
 10
577.0
 20
1290.0
 30
0.0
 11
582.0
 21
1341.0
 31
0.0
  0
LINE
  5
A2
330
17
100
AcDbEntity
  8
0
100
AcDbLine
 10
751.0
 20
1741.0
 30
0.0
 11
751.0
 21
1669.0
 31
0.0
  0
LINE
  5
A3
330
17
100
AcDbEntity
  8
0
100
AcDbLine
 10
525.0
 20
554.0
 30
0.0
 11
531.0
 21
626.0
 31
0.0
  0
LINE
  5
A4
330
17
100
AcDbEntity
  8
0
100
AcDbLine
 10
596.0
 20
617.0
 30
0.0
 11
596.0
 21
670.0
 31
0.0
  0
LINE
  5
A5
330
17
100
AcDbEntity
  8
0
100
AcDbLine
 10
1067.0
 20
7.0
 30
0.0
 11
1196.0
 21
1.0
 31
0.0
  0
LINE
  5
A6
330
17
100
AcDbEntity
  8
0
100
AcDbLine
 10
489.0
 20
751.0
 30
0.0
 11
499.0
 21
854.0
 31
0.0
  0
LINE
  5
A7
330
17
100
AcDbEntity
  8
0
100
AcDbLine
 10
1314.0
 20
1177.0
 30
0.0
 11
1321.0
 21
1294.0
 31
0.0
  0
LINE
  5
A8
330
17
100
AcDbEntity
  8
0
100
AcDbLine
 10
746.0
 20
1273.0
 30
0.0
 11
751.0
 21
1495.0
 31
0.0
  0
LINE
  5
A9
330
17
100
AcDbEntity
  8
0
100
AcDbLine
 10
955.0
 20
514.0
 30
0.0
 11
1038.0
 21
507.0
 31
0.0
  0
LINE
  5
AA
330
17
100
AcDbEntity
  8
0
100
AcDbLine
 10
736.0
 20
46.0
 30
0.0
 11
824.0
 21
43.0
 31
0.0
  0
LINE
  5
AB
330
17
100
AcDbEntity
  8
0
100
AcDbLine
 10
565.0
 20
1206.0
 30
0.0
 11
570.0
 21
1152.0
 31
0.0
  0
LINE
  5
AC
330
17
100
AcDbEntity
  8
0
100
AcDbLine
 10
589.0
 20
639.0
 30
0.0
 11
656.0
 21
636.0
 31
0.0
  0
LINE
  5
AD
330
17
100
AcDbEntity
  8
0
100
AcDbLine
 10
467.0
 20
358.0
 30
0.0
 11
485.0
 21
506.0
 31
0.0
  0
LINE
  5
AE
330
17
100
AcDbEntity
  8
0
100
AcDbLine
 10
719.0
 20
29.0
 30
0.0
 11
794.0
 21
26.0
 31
0.0
  0
LINE
  5
AF
330
17
100
AcDbEntity
  8
0
100
AcDbLine
 10
851.0
 20
838.0
 30
0.0
 11
904.0
 21
830.0
 31
0.0
  0
LINE
  5
B0
330
17
100
AcDbEntity
  8
0
100
AcDbLine
 10
580.0
 20
1291.0
 30
0.0
 11
590.0
 21
1387.0
 31
0.0
  0
LINE
  5
B1
330
17
100
AcDbEntity
  8
0
100
AcDbLine
 10
1243.0
 20
616.0
 30
0.0
 11
1245.0
 21
787.0
 31
0.0
  0
LINE
  5
B2
330
17
100
AcDbEntity
  8
0
100
AcDbLine
 10
1022.0
 20
1089.0
 30
0.0
 11
1154.0
 21
1077.0
 31
0.0
  0
LINE
  5
B3
330
17
100
AcDbEntity
  8
0
100
AcDbLine
 10
904.0
 20
123.0
 30
0.0
 11
931.0
 21
33.0
 31
0.0
  0
LINE
  5
B4
330
17
100
AcDbEntity
  8
0
100
AcDbLine
 10
503.0
 20
29.0
 30
0.0
 11
627.0
 21
31.0
 31
0.0
  0
LINE
  5
B5
330
17
100
AcDbEntity
  8
0
100
AcDbLine
 10
490.0
 20
719.0
 30
0.0
 11
503.0
 21
857.0
 31
0.0
  0
LINE
  5
B6
330
17
100
AcDbEntity
  8
0
100
AcDbLine
 10
1111.0
 20
11.0
 30
0.0
 11
1222.0
 21
3.0
 31
0.0
  0
LINE
  5
B7
330
17
100
AcDbEntity
  8
0
100
AcDbLine
 10
139.0
 20
239.0
 30
0.0
 11
168.0
 21
612.0
 31
0.0
  0
LINE
  5
B8
330
17
100
AcDbEntity
  8
0
100
AcDbLine
 10
926.0
 20
1236.0
 30
0.0
 11
946.0
 21
1281.0
 31
0.0
  0
LINE
  5
B9
330
17
100
AcDbEntity
  8
0
100
AcDbLine
 10
598.0
 20
896.0
 30
0.0
 11
601.0
 21
856.0
 31
0.0
  0
LINE
  5
BA
330
17
100
AcDbEntity
  8
0
100
AcDbLine
 10
571.0
 20
1152.0
 30
0.0
 11
577.0
 21
1202.0
 31
0.0
  0
LINE
  5
BB
330
17
100
AcDbEntity
  8
0
100
AcDbLine
 10
202.0
 20
449.0
 30
0.0
 11
243.0
 21
448.0
 31
0.0
  0
LINE
  5
BC
330
17
100
AcDbEntity
  8
0
100
AcDbLine
 10
978.0
 20
21.0
 30
0.0
 11
1067.0
 21
17.0
 31
0.0
  0
LINE
  5
BD
330
17
100
AcDbEntity
  8
0
100
AcDbLine
 10
517.0
 20
934.0
 30
0.0
 11
522.0
 21
1061.0
 31
0.0
  0
LINE
  5
BE
330
17
100
AcDbEntity
  8
0
100
AcDbLine
 10
757.0
 20
1690.0
 30
0.0
 11
757.0
 21
1741.0
 31
0.0
  0
LINE
  5
BF
330
17
100
AcDbEntity
  8
0
100
AcDbLine
 10
955.0
 20
527.0
 30
0.0
 11
958.0
 21
598.0
 31
0.0
  0
LINE
  5
C0
330
17
100
AcDbEntity
  8
0
100
AcDbLine
 10
1019.0
 20
1083.0
 30
0.0
 11
1159.0
 21
1074.0
 31
0.0
  0
LINE
  5
C1
330
17
100
AcDbEntity
  8
0
100
AcDbLine
 10
156.0
 20
563.0
 30
0.0
 11
172.0
 21
814.0
 31
0.0
  0
LINE
  5
C2
330
17
100
AcDbEntity
  8
0
100
AcDbLine
 10
1029.0
 20
1375.0
 30
0.0
 11
1189.0
 21
1363.0
 31
0.0
  0
LINE
  5
C3
330
17
100
AcDbEntity
  8
0
100
AcDbLine
 10
1150.0
 20
1076.0
 30
0.0
 11
1150.0
 21
1136.0
 31
0.0
  0
LINE
  5
C4
330
17
100
AcDbEntity
  8
0
100
AcDbLine
 10
1019.0
 20
10.0
 30
0.0
 11
1022.0
 21
97.0
 31
0.0
  0
LINE
  5
C5
330
17
100
AcDbEntity
  8
0
100
AcDbLine
 10
153.0
 20
472.0
 30
0.0
 11
243.0
 21
468.0
 31
0.0
  0
LINE
  5
C6
330
17
100
AcDbEntity
  8
0
100
AcDbLine
 10
1147.0
 20
1184.0
 30
0.0
 11
1310.0
 21
1178.0
 31
0.0
  0
LINE
  5
C7
330
17
100
AcDbEntity
  8
0
100
AcDbLine
 10
511.0
 20
230.0
 30
0.0
 11
513.0
 21
344.0
 31
0.0
  0
LINE
  5
C8
330
17
100
AcDbEntity
  8
0
100
AcDbLine
 10
1235.0
 20
19.0
 30
0.0
 11
1240.0
 21
88.0
 31
0.0
  0
LINE
  5
C9
330
17
100
AcDbEntity
  8
0
100
AcDbLine
 10
834.0
 20
124.0
 30
0.0
 11
918.0
 21
122.0
 31
0.0
  0
LINE
  5
CA
330
17
100
AcDbEntity
  8
0
100
AcDbLine
 10
525.0
 20
1294.0
 30
0.0
 11
588.0
 21
1301.0
 31
0.0
  0
LINE
  5
CB
330
17
100
AcDbEntity
  8
0
100
AcDbLine
 10
755.0
 20
1670.0
 30
0.0
 11
755.0
 21
1737.0
 31
0.0
  0
LINE
  5
CC
330
17
100
AcDbEntity
  8
0
100
AcDbLine
 10
1319.0
 20
1235.0
 30
0.0
 11
1326.0
 21
1349.0
 31
0.0
  0
LINE
  5
CD
330
17
100
AcDbEntity
  8
0
100
AcDbLine
 10
143.0
 20
236.0
 30
0.0
 11
147.0
 21
286.0
 31
0.0
  0
LINE
  5
CE
330
17
100
AcDbEntity
  8
0
100
AcDbLine
 10
585.0
 20
635.0
 30
0.0
 11
654.0
 21
629.0
 31
0.0
  0
LINE
  5
CF
330
17
100
AcDbEntity
  8
0
100
AcDbLine
 10
908.0
 20
1441.0
 30
0.0
 11
916.0
 21
1535.0
 31
0.0
  0
LINE
  5
D0
330
17
100
AcDbEntity
  8
0
100
AcDbLine
 10
1007.0
 20
235.0
 30
0.0
 11
1240.0
 21
215.0
 31
0.0
  0
LINE
  5
D1
330
17
100
AcDbEntity
  8
0
100
AcDbLine
 10
746.0
 20
36.0
 30
0.0
 11
818.0
 21
36.0
 31
0.0
  0
LINE
  5
D2
330
17
100
AcDbEntity
  8
0
100
AcDbLine
 10
758.0
 20
1744.0
 30
0.0
 11
760.0
 21
1704.0
 31
0.0
  0
LINE
  5
D3
330
17
100
AcDbEntity
  8
0
100
AcDbLine
 10
562.0
 20
1109.0
 30
0.0
 11
570.0
 21
1212.0
 31
0.0
  0
LINE
  5
D4
330
17
100
AcDbEntity
  8
0
100
AcDbLine
 10
446.0
 20
63.0
 30
0.0
 11
455.0
 21
128.0
 31
0.0
  0
LINE
  5
D5
330
17
100
AcDbEntity
  8
0
100
AcDbLine
 10
893.0
 20
1381.0
 30
0.0
 11
915.0
 21
1446.0
 31
0.0
  0
LINE
  5
D6
330
17
100
AcDbEntity
  8
0
100
AcDbLine
 10
455.0
 20
649.0
 30
0.0
 11
496.0
 21
647.0
 31
0.0
  0
LINE
  5
D7
330
17
100
AcDbEntity
  8
0
100
AcDbLine
 10
173.0
 20
468.0
 30
0.0
 11
229.0
 21
476.0
 31
0.0
  0
LINE
  5
D8
330
17
100
AcDbEntity
  8
0
100
AcDbLine
 10
748.0
 20
47.0
 30
0.0
 11
824.0
 21
45.0
 31
0.0
  0
LINE
  5
D9
330
17
100
AcDbEntity
  8
0
100
AcDbLine
 10
518.0
 20
934.0
 30
0.0
 11
545.0
 21
1039.0
 31
0.0
  0
LINE
  5
DA
330
17
100
AcDbEntity
  8
0
100
AcDbLine
 10
146.0
 20
284.0
 30
0.0
 11
149.0
 21
330.0
 31
0.0
  0
LINE
  5
DB
330
17
100
AcDbEntity
  8
0
100
AcDbLine
 10
1138.0
 20
1145.0
 30
0.0
 11
1157.0
 21
1210.0
 31
0.0
  0
LINE
  5
DC
330
17
100
AcDbEntity
  8
0
100
AcDbLine
 10
529.0
 20
933.0
 30
0.0
 11
540.0
 21
1044.0
 31
0.0
  0
LINE
  5
DD
330
17
100
AcDbEntity
  8
0
100
AcDbLine
 10
580.0
 20
1394.0
 30
0.0
 11
738.0
 21
1388.0
 31
0.0
  0
LINE
  5
DE
330
17
100
AcDbEntity
  8
0
100
AcDbLine
 10
1186.0
 20
1371.0
 30
0.0
 11
1267.0
 21
1369.0
 31
0.0
  0
LINE
  5
DF
330
17
100
AcDbEntity
  8
0
100
AcDbLine
 10
987.0
 20
914.0
 30
0.0
 11
1001.0
 21
835.0
 31
0.0
  0
LINE
  5
E0
330
17
100
AcDbEntity
  8
0
100
AcDbLine
 10
1239.0
 20
666.0
 30
0.0
 11
1243.0
 21
710.0
 31
0.0
  0
LINE
  5
E1
330
17
100
AcDbEntity
  8
0
100
AcDbLine
 10
528.0
 20
933.0
 30
0.0
 11
530.0
 21
984.0
 31
0.0
  0
LINE
  5
E2
330
17
100
AcDbEntity
  8
0
100
AcDbLine
 10
574.0
 20
1154.0
 30
0.0
 11
581.0
 21
1209.0
 31
0.0
  0
LINE
  5
E3
330
17
100
AcDbEntity
  8
0
100
AcDbLine
 10
434.0
 20
54.0
 30
0.0
 11
440.0
 21
140.0
 31
0.0
  0
LINE
  5
E4
330
17
100
AcDbEntity
  8
0
100
AcDbLine
 10
1153.0
 20
612.0
 30
0.0
 11
1238.0
 21
609.0
 31
0.0
  0
LINE
  5
E5
330
17
100
AcDbEntity
  8
0
100
AcDbLine
 10
481.0
 20
207.0
 30
0.0
 11
545.0
 21
191.0
 31
0.0
  0
LINE
  5
E6
330
17
100
AcDbEntity
  8
0
100
AcDbLine
 10
923.0
 20
1557.0
 30
0.0
 11
933.0
 21
1705.0
 31
0.0
  0
LINE
  5
E7
330
17
100
AcDbEntity
  8
0
100
AcDbLine
 10
835.0
 20
123.0
 30
0.0
 11
836.0
 21
68.0
 31
0.0
  0
LINE
  5
E8
330
17
100
AcDbEntity
  8
0
100
AcDbLine
 10
487.0
 20
696.0
 30
0.0
 11
491.0
 21
797.0
 31
0.0
  0
LINE
  5
E9
330
17
100
AcDbEntity
  8
0
100
AcDbLine
 10
521.0
 20
936.0
 30
0.0
 11
542.0
 21
1017.0
 31
0.0
  0
LINE
  5
EA
330
17
100
AcDbEntity
  8
0
100
AcDbLine
 10
463.0
 20
59.0
 30
0.0
 11
466.0
 21
169.0
 31
0.0
  0
LINE
  5
EB
330
17
100
AcDbEntity
  8
0
100
AcDbLine
 10
578.0
 20
1289.0
 30
0.0
 11
583.0
 21
1345.0
 31
0.0
  0
LINE
  5
EC
330
17
100
AcDbEntity
  8
0
100
AcDbLine
 10
1147.0
 20
783.0
 30
0.0
 11
1148.0
 21
833.0
 31
0.0
  0
LINE
  5
ED
330
17
100
AcDbEntity
  8
0
100
AcDbLine
 10
1013.0
 20
430.0
 30
0.0
 11
1217.0
 21
422.0
 31
0.0
  0
LINE
  5
EE
330
17
100
AcDbEntity
  8
0
100
AcDbLine
 10
754.0
 20
1433.0
 30
0.0
 11
756.0
 21
1489.0
 31
0.0
  0
LINE
  5
EF
330
17
100
AcDbEntity
  8
0
100
AcDbLine
 10
782.0
 20
1375.0
 30
0.0
 11
810.0
 21
1481.0
 31
0.0
  0
LINE
  5
F0
330
17
100
AcDbEntity
  8
0
100
AcDbLine
 10
455.0
 20
844.0
 30
0.0
 11
602.0
 21
864.0
 31
0.0
  0
LINE
  5
F1
330
17
100
AcDbEntity
  8
0
100
AcDbLine
 10
906.0
 20
123.0
 30
0.0
 11
928.0
 21
51.0
 31
0.0
  0
LINE
  5
F2
330
17
100
AcDbEntity
  8
0
100
AcDbLine
 10
929.0
 20
1232.0
 30
0.0
 11
950.0
 21
1279.0
 31
0.0
  0
LINE
  5
F3
330
17
100
AcDbEntity
  8
0
100
AcDbLine
 10
582.0
 20
1304.0
 30
0.0
 11
616.0
 21
1208.0
 31
0.0
  0
LINE
  5
F4
330
17
100
AcDbEntity
  8
0
100
AcDbLine
 10
456.0
 20
551.0
 30
0.0
 11
531.0
 21
558.0
 31
0.0
  0
LINE
  5
F5
330
17
100
AcDbEntity
  8
0
100
AcDbLine
 10
1238.0
 20
218.0
 30
0.0
 11
1240.0
 21
145.0
 31
0.0
  0
LINE
  5
F6
330
17
100
AcDbEntity
  8
0
100
AcDbLine
 10
611.0
 20
673.0
 30
0.0
 11
620.0
 21
604.0
 31
0.0
  0
LINE
  5
F7
330
17
100
AcDbEntity
  8
0
100
AcDbLine
 10
499.0
 20
261.0
 30
0.0
 11
511.0
 21
346.0
 31
0.0
  0
LINE
  5
F8
330
17
100
AcDbEntity
  8
0
100
AcDbLine
 10
740.0
 20
859.0
 30
0.0
 11
791.0
 21
854.0
 31
0.0
  0
LINE
  5
F9
330
17
100
AcDbEntity
  8
0
100
AcDbLine
 10
1221.0
 20
1179.0
 30
0.0
 11
1302.0
 21
1175.0
 31
0.0
  0
LINE
  5
FA
330
17
100
AcDbEntity
  8
0
100
AcDbLine
 10
706.0
 20
59.0
 30
0.0
 11
752.0
 21
56.0
 31
0.0
  0
LINE
  5
FB
330
17
100
AcDbEntity
  8
0
100
AcDbLine
 10
627.0
 20
1373.0
 30
0.0
 11
670.0
 21
1372.0
 31
0.0
  0
LINE
  5
FC
330
17
100
AcDbEntity
  8
0
100
AcDbLine
 10
797.0
 20
860.0
 30
0.0
 11
1018.0
 21
836.0
 31
0.0
  0
LINE
  5
FD
330
17
100
AcDbEntity
  8
0
100
AcDbLine
 10
131.0
 20
116.0
 30
0.0
 11
136.0
 21
184.0
 31
0.0
  0
LINE
  5
FE
330
17
100
AcDbEntity
  8
0
100
AcDbLine
 10
726.0
 20
1418.0
 30
0.0
 11
761.0
 21
1580.0
 31
0.0
  0
LINE
  5
FF
330
17
100
AcDbEntity
  8
0
100
AcDbLine
 10
540.0
 20
884.0
 30
0.0
 11
602.0
 21
875.0
 31
0.0
  0
LINE
  5
100
330
17
100
AcDbEntity
  8
0
100
AcDbLine
 10
727.0
 20
808.0
 30
0.0
 11
732.0
 21
857.0
 31
0.0
  0
LINE
  5
101
330
17
100
AcDbEntity
  8
0
100
AcDbLine
 10
1156.0
 20
615.0
 30
0.0
 11
1239.0
 21
611.0
 31
0.0
  0
LINE
  5
102
330
17
100
AcDbEntity
  8
0
100
AcDbLine
 10
1028.0
 20
1225.0
 30
0.0
 11
1043.0
 21
1146.0
 31
0.0
  0
LINE
  5
103
330
17
100
AcDbEntity
  8
0
100
AcDbLine
 10
544.0
 20
1387.0
 30
0.0
 11
655.0
 21
1385.0
 31
0.0
  0
LINE
  5
104
330
17
100
AcDbEntity
  8
0
100
AcDbLine
 10
749.0
 20
33.0
 30
0.0
 11
817.0
 21
33.0
 31
0.0
  0
LINE
  5
105
330
17
100
AcDbEntity
  8
0
100
AcDbLine
 10
940.0
 20
1282.0
 30
0.0
 11
941.0
 21
1234.0
 31
0.0
  0
LINE
  5
106
330
17
100
AcDbEntity
  8
0
100
AcDbLine
 10
758.0
 20
1741.0
 30
0.0
 11
924.0
 21
1734.0
 31
0.0
  0
LINE
  5
107
330
17
100
AcDbEntity
  8
0
100
AcDbLine
 10
932.0
 20
20.0
 30
0.0
 11
1211.0
 21
3.0
 31
0.0
  0
LINE
  5
108
330
17
100
AcDbEntity
  8
0
100
AcDbLine
 10
704.0
 20
23.0
 30
0.0
 11
705.0
 21
65.0
 31
0.0
  0
LINE
  5
109
330
17
100
AcDbEntity
  8
0
100
AcDbLine
 10
568.0
 20
1154.0
 30
0.0
 11
573.0
 21
1199.0
 31
0.0
  0
LINE
  5
10A
330
17
100
AcDbEntity
  8
0
100
AcDbLine
 10
540.0
 20
886.0
 30
0.0
 11
603.0
 21
877.0
 31
0.0
  0
LINE
  5
10B
330
17
100
AcDbEntity
  8
0
100
AcDbLine
 10
437.0
 20
59.0
 30
0.0
 11
444.0
 21
154.0
 31
0.0
  0
LINE
  5
10C
330
17
100
AcDbEntity
  8
0
100
AcDbLine
 10
521.0
 20
934.0
 30
0.0
 11
523.0
 21
1012.0
 31
0.0
  0
LINE
  5
10D
330
17
100
AcDbEntity
  8
0
100
AcDbLine
 10
519.0
 20
933.0
 30
0.0
 11
522.0
 21
1045.0
 31
0.0
  0
LINE
  5
10E
330
17
100
AcDbEntity
  8
0
100
AcDbLine
 10
473.0
 20
363.0
 30
0.0
 11
473.0
 21
425.0
 31
0.0
  0
LINE
  5
10F
330
17
100
AcDbEntity
  8
0
100
AcDbLine
 10
1233.0
 20
94.0
 30
0.0
 11
1247.0
 21
11.0
 31
0.0
  0
LINE
  5
110
330
17
100
AcDbEntity
  8
0
100
AcDbLine
 10
480.0
 20
425.0
 30
0.0
 11
486.0
 21
559.0
 31
0.0
  0
LINE
  5
111
330
17
100
AcDbEntity
  8
0
100
AcDbLine
 10
1019.0
 20
33.0
 30
0.0
 11
1063.0
 21
30.0
 31
0.0
  0
LINE
  5
112
330
17
100
AcDbEntity
  8
0
100
AcDbLine
 10
462.0
 20
169.0
 30
0.0
 11
520.0
 21
334.0
 31
0.0
  0
LINE
  5
113
330
17
100
AcDbEntity
  8
0
100
AcDbLine
 10
541.0
 20
889.0
 30
0.0
 11
602.0
 21
879.0
 31
0.0
  0
LINE
  5
114
330
17
100
AcDbEntity
  8
0
100
AcDbLine
 10
584.0
 20
627.0
 30
0.0
 11
653.0
 21
622.0
 31
0.0
  0
LINE
  5
115
330
17
100
AcDbEntity
  8
0
100
AcDbLine
 10
988.0
 20
915.0
 30
0.0
 11
993.0
 21
853.0
 31
0.0
  0
LINE
  5
116
330
17
100
AcDbEntity
  8
0
100
AcDbLine
 10
938.0
 20
1282.0
 30
0.0
 11
940.0
 21
1235.0
 31
0.0
  0
LINE
  5
117
330
17
100
AcDbEntity
  8
0
100
AcDbLine
 10
684.0
 20
24.0
 30
0.0
 11
761.0
 21
20.0
 31
0.0
  0
LINE
  5
118
330
17
100
AcDbEntity
  8
0
100
AcDbLine
 10
739.0
 20
1567.0
 30
0.0
 11
741.0
 21
1492.0
 31
0.0
  0
LINE
  5
119
330
17
100
AcDbEntity
  8
0
100
AcDbLine
 10
486.0
 20
752.0
 30
0.0
 11
489.0
 21
793.0
 31
0.0
  0
LINE
  5
11A
330
17
100
AcDbEntity
  8
0
100
AcDbLine
 10
1006.0
 20
14.0
 30
0.0
 11
1008.0
 21
101.0
 31
0.0
  0
LINE
  5
11B
330
17
100
AcDbEntity
  8
0
100
AcDbLine
 10
1022.0
 20
39.0
 30
0.0
 11
1063.0
 21
38.0
 31
0.0
  0
LINE
  5
11C
330
17
100
AcDbEntity
  8
0
100
AcDbLine
 10
752.0
 20
23.0
 30
0.0
 11
820.0
 21
31.0
 31
0.0
  0
LINE
  5
11D
330
17
100
AcDbEntity
  8
0
100
AcDbLine
 10
733.0
 20
817.0
 30
0.0
 11
735.0
 21
858.0
 31
0.0
  0
LINE
  5
11E
330
17
100
AcDbEntity
  8
0
100
AcDbLine
 10
1293.0
 20
1172.0
 30
0.0
 11
1301.0
 21
1261.0
 31
0.0
  0
LINE
  5
11F
330
17
100
AcDbEntity
  8
0
100
AcDbLine
 10
1013.0
 20
433.0
 30
0.0
 11
1138.0
 21
428.0
 31
0.0
  0
LINE
  5
120
330
17
100
AcDbEntity
  8
0
100
AcDbLine
 10
908.0
 20
1505.0
 30
0.0
 11
911.0
 21
1373.0
 31
0.0
  0
LINE
  5
121
330
17
100
AcDbEntity
  8
0
100
AcDbLine
 10
476.0
 20
35.0
 30
0.0
 11
526.0
 21
35.0
 31
0.0
  0
LINE
  5
122
330
17
100
AcDbEntity
  8
0
100
AcDbLine
 10
960.0
 20
598.0
 30
0.0
 11
1071.0
 21
587.0
 31
0.0
  0
LINE
  5
123
330
17
100
AcDbEntity
  8
0
100
AcDbLine
 10
526.0
 20
1290.0
 30
0.0
 11
601.0
 21
1268.0
 31
0.0
  0
LINE
  5
124
330
17
100
AcDbEntity
  8
0
100
AcDbLine
 10
1310.0
 20
1192.0
 30
0.0
 11
1320.0
 21
1357.0
 31
0.0
  0
LINE
  5
125
330
17
100
AcDbEntity
  8
0
100
AcDbLine
 10
724.0
 20
1390.0
 30
0.0
 11
736.0
 21
1453.0
 31
0.0
  0
LINE
  5
126
330
17
100
AcDbEntity
  8
0
100
AcDbLine
 10
729.0
 20
774.0
 30
0.0
 11
827.0
 21
777.0
 31
0.0
  0
LINE
  5
127
330
17
100
AcDbEntity
  8
0
100
AcDbLine
 10
415.0
 20
136.0
 30
0.0
 11
475.0
 21
132.0
 31
0.0
  0
LINE
  5
128
330
17
100
AcDbEntity
  8
0
100
AcDbLine
 10
1018.0
 20
1084.0
 30
0.0
 11
1161.0
 21
1084.0
 31
0.0
  0
LINE
  5
129
330
17
100
AcDbEntity
  8
0
100
AcDbLine
 10
912.0
 20
100.0
 30
0.0
 11
1019.0
 21
91.0
 31
0.0
  0
LINE
  5
12A
330
17
100
AcDbEntity
  8
0
100
AcDbLine
 10
788.0
 20
1541.0
 30
0.0
 11
789.0
 21
1494.0
 31
0.0
  0
LINE
  5
12B
330
17
100
AcDbEntity
  8
0
100
AcDbLine
 10
753.0
 20
1668.0
 30
0.0
 11
753.0
 21
1743.0
 31
0.0
  0
LINE
  5
12C
330
17
100
AcDbEntity
  8
0
100
AcDbLine
 10
733.0
 20
1518.0
 30
0.0
 11
748.0
 21
1600.0
 31
0.0
  0
LINE
  5
12D
330
17
100
AcDbEntity
  8
0
100
AcDbLine
 10
539.0
 20
1384.0
 30
0.0
 11
612.0
 21
1383.0
 31
0.0
  0
LINE
  5
12E
330
17
100
AcDbEntity
  8
0
100
AcDbLine
 10
1151.0
 20
790.0
 30
0.0
 11
1249.0
 21
782.0
 31
0.0
  0
LINE
  5
12F
330
17
100
AcDbEntity
  8
0
100
AcDbLine
 10
1051.0
 20
1151.0
 30
0.0
 11
1058.0
 21
1223.0
 31
0.0
  0
LINE
  5
130
330
17
100
AcDbEntity
  8
0
100
AcDbLine
 10
160.0
 20
463.0
 30
0.0
 11
249.0
 21
459.0
 31
0.0
  0
LINE
  5
131
330
17
100
AcDbEntity
  8
0
100
AcDbLine
 10
584.0
 20
625.0
 30
0.0
 11
647.0
 21
615.0
 31
0.0
  0
LINE
  5
132
330
17
100
AcDbEntity
  8
0
100
AcDbLine
 10
1240.0
 20
612.0
 30
0.0
 11
1251.0
 21
775.0
 31
0.0
  0
LINE
  5
133
330
17
100
AcDbEntity
  8
0
100
AcDbLine
 10
158.0
 20
454.0
 30
0.0
 11
169.0
 21
612.0
 31
0.0
  0
LINE
  5
134
330
17
100
AcDbEntity
  8
0
100
AcDbLine
 10
494.0
 20
711.0
 30
0.0
 11
494.0
 21
768.0
 31
0.0
  0
LINE
  5
135
330
17
100
AcDbEntity
  8
0
100
AcDbLine
 10
1312.0
 20
1175.0
 30
0.0
 11
1322.0
 21
1355.0
 31
0.0
  0
LINE
  5
136
330
17
100
AcDbEntity
  8
0
100
AcDbLine
 10
580.0
 20
611.0
 30
0.0
 11
650.0
 21
636.0
 31
0.0
  0
LINE
  5
137
330
17
100
AcDbEntity
  8
0
100
AcDbLine
 10
1232.0
 20
106.0
 30
0.0
 11
1248.0
 21
46.0
 31
0.0
  0
LINE
  5
138
330
17
100
AcDbEntity
  8
0
100
AcDbLine
 10
731.0
 20
853.0
 30
0.0
 11
790.0
 21
853.0
 31
0.0
  0
LINE
  5
139
330
17
100
AcDbEntity
  8
0
100
AcDbLine
 10
725.0
 20
777.0
 30
0.0
 11
780.0
 21
772.0
 31
0.0
  0
LINE
  5
13A
330
17
100
AcDbEntity
  8
0
100
AcDbLine
 10
911.0
 20
84.0
 30
0.0
 11
995.0
 21
101.0
 31
0.0
  0
LINE
  5
13B
330
17
100
AcDbEntity
  8
0
100
AcDbLine
 10
152.0
 20
467.0
 30
0.0
 11
237.0
 21
463.0
 31
0.0
  0
LINE
  5
13C
330
17
100
AcDbEntity
  8
0
100
AcDbLine
 10
1149.0
 20
421.0
 30
0.0
 11
1154.0
 21
579.0
 31
0.0
  0
LINE
  5
13D
330
17
100
AcDbEntity
  8
0
100
AcDbLine
 10
927.0
 20
1595.0
 30
0.0
 11
928.0
 21
1730.0
 31
0.0
  0
LINE
  5
13E
330
17
100
AcDbEntity
  8
0
100
AcDbLine
 10
443.0
 20
852.0
 30
0.0
 11
603.0
 21
859.0
 31
0.0
  0
LINE
  5
13F
330
17
100
AcDbEntity
  8
0
100
AcDbLine
 10
742.0
 20
1576.0
 30
0.0
 11
744.0
 21
1516.0
 31
0.0
  0
LINE
  5
140
330
17
100
AcDbEntity
  8
0
100
AcDbLine
 10
724.0
 20
1386.0
 30
0.0
 11
736.0
 21
1440.0
 31
0.0
  0
LINE
  5
141
330
17
100
AcDbEntity
  8
0
100
AcDbLine
 10
454.0
 20
646.0
 30
0.0
 11
497.0
 21
644.0
 31
0.0
  0
LINE
  5
142
330
17
100
AcDbEntity
  8
0
100
AcDbLine
 10
1019.0
 20
36.0
 30
0.0
 11
1062.0
 21
34.0
 31
0.0
  0
LINE
  5
143
330
17
100
AcDbEntity
  8
0
100
AcDbLine
 10
1146.0
 20
421.0
 30
0.0
 11
1148.0
 21
501.0
 31
0.0
  0
LINE
  5
144
330
17
100
AcDbEntity
  8
0
100
AcDbLine
 10
1017.0
 20
57.0
 30
0.0
 11
1021.0
 21
98.0
 31
0.0
  0
LINE
  5
145
330
17
100
AcDbEntity
  8
0
100
AcDbLine
 10
590.0
 20
629.0
 30
0.0
 11
650.0
 21
625.0
 31
0.0
  0
LINE
  5
146
330
17
100
AcDbEntity
  8
0
100
AcDbLine
 10
1152.0
 20
1071.0
 30
0.0
 11
1154.0
 21
1212.0
 31
0.0
  0
LINE
  5
147
330
17
100
AcDbEntity
  8
0
100
AcDbLine
 10
498.0
 20
852.0
 30
0.0
 11
542.0
 21
848.0
 31
0.0
  0
LINE
  5
148
330
17
100
AcDbEntity
  8
0
100
AcDbLine
 10
759.0
 20
1449.0
 30
0.0
 11
761.0
 21
1494.0
 31
0.0
  0
LINE
  5
149
330
17
100
AcDbEntity
  8
0
100
AcDbLine
 10
757.0
 20
1452.0
 30
0.0
 11
758.0
 21
1493.0
 31
0.0
  0
LINE
  5
14A
330
17
100
AcDbEntity
  8
0
100
AcDbLine
 10
914.0
 20
64.0
 30
0.0
 11
918.0
 21
124.0
 31
0.0
  0
LINE
  5
14B
330
17
100
AcDbEntity
  8
0
100
AcDbLine
 10
482.0
 20
222.0
 30
0.0
 11
522.0
 21
337.0
 31
0.0
  0
LINE
  5
14C
330
17
100
AcDbEntity
  8
0
100
AcDbLine
 10
1153.0
 20
792.0
 30
0.0
 11
1248.0
 21
785.0
 31
0.0
  0
LINE
  5
14D
330
17
100
AcDbEntity
  8
0
100
AcDbLine
 10
605.0
 20
674.0
 30
0.0
 11
642.0
 21
620.0
 31
0.0
  0
LINE
  5
14E
330
17
100
AcDbEntity
  8
0
100
AcDbLine
 10
836.0
 20
125.0
 30
0.0
 11
837.0
 21
85.0
 31
0.0
  0
LINE
  5
14F
330
17
100
AcDbEntity
  8
0
100
AcDbLine
 10
909.0
 20
1493.0
 30
0.0
 11
912.0
 21
1427.0
 31
0.0
  0
LINE
  5
150
330
17
100
AcDbEntity
  8
0
100
AcDbLine
 10
748.0
 20
30.0
 30
0.0
 11
811.0
 21
28.0
 31
0.0
  0
LINE
  5
151
330
17
100
AcDbEntity
  8
0
100
AcDbLine
 10
465.0
 20
86.0
 30
0.0
 11
476.0
 21
202.0
 31
0.0
  0
LINE
  5
152
330
17
100
AcDbEntity
  8
0
100
AcDbLine
 10
516.0
 20
217.0
 30
0.0
 11
518.0
 21
262.0
 31
0.0
  0
LINE
  5
153
330
17
100
AcDbEntity
  8
0
100
AcDbLine
 10
416.0
 20
162.0
 30
0.0
 11
446.0
 21
103.0
 31
0.0
  0
LINE
  5
154
330
17
100
AcDbEntity
  8
0
100
AcDbLine
 10
590.0
 20
631.0
 30
0.0
 11
655.0
 21
626.0
 31
0.0
  0
LINE
  5
155
330
17
100
AcDbEntity
  8
0
100
AcDbLine
 10
1008.0
 20
14.0
 30
0.0
 11
1017.0
 21
100.0
 31
0.0
  0
LINE
  5
156
330
17
100
AcDbEntity
  8
0
100
AcDbLine
 10
614.0
 20
643.0
 30
0.0
 11
654.0
 21
639.0
 31
0.0
  0
LINE
  5
157
330
17
100
AcDbEntity
  8
0
100
AcDbLine
 10
1244.0
 20
87.0
 30
0.0
 11
1249.0
 21
17.0
 31
0.0
  0
LINE
  5
158
330
17
100
AcDbEntity
  8
0
100
AcDbLine
 10
901.0
 20
123.0
 30
0.0
 11
931.0
 21
21.0
 31
0.0
  0
LINE
  5
159
330
17
100
AcDbEntity
  8
0
100
AcDbLine
 10
894.0
 20
845.0
 30
0.0
 11
1010.0
 21
834.0
 31
0.0
  0
LINE
  5
15A
330
17
100
AcDbEntity
  8
0
100
AcDbLine
 10
439.0
 20
54.0
 30
0.0
 11
467.0
 21
130.0
 31
0.0
  0
LINE
  5
15B
330
17
100
AcDbEntity
  8
0
100
AcDbLine
 10
745.0
 20
1273.0
 30
0.0
 11
750.0
 21
1339.0
 31
0.0
  0
LINE
  5
15C
330
17
100
AcDbEntity
  8
0
100
AcDbLine
 10
463.0
 20
406.0
 30
0.0
 11
484.0
 21
485.0
 31
0.0
  0
LINE
  5
15D
330
17
100
AcDbEntity
  8
0
100
AcDbLine
 10
154.0
 20
461.0
 30
0.0
 11
245.0
 21
478.0
 31
0.0
  0
LINE
  5
15E
330
17
100
AcDbEntity
  8
0
100
AcDbLine
 10
469.0
 20
357.0
 30
0.0
 11
482.0
 21
437.0
 31
0.0
  0
LINE
  5
15F
330
17
100
AcDbEntity
  8
0
100
AcDbLine
 10
739.0
 20
52.0
 30
0.0
 11
816.0
 21
49.0
 31
0.0
  0
LINE
  5
160
330
17
100
AcDbEntity
  8
0
100
AcDbLine
 10
1135.0
 20
1076.0
 30
0.0
 11
1159.0
 21
1208.0
 31
0.0
  0
LINE
  5
161
330
17
100
AcDbEntity
  8
0
100
AcDbLine
 10
833.0
 20
67.0
 30
0.0
 11
841.0
 21
128.0
 31
0.0
  0
LINE
  5
162
330
17
100
AcDbEntity
  8
0
100
AcDbLine
 10
971.0
 20
101.0
 30
0.0
 11
973.0
 21
20.0
 31
0.0
  0
LINE
  5
163
330
17
100
AcDbEntity
  8
0
100
AcDbLine
 10
526.0
 20
554.0
 30
0.0
 11
533.0
 21
612.0
 31
0.0
  0
LINE
  5
164
330
17
100
AcDbEntity
  8
0
100
AcDbLine
 10
573.0
 20
25.0
 30
0.0
 11
625.0
 21
25.0
 31
0.0
  0
LINE
  5
165
330
17
100
AcDbEntity
  8
0
100
AcDbLine
 10
412.0
 20
159.0
 30
0.0
 11
469.0
 21
45.0
 31
0.0
  0
LINE
  5
166
330
17
100
AcDbEntity
  8
0
100
AcDbLine
 10
738.0
 20
1622.0
 30
0.0
 11
743.0
 21
1516.0
 31
0.0
  0
LINE
  5
167
330
17
100
AcDbEntity
  8
0
100
AcDbLine
 10
533.0
 20
933.0
 30
0.0
 11
543.0
 21
1005.0
 31
0.0
  0
LINE
  5
168
330
17
100
AcDbEntity
  8
0
100
AcDbLine
 10
1160.0
 20
1207.0
 30
0.0
 11
1162.0
 21
1161.0
 31
0.0
  0
LINE
  5
169
330
17
100
AcDbEntity
  8
0
100
AcDbLine
 10
487.0
 20
638.0
 30
0.0
 11
500.0
 21
796.0
 31
0.0
  0
LINE
  5
16A
330
17
100
AcDbEntity
  8
0
100
AcDbLine
 10
736.0
 20
44.0
 30
0.0
 11
816.0
 21
39.0
 31
0.0
  0
LINE
  5
16B
330
17
100
AcDbEntity
  8
0
100
AcDbLine
 10
541.0
 20
845.0
 30
0.0
 11
548.0
 21
925.0
 31
0.0
  0
LINE
  5
16C
330
17
100
AcDbEntity
  8
0
100
AcDbLine
 10
587.0
 20
606.0
 30
0.0
 11
652.0
 21
632.0
 31
0.0
  0
LINE
  5
16D
330
17
100
AcDbEntity
  8
0
100
AcDbLine
 10
443.0
 20
561.0
 30
0.0
 11
524.0
 21
554.0
 31
0.0
  0
LINE
  5
16E
330
17
100
AcDbEntity
  8
0
100
AcDbLine
 10
927.0
 20
1235.0
 30
0.0
 11
947.0
 21
1278.0
 31
0.0
  0
LINE
  5
16F
330
17
100
AcDbEntity
  8
0
100
AcDbLine
 10
537.0
 20
880.0
 30
0.0
 11
548.0
 21
935.0
 31
0.0
  0
LINE
  5
170
330
17
100
AcDbEntity
  8
0
100
AcDbLine
 10
726.0
 20
776.0
 30
0.0
 11
731.0
 21
829.0
 31
0.0
  0
LINE
  5
171
330
17
100
AcDbEntity
  8
0
100
AcDbLine
 10
587.0
 20
608.0
 30
0.0
 11
600.0
 21
666.0
 31
0.0
  0
LINE
  5
172
330
17
100
AcDbEntity
  8
0
100
AcDbLine
 10
769.0
 20
1580.0
 30
0.0
 11
797.0
 21
1512.0
 31
0.0
  0
LINE
  5
173
330
17
100
AcDbEntity
  8
0
100
AcDbLine
 10
436.0
 20
364.0
 30
0.0
 11
522.0
 21
331.0
 31
0.0
  0
LINE
  5
174
330
17
100
AcDbEntity
  8
0
100
AcDbLine
 10
1001.0
 20
19.0
 30
0.0
 11
1011.0
 21
101.0
 31
0.0
  0
LINE
  5
175
330
17
100
AcDbEntity
  8
0
100
AcDbLine
 10
577.0
 20
1153.0
 30
0.0
 11
604.0
 21
1256.0
 31
0.0
  0
LINE
  5
176
330
17
100
AcDbEntity
  8
0
100
AcDbLine
 10
528.0
 20
1027.0
 30
0.0
 11
531.0
 21
1087.0
 31
0.0
  0
LINE
  5
177
330
17
100
AcDbEntity
  8
0
100
AcDbLine
 10
1129.0
 20
1075.0
 30
0.0
 11
1154.0
 21
1129.0
 31
0.0
  0
LINE
  5
178
330
17
100
AcDbEntity
  8
0
100
AcDbLine
 10
980.0
 20
101.0
 30
0.0
 11
1009.0
 21
14.0
 31
0.0
  0
LINE
  5
179
330
17
100
AcDbEntity
  8
0
100
AcDbLine
 10
439.0
 20
559.0
 30
0.0
 11
508.0
 21
553.0
 31
0.0
  0
LINE
  5
17A
330
17
100
AcDbEntity
  8
0
100
AcDbLine
 10
581.0
 20
1294.0
 30
0.0
 11
587.0
 21
1347.0
 31
0.0
  0
LINE
  5
17B
330
17
100
AcDbEntity
  8
0
100
AcDbLine
 10
1233.0
 20
126.0
 30
0.0
 11
1246.0
 21
26.0
 31
0.0
  0
LINE
  5
17C
330
17
100
AcDbEntity
  8
0
100
AcDbLine
 10
467.0
 20
427.0
 30
0.0
 11
485.0
 21
496.0
 31
0.0
  0
LINE
  5
17D
330
17
100
AcDbEntity
  8
0
100
AcDbLine
 10
517.0
 20
555.0
 30
0.0
 11
522.0
 21
624.0
 31
0.0
  0
LINE
  5
17E
330
17
100
AcDbEntity
  8
0
100
AcDbLine
 10
516.0
 20
245.0
 30
0.0
 11
520.0
 21
325.0
 31
0.0
  0
LINE
  5
17F
330
17
100
AcDbEntity
  8
0
100
AcDbLine
 10
1237.0
 20
1371.0
 30
0.0
 11
1278.0
 21
1375.0
 31
0.0
  0
LINE
  5
180
330
17
100
AcDbEntity
  8
0
100
AcDbLine
 10
159.0
 20
456.0
 30
0.0
 11
171.0
 21
609.0
 31
0.0
  0
LINE
  5
181
330
17
100
AcDbEntity
  8
0
100
AcDbLine
 10
750.0
 20
25.0
 30
0.0
 11
805.0
 21
25.0
 31
0.0
  0
LINE
  5
182
330
17
100
AcDbEntity
  8
0
100
AcDbLine
 10
560.0
 20
1147.0
 30
0.0
 11
579.0
 21
1204.0
 31
0.0
  0
LINE
  5
183
330
17
100
AcDbEntity
  8
0
100
AcDbLine
 10
1012.0
 20
1000.0
 30
0.0
 11
1017.0
 21
1090.0
 31
0.0
  0
LINE
  5
184
330
17
100
AcDbEntity
  8
0
100
AcDbLine
 10
166.0
 20
530.0
 30
0.0
 11
172.0
 21
610.0
 31
0.0
  0
LINE
  5
185
330
17
100
AcDbEntity
  8
0
100
AcDbLine
 10
202.0
 20
451.0
 30
0.0
 11
243.0
 21
450.0
 31
0.0
  0
LINE
  5
186
330
17
100
AcDbEntity
  8
0
100
AcDbLine
 10
838.0
 20
127.0
 30
0.0
 11
879.0
 21
126.0
 31
0.0
  0
LINE
  5
187
330
17
100
AcDbEntity
  8
0
100
AcDbLine
 10
1015.0
 20
100.0
 30
0.0
 11
1026.0
 21
9.0
 31
0.0
  0
LINE
  5
188
330
17
100
AcDbEntity
  8
0
100
AcDbLine
 10
485.0
 20
706.0
 30
0.0
 11
485.0
 21
644.0
 31
0.0
  0
LINE
  5
189
330
17
100
AcDbEntity
  8
0
100
AcDbLine
 10
923.0
 20
1735.0
 30
0.0
 11
928.0
 21
1666.0
 31
0.0
  0
LINE
  5
18A
330
17
100
AcDbEntity
  8
0
100
AcDbLine
 10
432.0
 20
63.0
 30
0.0
 11
437.0
 21
133.0
 31
0.0
  0
LINE
  5
18B
330
17
100
AcDbEntity
  8
0
100
AcDbLine
 10
558.0
 20
26.0
 30
0.0
 11
623.0
 21
29.0
 31
0.0
  0
LINE
  5
18C
330
17
100
AcDbEntity
  8
0
100
AcDbLine
 10
480.0
 20
646.0
 30
0.0
 11
483.0
 21
709.0
 31
0.0
  0
LINE
  5
18D
330
17
100
AcDbEntity
  8
0
100
AcDbLine
 10
582.0
 20
610.0
 30
0.0
 11
642.0
 21
608.0
 31
0.0
  0
LINE
  5
18E
330
17
100
AcDbEntity
  8
0
100
AcDbLine
 10
1060.0
 20
1369.0
 30
0.0
 11
1145.0
 21
1368.0
 31
0.0
  0
LINE
  5
18F
330
17
100
AcDbEntity
  8
0
100
AcDbLine
 10
895.0
 20
1377.0
 30
0.0
 11
998.0
 21
1362.0
 31
0.0
  0
LINE
  5
190
330
17
100
AcDbEntity
  8
0
100
AcDbLine
 10
920.0
 20
1286.0
 30
0.0
 11
930.0
 21
1232.0
 31
0.0
  0
LINE
  5
191
330
17
100
AcDbEntity
  8
0
100
AcDbLine
 10
747.0
 20
413.0
 30
0.0
 11
823.0
 21
374.0
 31
0.0
  0
LINE
  5
192
330
17
100
AcDbEntity
  8
0
100
AcDbLine
 10
738.0
 20
1652.0
 30
0.0
 11
782.0
 21
1757.0
 31
0.0
  0
LINE
  5
193
330
17
100
AcDbEntity
  8
0
100
AcDbLine
 10
478.0
 20
646.0
 30
0.0
 11
533.0
 21
606.0
 31
0.0
  0
LINE
  5
194
330
17
100
AcDbEntity
  8
0
100
AcDbLine
 10
899.0
 20
123.0
 30
0.0
 11
914.0
 21
68.0
 31
0.0
  0
LINE
  5
195
330
17
100
AcDbEntity
  8
0
100
AcDbLine
 10
915.0
 20
1734.0
 30
0.0
 11
930.0
 21
1667.0
 31
0.0
  0
LINE
  5
196
330
17
100
AcDbEntity
  8
0
100
AcDbLine
 10
1078.0
 20
428.0
 30
0.0
 11
1142.0
 21
426.0
 31
0.0
  0
LINE
  5
197
330
17
100
AcDbEntity
  8
0
100
AcDbLine
 10
748.0
 20
34.0
 30
0.0
 11
815.0
 21
34.0
 31
0.0
  0
LINE
  5
198
330
17
100
AcDbEntity
  8
0
100
AcDbLine
 10
789.0
 20
1526.0
 30
0.0
 11
808.0
 21
1480.0
 31
0.0
  0
LINE
  5
199
330
17
100
AcDbEntity
  8
0
100
AcDbLine
 10
1007.0
 20
14.0
 30
0.0
 11
1009.0
 21
101.0
 31
0.0
  0
LINE
  5
19A
330
17
100
AcDbEntity
  8
0
100
AcDbLine
 10
1090.0
 20
883.0
 30
0.0
 11
1153.0
 21
878.0
 31
0.0
  0
LINE
  5
19B
330
17
100
AcDbEntity
  8
0
100
AcDbLine
 10
533.0
 20
1280.0
 30
0.0
 11
603.0
 21
1272.0
 31
0.0
  0
LINE
  5
19C
330
17
100
AcDbEntity
  8
0
100
AcDbLine
 10
1147.0
 20
1100.0
 30
0.0
 11
1165.0
 21
1183.0
 31
0.0
  0
LINE
  5
19D
330
17
100
AcDbEntity
  8
0
100
AcDbLine
 10
132.0
 20
110.0
 30
0.0
 11
138.0
 21
170.0
 31
0.0
  0
LINE
  5
19E
330
17
100
AcDbEntity
  8
0
100
AcDbLine
 10
250.0
 20
567.0
 30
0.0
 11
252.0
 21
609.0
 31
0.0
  0
LINE
  5
19F
330
17
100
AcDbEntity
  8
0
100
AcDbLine
 10
1095.0
 20
879.0
 30
0.0
 11
1151.0
 21
875.0
 31
0.0
  0
LINE
  5
1A0
330
17
100
AcDbEntity
  8
0
100
AcDbLine
 10
484.0
 20
34.0
 30
0.0
 11
568.0
 21
33.0
 31
0.0
  0
LINE
  5
1A1
330
17
100
AcDbEntity
  8
0
100
AcDbLine
 10
971.0
 20
508.0
 30
0.0
 11
1042.0
 21
512.0
 31
0.0
  0
LINE
  5
1A2
330
17
100
AcDbEntity
  8
0
100
AcDbLine
 10
987.0
 20
909.0
 30
0.0
 11
996.0
 21
857.0
 31
0.0
  0
LINE
  5
1A3
330
17
100
AcDbEntity
  8
0
100
AcDbLine
 10
161.0
 20
461.0
 30
0.0
 11
242.0
 21
452.0
 31
0.0
  0
LINE
  5
1A4
330
17
100
AcDbEntity
  8
0
100
AcDbLine
 10
1024.0
 20
1226.0
 30
0.0
 11
1105.0
 21
1217.0
 31
0.0
  0
LINE
  5
1A5
330
17
100
AcDbEntity
  8
0
100
AcDbLine
 10
544.0
 20
1383.0
 30
0.0
 11
665.0
 21
1373.0
 31
0.0
  0
LINE
  5
1A6
330
17
100
AcDbEntity
  8
0
100
AcDbLine
 10
1137.0
 20
11.0
 30
0.0
 11
1219.0
 21
8.0
 31
0.0
  0
LINE
  5
1A7
330
17
100
AcDbEntity
  8
0
100
AcDbLine
 10
730.0
 20
705.0
 30
0.0
 11
742.0
 21
665.0
 31
0.0
  0
LINE
  5
1A8
330
17
100
AcDbEntity
  8
0
100
AcDbLine
 10
747.0
 20
527.0
 30
0.0
 11
771.0
 21
480.0
 31
0.0
  0
LINE
  5
1A9
330
17
100
AcDbEntity
  8
0
100
AcDbLine
 10
596.0
 20
1279.0
 30
0.0
 11
597.0
 21
1201.0
 31
0.0
  0
LINE
  5
1AA
330
17
100
AcDbEntity
  8
0
100
AcDbLine
 10
1053.0
 20
1192.0
 30
0.0
 11
1094.0
 21
1178.0
 31
0.0
  0
LINE
  5
1AB
330
17
100
AcDbEntity
  8
0
100
AcDbLine
 10
597.0
 20
668.0
 30
0.0
 11
644.0
 21
620.0
 31
0.0
  0
LINE
  5
1AC
330
17
100
AcDbEntity
  8
0
100
AcDbLine
 10
901.0
 20
1373.0
 30
0.0
 11
911.0
 21
1421.0
 31
0.0
  0
LINE
  5
1AD
330
17
100
AcDbEntity
  8
0
100
AcDbLine
 10
435.0
 20
366.0
 30
0.0
 11
549.0
 21
329.0
 31
0.0
  0
LINE
  5
1AE
330
17
100
AcDbEntity
  8
0
100
AcDbLine
 10
225.0
 20
866.0
 30
0.0
 11
265.0
 21
862.0
 31
0.0
  0
LINE
  5
1AF
330
17
100
AcDbEntity
  8
0
100
AcDbLine
 10
626.0
 20
1351.0
 30
0.0
 11
631.0
 21
1396.0
 31
0.0
  0
LINE
  5
1B0
330
17
100
AcDbEntity
  8
0
100
AcDbLine
 10
814.0
 20
20.0
 30
0.0
 11
845.0
 21
128.0
 31
0.0
  0
LINE
  5
1B1
330
17
100
AcDbEntity
  8
0
100
AcDbLine
 10
738.0
 20
49.0
 30
0.0
 11
810.0
 21
46.0
 31
0.0
  0
LINE
  5
1B2
330
17
100
AcDbEntity
  8
0
100
AcDbLine
 10
1160.0
 20
1186.0
 30
0.0
 11
1238.0
 21
1183.0
 31
0.0
  0
LINE
  5
1B3
330
17
100
AcDbEntity
  8
0
100
AcDbLine
 10
744.0
 20
1574.0
 30
0.0
 11
748.0
 21
1494.0
 31
0.0
  0
LINE
  5
1B4
330
17
100
AcDbEntity
  8
0
100
AcDbLine
 10
545.0
 20
1082.0
 30
0.0
 11
604.0
 21
1258.0
 31
0.0
  0
LINE
  5
1B5
330
17
100
AcDbEntity
  8
0
100
AcDbLine
 10
813.0
 20
20.0
 30
0.0
 11
822.0
 21
70.0
 31
0.0
  0
LINE
  5
1B6
330
17
100
AcDbEntity
  8
0
100
AcDbLine
 10
580.0
 20
612.0
 30
0.0
 11
656.0
 21
639.0
 31
0.0
  0
LINE
  5
1B7
330
17
100
AcDbEntity
  8
0
100
AcDbLine
 10
618.0
 20
644.0
 30
0.0
 11
621.0
 21
604.0
 31
0.0
  0
LINE
  5
1B8
330
17
100
AcDbEntity
  8
0
100
AcDbLine
 10
745.0
 20
45.0
 30
0.0
 11
795.0
 21
43.0
 31
0.0
  0
LINE
  5
1B9
330
17
100
AcDbEntity
  8
0
100
AcDbLine
 10
917.0
 20
1291.0
 30
0.0
 11
937.0
 21
1233.0
 31
0.0
  0
LINE
  5
1BA
330
17
100
AcDbEntity
  8
0
100
AcDbLine
 10
531.0
 20
1284.0
 30
0.0
 11
602.0
 21
1276.0
 31
0.0
  0
LINE
  5
1BB
330
17
100
AcDbEntity
  8
0
100
AcDbLine
 10
538.0
 20
960.0
 30
0.0
 11
556.0
 21
879.0
 31
0.0
  0
LINE
  5
1BC
330
17
100
AcDbEntity
  8
0
100
AcDbLine
 10
744.0
 20
857.0
 30
0.0
 11
790.0
 21
850.0
 31
0.0
  0
LINE
  5
1BD
330
17
100
AcDbEntity
  8
0
100
AcDbLine
 10
488.0
 20
136.0
 30
0.0
 11
500.0
 21
222.0
 31
0.0
  0
LINE
  5
1BE
330
17
100
AcDbEntity
  8
0
100
AcDbLine
 10
1187.0
 20
1370.0
 30
0.0
 11
1233.0
 21
1375.0
 31
0.0
  0
LINE
  5
1BF
330
17
100
AcDbEntity
  8
0
100
AcDbLine
 10
508.0
 20
261.0
 30
0.0
 11
517.0
 21
339.0
 31
0.0
  0
LINE
  5
1C0
330
17
100
AcDbEntity
  8
0
100
AcDbLine
 10
935.0
 20
101.0
 30
0.0
 11
1023.0
 21
95.0
 31
0.0
  0
LINE
  5
1C1
330
17
100
AcDbEntity
  8
0
100
AcDbLine
 10
410.0
 20
159.0
 30
0.0
 11
470.0
 21
40.0
 31
0.0
  0
LINE
  5
1C2
330
17
100
AcDbEntity
  8
0
100
AcDbLine
 10
534.0
 20
1293.0
 30
0.0
 11
588.0
 21
1300.0
 31
0.0
  0
LINE
  5
1C3
330
17
100
AcDbEntity
  8
0
100
AcDbLine
 10
512.0
 20
219.0
 30
0.0
 11
527.0
 21
281.0
 31
0.0
  0
LINE
  5
1C4
330
17
100
AcDbEntity
  8
0
100
AcDbLine
 10
782.0
 20
773.0
 30
0.0
 11
992.0
 21
755.0
 31
0.0
  0
LINE
  5
1C5
330
17
100
AcDbEntity
  8
0
100
AcDbLine
 10
455.0
 20
648.0
 30
0.0
 11
523.0
 21
635.0
 31
0.0
  0
LINE
  5
1C6
330
17
100
AcDbEntity
  8
0
100
AcDbLine
 10
1070.0
 20
426.0
 30
0.0
 11
1202.0
 21
419.0
 31
0.0
  0
LINE
  5
1C7
330
17
100
AcDbEntity
  8
0
100
AcDbLine
 10
912.0
 20
65.0
 30
0.0
 11
914.0
 21
124.0
 31
0.0
  0
LINE
  5
1C8
330
17
100
AcDbEntity
  8
0
100
AcDbLine
 10
728.0
 20
1470.0
 30
0.0
 11
741.0
 21
1533.0
 31
0.0
  0
LINE
  5
1C9
330
17
100
AcDbEntity
  8
0
100
AcDbLine
 10
1157.0
 20
789.0
 30
0.0
 11
1249.0
 21
781.0
 31
0.0
  0
LINE
  5
1CA
330
17
100
AcDbEntity
  8
0
100
AcDbLine
 10
468.0
 20
411.0
 30
0.0
 11
480.0
 21
460.0
 31
0.0
  0
LINE
  5
1CB
330
17
100
AcDbEntity
  8
0
100
AcDbLine
 10
1156.0
 20
793.0
 30
0.0
 11
1238.0
 21
786.0
 31
0.0
  0
LINE
  5
1CC
330
17
100
AcDbEntity
  8
0
100
AcDbLine
 10
959.0
 20
576.0
 30
0.0
 11
961.0
 21
509.0
 31
0.0
  0
LINE
  5
1CD
330
17
100
AcDbEntity
  8
0
100
AcDbLine
 10
609.0
 20
675.0
 30
0.0
 11
617.0
 21
615.0
 31
0.0
  0
LINE
  5
1CE
330
17
100
AcDbEntity
  8
0
100
AcDbLine
 10
1230.0
 20
1178.0
 30
0.0
 11
1307.0
 21
1173.0
 31
0.0
  0
LINE
  5
1CF
330
17
100
AcDbEntity
  8
0
100
AcDbLine
 10
156.0
 20
578.0
 30
0.0
 11
169.0
 21
779.0
 31
0.0
  0
LINE
  5
1D0
330
17
100
AcDbEntity
  8
0
100
AcDbLine
 10
1079.0
 20
1126.0
 30
0.0
 11
1102.0
 21
1080.0
 31
0.0
  0
LINE
  5
1D1
330
17
100
AcDbEntity
  8
0
100
AcDbLine
 10
731.0
 20
1644.0
 30
0.0
 11
776.0
 21
1754.0
 31
0.0
  0
LINE
  5
1D2
330
17
100
AcDbEntity
  8
0
100
AcDbLine
 10
1145.0
 20
1072.0
 30
0.0
 11
1146.0
 21
1169.0
 31
0.0
  0
LINE
  5
1D3
330
17
100
AcDbEntity
  8
0
100
AcDbLine
 10
153.0
 20
469.0
 30
0.0
 11
201.0
 21
467.0
 31
0.0
  0
LINE
  5
1D4
330
17
100
AcDbEntity
  8
0
100
AcDbLine
 10
471.0
 20
649.0
 30
0.0
 11
533.0
 21
602.0
 31
0.0
  0
LINE
  5
1D5
330
17
100
AcDbEntity
  8
0
100
AcDbLine
 10
1004.0
 20
50.0
 30
0.0
 11
1075.0
 21
9.0
 31
0.0
  0
LINE
  5
1D6
330
17
100
AcDbEntity
  8
0
100
AcDbLine
 10
731.0
 20
1492.0
 30
0.0
 11
732.0
 21
1389.0
 31
0.0
  0
LINE
  5
1D7
330
17
100
AcDbEntity
  8
0
100
AcDbLine
 10
433.0
 20
57.0
 30
0.0
 11
448.0
 21
157.0
 31
0.0
  0
LINE
  5
1D8
330
17
100
AcDbEntity
  8
0
100
AcDbLine
 10
516.0
 20
937.0
 30
0.0
 11
519.0
 21
1003.0
 31
0.0
  0
LINE
  5
1D9
330
17
100
AcDbEntity
  8
0
100
AcDbLine
 10
534.0
 20
934.0
 30
0.0
 11
540.0
 21
1033.0
 31
0.0
  0
LINE
  5
1DA
330
17
100
AcDbEntity
  8
0
100
AcDbLine
 10
738.0
 20
51.0
 30
0.0
 11
806.0
 21
47.0
 31
0.0
  0
LINE
  5
1DB
330
17
100
AcDbEntity
  8
0
100
AcDbLine
 10
1008.0
 20
959.0
 30
0.0
 11
1014.0
 21
1065.0
 31
0.0
  0
LINE
  5
1DC
330
17
100
AcDbEntity
  8
0
100
AcDbLine
 10
748.0
 20
32.0
 30
0.0
 11
819.0
 21
30.0
 31
0.0
  0
LINE
  5
1DD
330
17
100
AcDbEntity
  8
0
100
AcDbLine
 10
440.0
 20
555.0
 30
0.0
 11
519.0
 21
561.0
 31
0.0
  0
LINE
  5
1DE
330
17
100
AcDbEntity
  8
0
100
AcDbLine
 10
752.0
 20
1742.0
 30
0.0
 11
754.0
 21
1692.0
 31
0.0
  0
LINE
  5
1DF
330
17
100
AcDbEntity
  8
0
100
AcDbLine
 10
978.0
 20
101.0
 30
0.0
 11
993.0
 21
55.0
 31
0.0
  0
LINE
  5
1E0
330
17
100
AcDbEntity
  8
0
100
AcDbLine
 10
899.0
 20
844.0
 30
0.0
 11
977.0
 21
835.0
 31
0.0
  0
LINE
  5
1E1
330
17
100
AcDbEntity
  8
0
100
AcDbLine
 10
1267.0
 20
1357.0
 30
0.0
 11
1325.0
 21
1355.0
 31
0.0
  0
LINE
  5
1E2
330
17
100
AcDbEntity
  8
0
100
AcDbLine
 10
748.0
 20
1516.0
 30
0.0
 11
758.0
 21
1581.0
 31
0.0
  0
LINE
  5
1E3
330
17
100
AcDbEntity
  8
0
100
AcDbLine
 10
466.0
 20
213.0
 30
0.0
 11
472.0
 21
264.0
 31
0.0
  0
LINE
  5
1E4
330
17
100
AcDbEntity
  8
0
100
AcDbLine
 10
1192.0
 20
1182.0
 30
0.0
 11
1261.0
 21
1179.0
 31
0.0
  0
LINE
  5
1E5
330
17
100
AcDbEntity
  8
0
100
AcDbLine
 10
1298.0
 20
1203.0
 30
0.0
 11
1303.0
 21
1264.0
 31
0.0
  0
LINE
  5
1E6
330
17
100
AcDbEntity
  8
0
100
AcDbLine
 10
185.0
 20
460.0
 30
0.0
 11
248.0
 21
481.0
 31
0.0
  0
LINE
  5
1E7
330
17
100
AcDbEntity
  8
0
100
AcDbLine
 10
489.0
 20
658.0
 30
0.0
 11
495.0
 21
708.0
 31
0.0
  0
LINE
  5
1E8
330
17
100
AcDbEntity
  8
0
100
AcDbLine
 10
261.0
 20
818.0
 30
0.0
 11
265.0
 21
887.0
 31
0.0
  0
LINE
  5
1E9
330
17
100
AcDbEntity
  8
0
100
AcDbLine
 10
477.0
 20
652.0
 30
0.0
 11
527.0
 21
615.0
 31
0.0
  0
LINE
  5
1EA
330
17
100
AcDbEntity
  8
0
100
AcDbLine
 10
443.0
 20
55.0
 30
0.0
 11
468.0
 21
124.0
 31
0.0
  0
LINE
  5
1EB
330
17
100
AcDbEntity
  8
0
100
AcDbLine
 10
167.0
 20
469.0
 30
0.0
 11
241.0
 21
444.0
 31
0.0
  0
LINE
  5
1EC
330
17
100
AcDbEntity
  8
0
100
AcDbLine
 10
606.0
 20
641.0
 30
0.0
 11
611.0
 21
596.0
 31
0.0
  0
LINE
  5
1ED
330
17
100
AcDbEntity
  8
0
100
AcDbLine
 10
914.0
 20
1285.0
 30
0.0
 11
932.0
 21
1232.0
 31
0.0
  0
LINE
  5
1EE
330
17
100
AcDbEntity
  8
0
100
AcDbLine
 10
898.0
 20
1373.0
 30
0.0
 11
916.0
 21
1455.0
 31
0.0
  0
LINE
  5
1EF
330
17
100
AcDbEntity
  8
0
100
AcDbLine
 10
694.0
 20
23.0
 30
0.0
 11
708.0
 21
64.0
 31
0.0
  0
LINE
  5
1F0
330
17
100
AcDbEntity
  8
0
100
AcDbLine
 10
1008.0
 20
230.0
 30
0.0
 11
1011.0
 21
299.0
 31
0.0
  0
LINE
  5
1F1
330
17
100
AcDbEntity
  8
0
100
AcDbLine
 10
1237.0
 20
127.0
 30
0.0
 11
1250.0
 21
58.0
 31
0.0
  0
LINE
  5
1F2
330
17
100
AcDbEntity
  8
0
100
AcDbLine
 10
919.0
 20
1736.0
 30
0.0
 11
927.0
 21
1695.0
 31
0.0
  0
LINE
  5
1F3
330
17
100
AcDbEntity
  8
0
100
AcDbLine
 10
1155.0
 20
1167.0
 30
0.0
 11
1156.0
 21
1210.0
 31
0.0
  0
LINE
  5
1F4
330
17
100
AcDbEntity
  8
0
100
AcDbLine
 10
1021.0
 20
25.0
 30
0.0
 11
1065.0
 21
24.0
 31
0.0
  0
LINE
  5
1F5
330
17
100
AcDbEntity
  8
0
100
AcDbLine
 10
1013.0
 20
1087.0
 30
0.0
 11
1153.0
 21
1076.0
 31
0.0
  0
LINE
  5
1F6
330
17
100
AcDbEntity
  8
0
100
AcDbLine
 10
1123.0
 20
422.0
 30
0.0
 11
1164.0
 21
425.0
 31
0.0
  0
LINE
  5
1F7
330
17
100
AcDbEntity
  8
0
100
AcDbLine
 10
1022.0
 20
1228.0
 30
0.0
 11
1040.0
 21
1188.0
 31
0.0
  0
LINE
  5
1F8
330
17
100
AcDbEntity
  8
0
100
AcDbLine
 10
565.0
 20
1143.0
 30
0.0
 11
571.0
 21
1209.0
 31
0.0
  0
LINE
  5
1F9
330
17
100
AcDbEntity
  8
0
100
AcDbLine
 10
736.0
 20
1551.0
 30
0.0
 11
740.0
 21
1489.0
 31
0.0
  0
LINE
  5
1FA
330
17
100
AcDbEntity
  8
0
100
AcDbLine
 10
1012.0
 20
230.0
 30
0.0
 11
1016.0
 21
402.0
 31
0.0
  0
LINE
  5
1FB
330
17
100
AcDbEntity
  8
0
100
AcDbLine
 10
505.0
 20
293.0
 30
0.0
 11
533.0
 21
356.0
 31
0.0
  0
LINE
  5
1FC
330
17
100
AcDbEntity
  8
0
100
AcDbLine
 10
752.0
 20
1339.0
 30
0.0
 11
753.0
 21
1379.0
 31
0.0
  0
LINE
  5
1FD
330
17
100
AcDbEntity
  8
0
100
AcDbLine
 10
731.0
 20
856.0
 30
0.0
 11
772.0
 21
857.0
 31
0.0
  0
LINE
  5
1FE
330
17
100
AcDbEntity
  8
0
100
AcDbLine
 10
911.0
 20
104.0
 30
0.0
 11
958.0
 21
93.0
 31
0.0
  0
LINE
  5
1FF
330
17
100
AcDbEntity
  8
0
100
AcDbLine
 10
751.0
 20
35.0
 30
0.0
 11
808.0
 21
35.0
 31
0.0
  0
LINE
  5
200
330
17
100
AcDbEntity
  8
0
100
AcDbLine
 10
539.0
 20
26.0
 30
0.0
 11
638.0
 21
31.0
 31
0.0
  0
LINE
  5
201
330
17
100
AcDbEntity
  8
0
100
AcDbLine
 10
567.0
 20
1154.0
 30
0.0
 11
610.0
 21
1231.0
 31
0.0
  0
LINE
  5
202
330
17
100
AcDbEntity
  8
0
100
AcDbLine
 10
1133.0
 20
1158.0
 30
0.0
 11
1163.0
 21
1201.0
 31
0.0
  0
LINE
  5
203
330
17
100
AcDbEntity
  8
0
100
AcDbLine
 10
468.0
 20
207.0
 30
0.0
 11
479.0
 21
266.0
 31
0.0
  0
LINE
  5
204
330
17
100
AcDbEntity
  8
0
100
AcDbLine
 10
751.0
 20
1437.0
 30
0.0
 11
755.0
 21
1487.0
 31
0.0
  0
LINE
  5
205
330
17
100
AcDbEntity
  8
0
100
AcDbLine
 10
782.0
 20
1759.0
 30
0.0
 11
784.0
 21
1715.0
 31
0.0
  0
LINE
  5
206
330
17
100
AcDbEntity
  8
0
100
AcDbLine
 10
1153.0
 20
522.0
 30
0.0
 11
1154.0
 21
573.0
 31
0.0
  0
LINE
  5
207
330
17
100
AcDbEntity
  8
0
100
AcDbLine
 10
526.0
 20
1296.0
 30
0.0
 11
575.0
 21
1301.0
 31
0.0
  0
LINE
  5
208
330
17
100
AcDbEntity
  8
0
100
AcDbLine
 10
1151.0
 20
1169.0
 30
0.0
 11
1152.0
 21
1212.0
 31
0.0
  0
LINE
  5
209
330
17
100
AcDbEntity
  8
0
100
AcDbLine
 10
903.0
 20
119.0
 30
0.0
 11
932.0
 21
22.0
 31
0.0
  0
LINE
  5
20A
330
17
100
AcDbEntity
  8
0
100
AcDbLine
 10
747.0
 20
1495.0
 30
0.0
 11
755.0
 21
1540.0
 31
0.0
  0
LINE
  5
20B
330
17
100
AcDbEntity
  8
0
100
AcDbLine
 10
1052.0
 20
1151.0
 30
0.0
 11
1057.0
 21
1198.0
 31
0.0
  0
LINE
  5
20C
330
17
100
AcDbEntity
  8
0
100
AcDbLine
 10
789.0
 20
1524.0
 30
0.0
 11
806.0
 21
1482.0
 31
0.0
  0
LINE
  5
20D
330
17
100
AcDbEntity
  8
0
100
AcDbLine
 10
729.0
 20
1645.0
 30
0.0
 11
764.0
 21
1747.0
 31
0.0
  0
LINE
  5
20E
330
17
100
AcDbEntity
  8
0
100
AcDbLine
 10
585.0
 20
636.0
 30
0.0
 11
641.0
 21
626.0
 31
0.0
  0
LINE
  5
20F
330
17
100
AcDbEntity
  8
0
100
AcDbLine
 10
1235.0
 20
217.0
 30
0.0
 11
1237.0
 21
177.0
 31
0.0
  0
LINE
  5
210
330
17
100
AcDbEntity
  8
0
100
AcDbLine
 10
555.0
 20
1080.0
 30
0.0
 11
561.0
 21
1157.0
 31
0.0
  0
LINE
  5
211
330
17
100
AcDbEntity
  8
0
100
AcDbLine
 10
1299.0
 20
1179.0
 30
0.0
 11
1308.0
 21
1263.0
 31
0.0
  0
LINE
  5
212
330
17
100
AcDbEntity
  8
0
100
AcDbLine
 10
976.0
 20
513.0
 30
0.0
 11
1036.0
 21
508.0
 31
0.0
  0
LINE
  5
213
330
17
100
AcDbEntity
  8
0
100
AcDbLine
 10
415.0
 20
138.0
 30
0.0
 11
492.0
 21
175.0
 31
0.0
  0
LINE
  5
214
330
17
100
AcDbEntity
  8
0
100
AcDbLine
 10
542.0
 20
1389.0
 30
0.0
 11
583.0
 21
1387.0
 31
0.0
  0
LINE
  5
215
330
17
100
AcDbEntity
  8
0
100
AcDbLine
 10
918.0
 20
1736.0
 30
0.0
 11
929.0
 21
1675.0
 31
0.0
  0
LINE
  5
216
330
17
100
AcDbEntity
  8
0
100
AcDbLine
 10
601.0
 20
1269.0
 30
0.0
 11
601.0
 21
1226.0
 31
0.0
  0
LINE
  5
217
330
17
100
AcDbEntity
  8
0
100
AcDbLine
 10
579.0
 20
1392.0
 30
0.0
 11
653.0
 21
1386.0
 31
0.0
  0
LINE
  5
218
330
17
100
AcDbEntity
  8
0
100
AcDbLine
 10
1233.0
 20
95.0
 30
0.0
 11
1248.0
 21
38.0
 31
0.0
  0
LINE
  5
219
330
17
100
AcDbEntity
  8
0
100
AcDbLine
 10
459.0
 20
103.0
 30
0.0
 11
478.0
 21
206.0
 31
0.0
  0
LINE
  5
21A
330
17
100
AcDbEntity
  8
0
100
AcDbLine
 10
536.0
 20
933.0
 30
0.0
 11
544.0
 21
1042.0
 31
0.0
  0
LINE
  5
21B
330
17
100
AcDbEntity
  8
0
100
AcDbLine
 10
248.0
 20
560.0
 30
0.0
 11
250.0
 21
600.0
 31
0.0
  0
LINE
  5
21C
330
17
100
AcDbEntity
  8
0
100
AcDbLine
 10
597.0
 20
1265.0
 30
0.0
 11
615.0
 21
1208.0
 31
0.0
  0
LINE
  5
21D
330
17
100
AcDbEntity
  8
0
100
AcDbLine
 10
445.0
 20
127.0
 30
0.0
 11
513.0
 21
230.0
 31
0.0
  0
LINE
  5
21E
330
17
100
AcDbEntity
  8
0
100
AcDbLine
 10
528.0
 20
1008.0
 30
0.0
 11
532.0
 21
1087.0
 31
0.0
  0
LINE
  5
21F
330
17
100
AcDbEntity
  8
0
100
AcDbLine
 10
522.0
 20
1034.0
 30
0.0
 11
524.0
 21
1083.0
 31
0.0
  0
LINE
  5
220
330
17
100
AcDbEntity
  8
0
100
AcDbLine
 10
445.0
 20
844.0
 30
0.0
 11
546.0
 21
859.0
 31
0.0
  0
LINE
  5
221
330
17
100
AcDbEntity
  8
0
100
AcDbLine
 10
966.0
 20
20.0
 30
0.0
 11
1022.0
 21
18.0
 31
0.0
  0
LINE
  5
222
330
17
100
AcDbEntity
  8
0
100
AcDbLine
 10
1235.0
 20
127.0
 30
0.0
 11
1250.0
 21
74.0
 31
0.0
  0
LINE
  5
223
330
17
100
AcDbEntity
  8
0
100
AcDbLine
 10
450.0
 20
368.0
 30
0.0
 11
516.0
 21
335.0
 31
0.0
  0
LINE
  5
224
330
17
100
AcDbEntity
  8
0
100
AcDbLine
 10
725.0
 20
776.0
 30
0.0
 11
733.0
 21
858.0
 31
0.0
  0
LINE
  5
225
330
17
100
AcDbEntity
  8
0
100
AcDbLine
 10
764.0
 20
1745.0
 30
0.0
 11
924.0
 21
1735.0
 31
0.0
  0
LINE
  5
226
330
17
100
AcDbEntity
  8
0
100
AcDbLine
 10
749.0
 20
1494.0
 30
0.0
 11
751.0
 21
1580.0
 31
0.0
  0
LINE
  5
227
330
17
100
AcDbEntity
  8
0
100
AcDbLine
 10
916.0
 20
1291.0
 30
0.0
 11
929.0
 21
1236.0
 31
0.0
  0
LINE
  5
228
330
17
100
AcDbEntity
  8
0
100
AcDbLine
 10
536.0
 20
1385.0
 30
0.0
 11
595.0
 21
1385.0
 31
0.0
  0
LINE
  5
229
330
17
100
AcDbEntity
  8
0
100
AcDbLine
 10
416.0
 20
143.0
 30
0.0
 11
493.0
 21
179.0
 31
0.0
  0
LINE
  5
22A
330
17
100
AcDbEntity
  8
0
100
AcDbLine
 10
554.0
 20
1383.0
 30
0.0
 11
612.0
 21
1382.0
 31
0.0
  0
LINE
  5
22B
330
17
100
AcDbEntity
  8
0
100
AcDbLine
 10
992.0
 20
888.0
 30
0.0
 11
1008.0
 21
937.0
 31
0.0
  0
LINE
  5
22C
330
17
100
AcDbEntity
  8
0
100
AcDbLine
 10
143.0
 20
298.0
 30
0.0
 11
148.0
 21
373.0
 31
0.0
  0
LINE
  5
22D
330
17
100
AcDbEntity
  8
0
100
AcDbLine
 10
467.0
 20
560.0
 30
0.0
 11
509.0
 21
538.0
 31
0.0
  0
LINE
  5
22E
330
17
100
AcDbEntity
  8
0
100
AcDbLine
 10
900.0
 20
843.0
 30
0.0
 11
974.0
 21
834.0
 31
0.0
  0
LINE
  5
22F
330
17
100
AcDbEntity
  8
0
100
AcDbLine
 10
1220.0
 20
1374.0
 30
0.0
 11
1277.0
 21
1373.0
 31
0.0
  0
LINE
  5
230
330
17
100
AcDbEntity
  8
0
100
AcDbLine
 10
481.0
 20
650.0
 30
0.0
 11
484.0
 21
708.0
 31
0.0
  0
LINE
  5
231
330
17
100
AcDbEntity
  8
0
100
AcDbLine
 10
261.0
 20
819.0
 30
0.0
 11
263.0
 21
887.0
 31
0.0
  0
LINE
  5
232
330
17
100
AcDbEntity
  8
0
100
AcDbLine
 10
1154.0
 20
1071.0
 30
0.0
 11
1155.0
 21
1129.0
 31
0.0
  0
LINE
  5
233
330
17
100
AcDbEntity
  8
0
100
AcDbLine
 10
464.0
 20
216.0
 30
0.0
 11
515.0
 21
243.0
 31
0.0
  0
LINE
  5
234
330
17
100
AcDbEntity
  8
0
100
AcDbLine
 10
783.0
 20
1392.0
 30
0.0
 11
785.0
 21
1338.0
 31
0.0
  0
LINE
  5
235
330
17
100
AcDbEntity
  8
0
100
AcDbLine
 10
1158.0
 20
1125.0
 30
0.0
 11
1158.0
 21
1072.0
 31
0.0
  0
LINE
  5
236
330
17
100
AcDbEntity
  8
0
100
AcDbLine
 10
159.0
 20
636.0
 30
0.0
 11
162.0
 21
687.0
 31
0.0
  0
LINE
  5
237
330
17
100
AcDbEntity
  8
0
100
AcDbLine
 10
150.0
 20
434.0
 30
0.0
 11
241.0
 21
470.0
 31
0.0
  0
LINE
  5
238
330
17
100
AcDbEntity
  8
0
100
AcDbLine
 10
433.0
 20
365.0
 30
0.0
 11
481.0
 21
344.0
 31
0.0
  0
LINE
  5
239
330
17
100
AcDbEntity
  8
0
100
AcDbLine
 10
1010.0
 20
52.0
 30
0.0
 11
1015.0
 21
96.0
 31
0.0
  0
LINE
  5
23A
330
17
100
AcDbEntity
  8
0
100
AcDbLine
 10
487.0
 20
649.0
 30
0.0
 11
499.0
 21
790.0
 31
0.0
  0
LINE
  5
23B
330
17
100
AcDbEntity
  8
0
100
AcDbLine
 10
597.0
 20
1260.0
 30
0.0
 11
622.0
 21
1212.0
 31
0.0
  0
LINE
  5
23C
330
17
100
AcDbEntity
  8
0
100
AcDbLine
 10
449.0
 20
554.0
 30
0.0
 11
531.0
 21
559.0
 31
0.0
  0
LINE
  5
23D
330
17
100
AcDbEntity
  8
0
100
AcDbLine
 10
1080.0
 20
1362.0
 30
0.0
 11
1138.0
 21
1369.0
 31
0.0
  0
LINE
  5
23E
330
17
100
AcDbEntity
  8
0
100
AcDbLine
 10
1010.0
 20
17.0
 30
0.0
 11
1017.0
 21
77.0
 31
0.0
  0
LINE
  5
23F
330
17
100
AcDbEntity
  8
0
100
AcDbLine
 10
626.0
 20
1343.0
 30
0.0
 11
703.0
 21
1315.0
 31
0.0
  0
LINE
  5
240
330
17
100
AcDbEntity
  8
0
100
AcDbLine
 10
821.0
 20
50.0
 30
0.0
 11
842.0
 21
128.0
 31
0.0
  0
LINE
  5
241
330
17
100
AcDbEntity
  8
0
100
AcDbLine
 10
444.0
 20
851.0
 30
0.0
 11
496.0
 21
847.0
 31
0.0
  0
LINE
  5
242
330
17
100
AcDbEntity
  8
0
100
AcDbLine
 10
131.0
 20
136.0
 30
0.0
 11
137.0
 21
184.0
 31
0.0
  0
LINE
  5
243
330
17
100
AcDbEntity
  8
0
100
AcDbLine
 10
440.0
 20
62.0
 30
0.0
 11
463.0
 21
158.0
 31
0.0
  0
LINE
  5
244
330
17
100
AcDbEntity
  8
0
100
AcDbLine
 10
1223.0
 20
1371.0
 30
0.0
 11
1276.0
 21
1376.0
 31
0.0
  0
LINE
  5
245
330
17
100
AcDbEntity
  8
0
100
AcDbLine
 10
438.0
 20
83.0
 30
0.0
 11
502.0
 21
222.0
 31
0.0
  0
LINE
  5
246
330
17
100
AcDbEntity
  8
0
100
AcDbLine
 10
573.0
 20
1160.0
 30
0.0
 11
619.0
 21
1231.0
 31
0.0
  0
LINE
  5
247
330
17
100
AcDbEntity
  8
0
100
AcDbLine
 10
960.0
 20
521.0
 30
0.0
 11
1000.0
 21
512.0
 31
0.0
  0
LINE
  5
248
330
17
100
AcDbEntity
  8
0
100
AcDbLine
 10
498.0
 20
32.0
 30
0.0
 11
584.0
 21
30.0
 31
0.0
  0
LINE
  5
249
330
17
100
AcDbEntity
  8
0
100
AcDbLine
 10
751.0
 20
1517.0
 30
0.0
 11
759.0
 21
1561.0
 31
0.0
  0
LINE
  5
24A
330
17
100
AcDbEntity
  8
0
100
AcDbLine
 10
979.0
 20
96.0
 30
0.0
 11
986.0
 21
49.0
 31
0.0
  0
LINE
  5
24B
330
17
100
AcDbEntity
  8
0
100
AcDbLine
 10
734.0
 20
1645.0
 30
0.0
 11
759.0
 21
1704.0
 31
0.0
  0
LINE
  5
24C
330
17
100
AcDbEntity
  8
0
100
AcDbLine
 10
615.0
 20
1397.0
 30
0.0
 11
628.0
 21
1333.0
 31
0.0
  0
LINE
  5
24D
330
17
100
AcDbEntity
  8
0
100
AcDbLine
 10
500.0
 20
261.0
 30
0.0
 11
511.0
 21
333.0
 31
0.0
  0
LINE
  5
24E
330
17
100
AcDbEntity
  8
0
100
AcDbLine
 10
953.0
 20
101.0
 30
0.0
 11
1014.0
 21
101.0
 31
0.0
  0
LINE
  5
24F
330
17
100
AcDbEntity
  8
0
100
AcDbLine
 10
162.0
 20
557.0
 30
0.0
 11
165.0
 21
609.0
 31
0.0
  0
LINE
  5
250
330
17
100
AcDbEntity
  8
0
100
AcDbLine
 10
591.0
 20
622.0
 30
0.0
 11
636.0
 21
614.0
 31
0.0
  0
LINE
  5
251
330
17
100
AcDbEntity
  8
0
100
AcDbLine
 10
1128.0
 20
702.0
 30
0.0
 11
1145.0
 21
659.0
 31
0.0
  0
LINE
  5
252
330
17
100
AcDbEntity
  8
0
100
AcDbLine
 10
786.0
 20
1392.0
 30
0.0
 11
787.0
 21
1340.0
 31
0.0
  0
LINE
  5
253
330
17
100
AcDbEntity
  8
0
100
AcDbLine
 10
908.0
 20
1400.0
 30
0.0
 11
975.0
 21
1347.0
 31
0.0
  0
LINE
  5
254
330
17
100
AcDbEntity
  8
0
100
AcDbLine
 10
526.0
 20
1291.0
 30
0.0
 11
570.0
 21
1278.0
 31
0.0
  0
LINE
  5
255
330
17
100
AcDbEntity
  8
0
100
AcDbLine
 10
449.0
 20
553.0
 30
0.0
 11
499.0
 21
549.0
 31
0.0
  0
LINE
  5
256
330
17
100
AcDbEntity
  8
0
100
AcDbLine
 10
605.0
 20
675.0
 30
0.0
 11
649.0
 21
628.0
 31
0.0
  0
LINE
  5
257
330
17
100
AcDbEntity
  8
0
100
AcDbLine
 10
787.0
 20
1540.0
 30
0.0
 11
811.0
 21
1479.0
 31
0.0
  0
LINE
  5
258
330
17
100
AcDbEntity
  8
0
100
AcDbLine
 10
744.0
 20
1317.0
 30
0.0
 11
753.0
 21
1435.0
 31
0.0
  0
LINE
  5
259
330
17
100
AcDbEntity
  8
0
100
AcDbLine
 10
728.0
 20
1444.0
 30
0.0
 11
758.0
 21
1579.0
 31
0.0
  0
LINE
  5
25A
330
17
100
AcDbEntity
  8
0
100
AcDbLine
 10
439.0
 20
51.0
 30
0.0
 11
467.0
 21
115.0
 31
0.0
  0
LINE
  5
25B
330
17
100
AcDbEntity
  8
0
100
AcDbLine
 10
473.0
 20
650.0
 30
0.0
 11
531.0
 21
608.0
 31
0.0
  0
LINE
  5
25C
330
17
100
AcDbEntity
  8
0
100
AcDbLine
 10
503.0
 20
28.0
 30
0.0
 11
579.0
 21
29.0
 31
0.0
  0
LINE
  5
25D
330
17
100
AcDbEntity
  8
0
100
AcDbLine
 10
955.0
 20
509.0
 30
0.0
 11
1008.0
 21
507.0
 31
0.0
  0
LINE
  5
25E
330
17
100
AcDbEntity
  8
0
100
AcDbLine
 10
606.0
 20
1395.0
 30
0.0
 11
747.0
 21
1385.0
 31
0.0
  0
LINE
  5
25F
330
17
100
AcDbEntity
  8
0
100
AcDbLine
 10
469.0
 20
206.0
 30
0.0
 11
530.0
 21
191.0
 31
0.0
  0
LINE
  5
260
330
17
100
AcDbEntity
  8
0
100
AcDbLine
 10
521.0
 20
988.0
 30
0.0
 11
544.0
 21
924.0
 31
0.0
  0
LINE
  5
261
330
17
100
AcDbEntity
  8
0
100
AcDbLine
 10
525.0
 20
1084.0
 30
0.0
 11
542.0
 21
1042.0
 31
0.0
  0
LINE
  5
262
330
17
100
AcDbEntity
  8
0
100
AcDbLine
 10
627.0
 20
1372.0
 30
0.0
 11
708.0
 21
1367.0
 31
0.0
  0
LINE
  5
263
330
17
100
AcDbEntity
  8
0
100
AcDbLine
 10
598.0
 20
616.0
 30
0.0
 11
599.0
 21
667.0
 31
0.0
  0
LINE
  5
264
330
17
100
AcDbEntity
  8
0
100
AcDbLine
 10
1013.0
 20
434.0
 30
0.0
 11
1141.0
 21
430.0
 31
0.0
  0
LINE
  5
265
330
17
100
AcDbEntity
  8
0
100
AcDbLine
 10
1039.0
 20
1151.0
 30
0.0
 11
1061.0
 21
1224.0
 31
0.0
  0
LINE
  5
266
330
17
100
AcDbEntity
  8
0
100
AcDbLine
 10
569.0
 20
1172.0
 30
0.0
 11
620.0
 21
1226.0
 31
0.0
  0
LINE
  5
267
330
17
100
AcDbEntity
  8
0
100
AcDbLine
 10
585.0
 20
620.0
 30
0.0
 11
642.0
 21
609.0
 31
0.0
  0
LINE
  5
268
330
17
100
AcDbEntity
  8
0
100
AcDbLine
 10
587.0
 20
637.0
 30
0.0
 11
646.0
 21
642.0
 31
0.0
  0
LINE
  5
269
330
17
100
AcDbEntity
  8
0
100
AcDbLine
 10
129.0
 20
139.0
 30
0.0
 11
135.0
 21
184.0
 31
0.0
  0
LINE
  5
26A
330
17
100
AcDbEntity
  8
0
100
AcDbLine
 10
464.0
 20
405.0
 30
0.0
 11
478.0
 21
456.0
 31
0.0
  0
LINE
  5
26B
330
17
100
AcDbEntity
  8
0
100
AcDbLine
 10
493.0
 20
197.0
 30
0.0
 11
517.0
 21
277.0
 31
0.0
  0
LINE
  5
26C
330
17
100
AcDbEntity
  8
0
100
AcDbLine
 10
174.0
 20
794.0
 30
0.0
 11
239.0
 21
819.0
 31
0.0
  0
LINE
  5
26D
330
17
100
AcDbEntity
  8
0
100
AcDbLine
 10
1237.0
 20
607.0
 30
0.0
 11
1242.0
 21
702.0
 31
0.0
  0
LINE
  5
26E
330
17
100
AcDbEntity
  8
0
100
AcDbLine
 10
512.0
 20
224.0
 30
0.0
 11
525.0
 21
281.0
 31
0.0
  0
LINE
  5
26F
330
17
100
AcDbEntity
  8
0
100
AcDbLine
 10
224.0
 20
805.0
 30
0.0
 11
264.0
 21
849.0
 31
0.0
  0
LINE
  5
270
330
17
100
AcDbEntity
  8
0
100
AcDbLine
 10
1049.0
 20
430.0
 30
0.0
 11
1128.0
 21
430.0
 31
0.0
  0
LINE
  5
271
330
17
100
AcDbEntity
  8
0
100
AcDbLine
 10
1018.0
 20
96.0
 30
0.0
 11
1024.0
 21
52.0
 31
0.0
  0
LINE
  5
272
330
17
100
AcDbEntity
  8
0
100
AcDbLine
 10
440.0
 20
358.0
 30
0.0
 11
505.0
 21
351.0
 31
0.0
  0
LINE
  5
273
330
17
100
AcDbEntity
  8
0
100
AcDbLine
 10
1132.0
 20
1160.0
 30
0.0
 11
1167.0
 21
1104.0
 31
0.0
  0
LINE
  5
274
330
17
100
AcDbEntity
  8
0
100
AcDbLine
 10
965.0
 20
19.0
 30
0.0
 11
1051.0
 21
14.0
 31
0.0
  0
LINE
  5
275
330
17
100
AcDbEntity
  8
0
100
AcDbLine
 10
726.0
 20
1392.0
 30
0.0
 11
740.0
 21
1446.0
 31
0.0
  0
LINE
  5
276
330
17
100
AcDbEntity
  8
0
100
AcDbLine
 10
581.0
 20
606.0
 30
0.0
 11
626.0
 21
623.0
 31
0.0
  0
LINE
  5
277
330
17
100
AcDbEntity
  8
0
100
AcDbLine
 10
591.0
 20
617.0
 30
0.0
 11
602.0
 21
667.0
 31
0.0
  0
LINE
  5
278
330
17
100
AcDbEntity
  8
0
100
AcDbLine
 10
541.0
 20
893.0
 30
0.0
 11
604.0
 21
892.0
 31
0.0
  0
LINE
  5
279
330
17
100
AcDbEntity
  8
0
100
AcDbLine
 10
695.0
 20
23.0
 30
0.0
 11
709.0
 21
63.0
 31
0.0
  0
LINE
  5
27A
330
17
100
AcDbEntity
  8
0
100
AcDbLine
 10
1233.0
 20
123.0
 30
0.0
 11
1250.0
 21
33.0
 31
0.0
  0
LINE
  5
27B
330
17
100
AcDbEntity
  8
0
100
AcDbLine
 10
523.0
 20
1046.0
 30
0.0
 11
542.0
 21
1003.0
 31
0.0
  0
LINE
  5
27C
330
17
100
AcDbEntity
  8
0
100
AcDbLine
 10
416.0
 20
144.0
 30
0.0
 11
482.0
 21
134.0
 31
0.0
  0
LINE
  5
27D
330
17
100
AcDbEntity
  8
0
100
AcDbLine
 10
621.0
 20
1374.0
 30
0.0
 11
706.0
 21
1372.0
 31
0.0
  0
LINE
  5
27E
330
17
100
AcDbEntity
  8
0
100
AcDbLine
 10
457.0
 20
654.0
 30
0.0
 11
497.0
 21
645.0
 31
0.0
  0
LINE
  5
27F
330
17
100
AcDbEntity
  8
0
100
AcDbLine
 10
735.0
 20
1665.0
 30
0.0
 11
760.0
 21
1726.0
 31
0.0
  0
LINE
  5
280
330
17
100
AcDbEntity
  8
0
100
AcDbLine
 10
1006.0
 20
91.0
 30
0.0
 11
1025.0
 21
15.0
 31
0.0
  0
LINE
  5
281
330
17
100
AcDbEntity
  8
0
100
AcDbLine
 10
494.0
 20
262.0
 30
0.0
 11
522.0
 21
323.0
 31
0.0
  0
LINE
  5
282
330
17
100
AcDbEntity
  8
0
100
AcDbLine
 10
157.0
 20
454.0
 30
0.0
 11
249.0
 21
487.0
 31
0.0
  0
LINE
  5
283
330
17
100
AcDbEntity
  8
0
100
AcDbLine
 10
441.0
 20
561.0
 30
0.0
 11
481.0
 21
534.0
 31
0.0
  0
LINE
  5
284
330
17
100
AcDbEntity
  8
0
100
AcDbLine
 10
431.0
 20
63.0
 30
0.0
 11
514.0
 21
238.0
 31
0.0
  0
LINE
  5
285
330
17
100
AcDbEntity
  8
0
100
AcDbLine
 10
460.0
 20
549.0
 30
0.0
 11
530.0
 21
554.0
 31
0.0
  0
LINE
  5
286
330
17
100
AcDbEntity
  8
0
100
AcDbLine
 10
194.0
 20
458.0
 30
0.0
 11
239.0
 21
464.0
 31
0.0
  0
LINE
  5
287
330
17
100
AcDbEntity
  8
0
100
AcDbLine
 10
1220.0
 20
1180.0
 30
0.0
 11
1313.0
 21
1176.0
 31
0.0
  0
LINE
  5
288
330
17
100
AcDbEntity
  8
0
100
AcDbLine
 10
518.0
 20
555.0
 30
0.0
 11
531.0
 21
609.0
 31
0.0
  0
LINE
  5
289
330
17
100
AcDbEntity
  8
0
100
AcDbLine
 10
171.0
 20
444.0
 30
0.0
 11
219.0
 21
453.0
 31
0.0
  0
LINE
  5
28A
330
17
100
AcDbEntity
  8
0
100
AcDbLine
 10
1150.0
 20
606.0
 30
0.0
 11
1190.0
 21
613.0
 31
0.0
  0
LINE
  5
28B
330
17
100
AcDbEntity
  8
0
100
AcDbLine
 10
955.0
 20
542.0
 30
0.0
 11
969.0
 21
594.0
 31
0.0
  0
LINE
  5
28C
330
17
100
AcDbEntity
  8
0
100
AcDbLine
 10
1030.0
 20
1105.0
 30
0.0
 11
1081.0
 21
1129.0
 31
0.0
  0
LINE
  5
28D
330
17
100
AcDbEntity
  8
0
100
AcDbLine
 10
976.0
 20
35.0
 30
0.0
 11
983.0
 21
102.0
 31
0.0
  0
LINE
  5
28E
330
17
100
AcDbEntity
  8
0
100
AcDbLine
 10
910.0
 20
1499.0
 30
0.0
 11
913.0
 21
1434.0
 31
0.0
  0
LINE
  5
28F
330
17
100
AcDbEntity
  8
0
100
AcDbLine
 10
991.0
 20
52.0
 30
0.0
 11
997.0
 21
97.0
 31
0.0
  0
LINE
  5
290
330
17
100
AcDbEntity
  8
0
100
AcDbLine
 10
525.0
 20
1283.0
 30
0.0
 11
603.0
 21
1274.0
 31
0.0
  0
LINE
  5
291
330
17
100
AcDbEntity
  8
0
100
AcDbLine
 10
732.0
 20
535.0
 30
0.0
 11
779.0
 21
485.0
 31
0.0
  0
LINE
  5
292
330
17
100
AcDbEntity
  8
0
100
AcDbLine
 10
592.0
 20
1392.0
 30
0.0
 11
647.0
 21
1388.0
 31
0.0
  0
LINE
  5
293
330
17
100
AcDbEntity
  8
0
100
AcDbLine
 10
474.0
 20
346.0
 30
0.0
 11
481.0
 21
536.0
 31
0.0
  0
LINE
  5
294
330
17
100
AcDbEntity
  8
0
100
AcDbLine
 10
1020.0
 20
1228.0
 30
0.0
 11
1104.0
 21
1219.0
 31
0.0
  0
LINE
  5
295
330
17
100
AcDbEntity
  8
0
100
AcDbLine
 10
582.0
 20
617.0
 30
0.0
 11
633.0
 21
609.0
 31
0.0
  0
LINE
  5
296
330
17
100
AcDbEntity
  8
0
100
AcDbLine
 10
1303.0
 20
1197.0
 30
0.0
 11
1312.0
 21
1264.0
 31
0.0
  0
LINE
  5
297
330
17
100
AcDbEntity
  8
0
100
AcDbLine
 10
533.0
 20
1292.0
 30
0.0
 11
577.0
 21
1297.0
 31
0.0
  0
LINE
  5
298
330
17
100
AcDbEntity
  8
0
100
AcDbLine
 10
566.0
 20
1141.0
 30
0.0
 11
571.0
 21
1196.0
 31
0.0
  0
LINE
  5
299
330
17
100
AcDbEntity
  8
0
100
AcDbLine
 10
1007.0
 20
1029.0
 30
0.0
 11
1011.0
 21
1081.0
 31
0.0
  0
LINE
  5
29A
330
17
100
AcDbEntity
  8
0
100
AcDbLine
 10
438.0
 20
557.0
 30
0.0
 11
528.0
 21
559.0
 31
0.0
  0
LINE
  5
29B
330
17
100
AcDbEntity
  8
0
100
AcDbLine
 10
569.0
 20
1210.0
 30
0.0
 11
613.0
 21
1208.0
 31
0.0
  0
LINE
  5
29C
330
17
100
AcDbEntity
  8
0
100
AcDbLine
 10
447.0
 20
848.0
 30
0.0
 11
500.0
 21
844.0
 31
0.0
  0
LINE
  5
29D
330
17
100
AcDbEntity
  8
0
100
AcDbLine
 10
792.0
 20
1376.0
 30
0.0
 11
800.0
 21
1450.0
 31
0.0
  0
LINE
  5
29E
330
17
100
AcDbEntity
  8
0
100
AcDbLine
 10
174.0
 20
811.0
 30
0.0
 11
236.0
 21
810.0
 31
0.0
  0
LINE
  5
29F
330
17
100
AcDbEntity
  8
0
100
AcDbLine
 10
634.0
 20
1396.0
 30
0.0
 11
647.0
 21
1345.0
 31
0.0
  0
LINE
  5
2A0
330
17
100
AcDbEntity
  8
0
100
AcDbLine
 10
538.0
 20
881.0
 30
0.0
 11
594.0
 21
874.0
 31
0.0
  0
LINE
  5
2A1
330
17
100
AcDbEntity
  8
0
100
AcDbLine
 10
459.0
 20
369.0
 30
0.0
 11
522.0
 21
332.0
 31
0.0
  0
LINE
  5
2A2
330
17
100
AcDbEntity
  8
0
100
AcDbLine
 10
1140.0
 20
1115.0
 30
0.0
 11
1144.0
 21
1170.0
 31
0.0
  0
LINE
  5
2A3
330
17
100
AcDbEntity
  8
0
100
AcDbLine
 10
460.0
 20
80.0
 30
0.0
 11
486.0
 21
36.0
 31
0.0
  0
LINE
  5
2A4
330
17
100
AcDbEntity
  8
0
100
AcDbLine
 10
157.0
 20
456.0
 30
0.0
 11
161.0
 21
515.0
 31
0.0
  0
LINE
  5
2A5
330
17
100
AcDbEntity
  8
0
100
AcDbLine
 10
896.0
 20
1375.0
 30
0.0
 11
964.0
 21
1374.0
 31
0.0
  0
LINE
  5
2A6
330
17
100
AcDbEntity
  8
0
100
AcDbLine
 10
530.0
 20
662.0
 30
0.0
 11
531.0
 21
579.0
 31
0.0
  0
LINE
  5
2A7
330
17
100
AcDbEntity
  8
0
100
AcDbLine
 10
627.0
 20
1371.0
 30
0.0
 11
704.0
 21
1366.0
 31
0.0
  0
LINE
  5
2A8
330
17
100
AcDbEntity
  8
0
100
AcDbLine
 10
168.0
 20
538.0
 30
0.0
 11
171.0
 21
579.0
 31
0.0
  0
LINE
  5
2A9
330
17
100
AcDbEntity
  8
0
100
AcDbLine
 10
584.0
 20
626.0
 30
0.0
 11
646.0
 21
613.0
 31
0.0
  0
LINE
  5
2AA
330
17
100
AcDbEntity
  8
0
100
AcDbLine
 10
415.0
 20
162.0
 30
0.0
 11
445.0
 21
102.0
 31
0.0
  0
LINE
  5
2AB
330
17
100
AcDbEntity
  8
0
100
AcDbLine
 10
975.0
 20
96.0
 30
0.0
 11
989.0
 21
54.0
 31
0.0
  0
LINE
  5
2AC
330
17
100
AcDbEntity
  8
0
100
AcDbLine
 10
160.0
 20
458.0
 30
0.0
 11
203.0
 21
463.0
 31
0.0
  0
LINE
  5
2AD
330
17
100
AcDbEntity
  8
0
100
AcDbLine
 10
432.0
 20
78.0
 30
0.0
 11
485.0
 21
135.0
 31
0.0
  0
LINE
  5
2AE
330
17
100
AcDbEntity
  8
0
100
AcDbLine
 10
514.0
 20
280.0
 30
0.0
 11
515.0
 21
328.0
 31
0.0
  0
LINE
  5
2AF
330
17
100
AcDbEntity
  8
0
100
AcDbLine
 10
918.0
 20
1729.0
 30
0.0
 11
929.0
 21
1677.0
 31
0.0
  0
LINE
  5
2B0
330
17
100
AcDbEntity
  8
0
100
AcDbLine
 10
485.0
 20
752.0
 30
0.0
 11
488.0
 21
792.0
 31
0.0
  0
LINE
  5
2B1
330
17
100
AcDbEntity
  8
0
100
AcDbLine
 10
557.0
 20
1081.0
 30
0.0
 11
568.0
 21
1197.0
 31
0.0
  0
LINE
  5
2B2
330
17
100
AcDbEntity
  8
0
100
AcDbLine
 10
737.0
 20
856.0
 30
0.0
 11
801.0
 21
856.0
 31
0.0
  0
LINE
  5
2B3
330
17
100
AcDbEntity
  8
0
100
AcDbLine
 10
467.0
 20
149.0
 30
0.0
 11
509.0
 21
222.0
 31
0.0
  0
LINE
  5
2B4
330
17
100
AcDbEntity
  8
0
100
AcDbLine
 10
1074.0
 20
1365.0
 30
0.0
 11
1130.0
 21
1372.0
 31
0.0
  0
LINE
  5
2B5
330
17
100
AcDbEntity
  8
0
100
AcDbLine
 10
134.0
 20
110.0
 30
0.0
 11
139.0
 21
170.0
 31
0.0
  0
LINE
  5
2B6
330
17
100
AcDbEntity
  8
0
100
AcDbLine
 10
514.0
 20
526.0
 30
0.0
 11
533.0
 21
605.0
 31
0.0
  0
LINE
  5
2B7
330
17
100
AcDbEntity
  8
0
100
AcDbLine
 10
260.0
 20
818.0
 30
0.0
 11
262.0
 21
883.0
 31
0.0
  0
LINE
  5
2B8
330
17
100
AcDbEntity
  8
0
100
AcDbLine
 10
1148.0
 20
1099.0
 30
0.0
 11
1148.0
 21
1170.0
 31
0.0
  0
LINE
  5
2B9
330
17
100
AcDbEntity
  8
0
100
AcDbLine
 10
981.0
 20
102.0
 30
0.0
 11
994.0
 21
15.0
 31
0.0
  0
LINE
  5
2BA
330
17
100
AcDbEntity
  8
0
100
AcDbLine
 10
523.0
 20
979.0
 30
0.0
 11
548.0
 21
927.0
 31
0.0
  0
LINE
  5
2BB
330
17
100
AcDbEntity
  8
0
100
AcDbLine
 10
458.0
 20
852.0
 30
0.0
 11
542.0
 21
849.0
 31
0.0
  0
LINE
  5
2BC
330
17
100
AcDbEntity
  8
0
100
AcDbLine
 10
785.0
 20
778.0
 30
0.0
 11
1002.0
 21
759.0
 31
0.0
  0
LINE
  5
2BD
330
17
100
AcDbEntity
  8
0
100
AcDbLine
 10
752.0
 20
1725.0
 30
0.0
 11
792.0
 21
1721.0
 31
0.0
  0
LINE
  5
2BE
330
17
100
AcDbEntity
  8
0
100
AcDbLine
 10
1277.0
 20
1180.0
 30
0.0
 11
1310.0
 21
1222.0
 31
0.0
  0
LINE
  5
2BF
330
17
100
AcDbEntity
  8
0
100
AcDbLine
 10
601.0
 20
1397.0
 30
0.0
 11
685.0
 21
1394.0
 31
0.0
  0
LINE
  5
2C0
330
17
100
AcDbEntity
  8
0
100
AcDbLine
 10
589.0
 20
1211.0
 30
0.0
 11
651.0
 21
1228.0
 31
0.0
  0
LINE
  5
2C1
330
17
100
AcDbEntity
  8
0
100
AcDbLine
 10
955.0
 20
539.0
 30
0.0
 11
961.0
 21
592.0
 31
0.0
  0
LINE
  5
2C2
330
17
100
AcDbEntity
  8
0
100
AcDbLine
 10
830.0
 20
68.0
 30
0.0
 11
839.0
 21
128.0
 31
0.0
  0
LINE
  5
2C3
330
17
100
AcDbEntity
  8
0
100
AcDbLine
 10
1151.0
 20
420.0
 30
0.0
 11
1227.0
 21
425.0
 31
0.0
  0
LINE
  5
2C4
330
17
100
AcDbEntity
  8
0
100
AcDbLine
 10
623.0
 20
1342.0
 30
0.0
 11
701.0
 21
1315.0
 31
0.0
  0
LINE
  5
2C5
330
17
100
AcDbEntity
  8
0
100
AcDbLine
 10
472.0
 20
203.0
 30
0.0
 11
518.0
 21
228.0
 31
0.0
  0
LINE
  5
2C6
330
17
100
AcDbEntity
  8
0
100
AcDbLine
 10
902.0
 20
1373.0
 30
0.0
 11
958.0
 21
1372.0
 31
0.0
  0
LINE
  5
2C7
330
17
100
AcDbEntity
  8
0
100
AcDbLine
 10
1298.0
 20
1173.0
 30
0.0
 11
1310.0
 21
1264.0
 31
0.0
  0
LINE
  5
2C8
330
17
100
AcDbEntity
  8
0
100
AcDbLine
 10
482.0
 20
655.0
 30
0.0
 11
487.0
 21
710.0
 31
0.0
  0
LINE
  5
2C9
330
17
100
AcDbEntity
  8
0
100
AcDbLine
 10
1131.0
 20
1074.0
 30
0.0
 11
1155.0
 21
1125.0
 31
0.0
  0
LINE
  5
2CA
330
17
100
AcDbEntity
  8
0
100
AcDbLine
 10
147.0
 20
383.0
 30
0.0
 11
159.0
 21
562.0
 31
0.0
  0
LINE
  5
2CB
330
17
100
AcDbEntity
  8
0
100
AcDbLine
 10
168.0
 20
675.0
 30
0.0
 11
175.0
 21
807.0
 31
0.0
  0
LINE
  5
2CC
330
17
100
AcDbEntity
  8
0
100
AcDbLine
 10
581.0
 20
1340.0
 30
0.0
 11
655.0
 21
1341.0
 31
0.0
  0
LINE
  5
2CD
330
17
100
AcDbEntity
  8
0
100
AcDbLine
 10
782.0
 20
1392.0
 30
0.0
 11
790.0
 21
1339.0
 31
0.0
  0
LINE
  5
2CE
330
17
100
AcDbEntity
  8
0
100
AcDbLine
 10
1016.0
 20
100.0
 30
0.0
 11
1023.0
 21
47.0
 31
0.0
  0
LINE
  5
2CF
330
17
100
AcDbEntity
  8
0
100
AcDbLine
 10
520.0
 20
565.0
 30
0.0
 11
527.0
 21
614.0
 31
0.0
  0
LINE
  5
2D0
330
17
100
AcDbEntity
  8
0
100
AcDbLine
 10
456.0
 20
364.0
 30
0.0
 11
510.0
 21
333.0
 31
0.0
  0
LINE
  5
2D1
330
17
100
AcDbEntity
  8
0
100
AcDbLine
 10
893.0
 20
1376.0
 30
0.0
 11
1068.0
 21
1373.0
 31
0.0
  0
LINE
  5
2D2
330
17
100
AcDbEntity
  8
0
100
AcDbLine
 10
482.0
 20
425.0
 30
0.0
 11
487.0
 21
553.0
 31
0.0
  0
ENDSEC
  0
SECTION
  2
OBJECTS
  0
DICTIONARY
  5
A
330
0
100
AcDbDictionary
280
0
281
1
  3
ACAD_COLOR
350
B
  3
ACAD_GROUP
350
C
  3
ACAD_LAYOUT
350
D
  3
ACAD_MATERIAL
350
E
  3
ACAD_MLEADERSTYLE
350
F
  3
ACAD_MLINESTYLE
350
10
  3
ACAD_PLOTSETTINGS
350
11
  3
ACAD_PLOTSTYLENAME
350
12
  3
ACAD_SCALELIST
350
14
  3
ACAD_TABLESTYLE
350
15
  3
ACAD_VISUALSTYLE
350
16
  3
EZDXF_META
350
2D
  0
DICTIONARY
  5
B
330
A
100
AcDbDictionary
280
0
281
1
  0
DICTIONARY
  5
C
330
A
100
AcDbDictionary
280
0
281
1
  0
DICTIONARY
  5
D
330
A
100
AcDbDictionary
280
0
281
1
  3
Model
350
1A
  3
Layout1
350
1E
  0
DICTIONARY
  5
E
330
A
100
AcDbDictionary
280
0
281
1
  3
ByBlock
350
1F
  3
ByLayer
350
20
  3
Global
350
21
  0
DICTIONARY
  5
F
330
A
100
AcDbDictionary
280
0
281
1
  3
Standard
350
2C
  0
DICTIONARY
  5
10
330
A
100
AcDbDictionary
280
0
281
1
  3
Standard
350
22
  0
DICTIONARY
  5
11
330
A
100
AcDbDictionary
280
0
281
1
  0
ACDBDICTIONARYWDFLT
  5
12
330
A
100
AcDbDictionary
280
0
281
1
  3
Normal
350
13
100
AcDbDictionaryWithDefault
340
13
  0
ACDBPLACEHOLDER
  5
13
330
12
  0
DICTIONARY
  5
14
330
A
100
AcDbDictionary
280
0
281
1
  0
DICTIONARY
  5
15
330
A
100
AcDbDictionary
280
0
281
1
  0
DICTIONARY
  5
16
330
A
100
AcDbDictionary
280
0
281
1
  0
LAYOUT
  5
1A
330
D
100
AcDbPlotSettings
  1

  4
A3
  6

 40
7.5
 41
20.0
 42
7.5
 43
20.0
 44
420.0
 45
297.0
 46
0.0
 47
0.0
 48
0.0
 49
0.0
140
0.0
141
0.0
142
1.0
143
1.0
 70
1024
 72
1
 73
0
 74
5
  7

 75
16
 76
0
 77
2
 78
300
147
1.0
148
0.0
149
0.0
100
AcDbLayout
  1
Model
 70
1
 71
0
 10
0.0
 20
0.0
 11
420.0
 21
297.0
 12
0.0
 22
0.0
 32
0.0
 14
1e+20
 24
1e+20
 34
1e+20
 15
-1e+20
 25
-1e+20
 35
-1e+20
146
0.0
 13
0.0
 23
0.0
 33
0.0
 16
1.0
 26
0.0
 36
0.0
 17
0.0
 27
1.0
 37
0.0
 76
1
330
17
  0
LAYOUT
  5
1E
330
D
100
AcDbPlotSettings
  1

  4
A3
  6

 40
7.5
 41
20.0
 42
7.5
 43
20.0
 44
420.0
 45
297.0
 46
0.0
 47
0.0
 48
0.0
 49
0.0
140
0.0
141
0.0
142
1.0
143
1.0
 70
0
 72
1
 73
0
 74
5
  7

 75
16
 76
0
 77
2
 78
300
147
1.0
148
0.0
149
0.0
100
AcDbLayout
  1
Layout1
 70
1
 71
1
 10
0.0
 20
0.0
 11
420.0
 21
297.0
 12
0.0
 22
0.0
 32
0.0
 14
1e+20
 24
1e+20
 34
1e+20
 15
-1e+20
 25
-1e+20
 35
-1e+20
146
0.0
 13
0.0
 23
0.0
 33
0.0
 16
1.0
 26
0.0
 36
0.0
 17
0.0
 27
1.0
 37
0.0
 76
1
330
1B
  0
MATERIAL
  5
1F
102
{ACAD_REACTORS
330
E
102
}
330
E
100
AcDbMaterial
  1
ByBlock
  2

 70
0
 40
1.0
 71
1
 41
1.0
 91
-1023410177
 42
1.0
 72
1
  3

 73
1
 74
1
 75
1
 44
0.5
 73
0
 45
1.0
 46
1.0
 77
1
  4

 78
1
 79
1
170
1
 48
1.0
171
1
  6

172
1
173
1
174
1
140
1.0
141
1.0
175
1
  7

176
1
177
1
178
1
143
1.0
179
1
  8

270
1
271
1
272
1
145
1.0
146
1.0
273
1
  9

274
1
275
1
276
1
 42
1.0
 72
1
  3

 73
1
 74
1
 75
1
 94
63
  0
MATERIAL
  5
20
102
{ACAD_REACTORS
330
E
102
}
330
E
100
AcDbMaterial
  1
ByLayer
  2

 70
0
 40
1.0
 71
1
 41
1.0
 91
-1023410177
 42
1.0
 72
1
  3

 73
1
 74
1
 75
1
 44
0.5
 73
0
 45
1.0
 46
1.0
 77
1
  4

 78
1
 79
1
170
1
 48
1.0
171
1
  6

172
1
173
1
174
1
140
1.0
141
1.0
175
1
  7

176
1
177
1
178
1
143
1.0
179
1
  8

270
1
271
1
272
1
145
1.0
146
1.0
273
1
  9

274
1
275
1
276
1
 42
1.0
 72
1
  3

 73
1
 74
1
 75
1
 94
63
  0
MATERIAL
  5
21
102
{ACAD_REACTORS
330
E
102
}
330
E
100
AcDbMaterial
  1
Global
  2

 70
0
 40
1.0
 71
1
 41
1.0
 91
-1023410177
 42
1.0
 72
1
  3

 73
1
 74
1
 75
1
 44
0.5
 73
0
 45
1.0
 46
1.0
 77
1
  4

 78
1
 79
1
170
1
 48
1.0
171
1
  6

172
1
173
1
174
1
140
1.0
141
1.0
175
1
  7

176
1
177
1
178
1
143
1.0
179
1
  8

270
1
271
1
272
1
145
1.0
146
1.0
273
1
  9

274
1
275
1
276
1
 42
1.0
 72
1
  3

 73
1
 74
1
 75
1
 94
63
  0
MLINESTYLE
  5
22
102
{ACAD_REACTORS
330
10
102
}
330
10
100
AcDbMlineStyle
  2
Standard
 70
0
  3

 62
256
 51
90.0
 52
90.0
 71
2
 49
0.5
 62
256
  6
BYLAYER
 49
-0.5
 62
256
  6
BYLAYER
  0
MLEADERSTYLE
  5
2C
102
{ACAD_REACTORS
330
F
102
}
330
F
100
AcDbMLeaderStyle
179
2
170
2
171
1
172
0
 90
2
 40
0.0
 41
0.0
173
1
 91
-1056964608
 92
-2
290
1
 42
2.0
291
1
 43
8.0
  3
Standard
 44
4.0
300

342
29
174
1
175
1
176
0
178
1
 93
-1056964608
 45
4.0
292
0
297
0
 46
4.0
 94
-1056964608
 47
1.0
 49
1.0
140
1.0
294
1
141
0.0
177
0
142
1.0
295
0
296
0
143
3.75
271
0
272
9
273
9
  0
DICTIONARY
  5
2D
330
A
100
AcDbDictionary
280
1
281
1
  3
CREATED_BY_EZDXF
350
2E
  3
WRITTEN_BY_EZDXF
350
2D5
  0
DICTIONARYVAR
  5
2E
330
2D
100
DictionaryVariables
280
0
  1
1.4.0 @ 2025-03-26T18:27:05.903670+00:00
  0
DICTIONARYVAR
  5
2D5
330
2D
100
DictionaryVariables
280
0
  1
1.4.0 @ 2025-03-26T18:27:05.922115+00:00
  0
ENDSEC
  0
EOF
