<?xml version="1.0" encoding="utf-8" ?>
<svg baseProfile="tiny" height="421.0" version="1.2" viewBox="328,2,526,421" width="526.0" xmlns="http://www.w3.org/2000/svg" xmlns:ev="http://www.w3.org/2001/xml-events" xmlns:xlink="http://www.w3.org/1999/xlink"><defs /><line stroke="rgb(0%,0%,0%)" x1="651.0" x2="747.0" y1="204.0" y2="204.0" /><line stroke="rgb(0%,0%,0%)" x1="849.0" x2="849.0" y1="359.0" y2="138.0" /><line stroke="rgb(0%,0%,0%)" x1="852.0" x2="852.0" y1="356.0" y2="139.0" /><line stroke="rgb(0%,0%,0%)" x1="337.0" x2="337.0" y1="132.0" y2="4.0" /><line stroke="rgb(0%,0%,0%)" x1="850.0" x2="850.0" y1="286.0" y2="139.0" /><line stroke="rgb(0%,0%,0%)" x1="623.0" x2="738.0" y1="205.0" y2="205.0" /><line stroke="rgb(0%,0%,0%)" x1="598.0" x2="706.0" y1="151.0" y2="151.0" /><line stroke="rgb(0%,0%,0%)" x1="620.0" x2="620.0" y1="419.0" y2="264.0" /><line stroke="rgb(0%,0%,0%)" x1="484.0" x2="484.0" y1="96.0" y2="4.0" /><line stroke="rgb(0%,0%,0%)" x1="677.0" x2="791.0" y1="202.0" y2="202.0" /><line stroke="rgb(0%,0%,0%)" x1="336.0" x2="336.0" y1="374.0" y2="284.0" /><line stroke="rgb(0%,0%,0%)" x1="357.0" x2="483.0" y1="2.0" y2="2.0" /><line stroke="rgb(0%,0%,0%)" x1="335.0" x2="335.0" y1="374.0" y2="281.0" /><line stroke="rgb(0%,0%,0%)" x1="456.0" x2="514.0" y1="366.0" y2="366.0" /><line stroke="rgb(0%,0%,0%)" x1="338.0" x2="406.0" y1="365.0" y2="365.0" /><line stroke="rgb(0%,0%,0%)" x1="638.0" x2="685.0" y1="152.0" y2="152.0" /><line stroke="rgb(0%,0%,0%)" x1="618.0" x2="698.0" y1="207.0" y2="207.0" /><line stroke="rgb(0%,0%,0%)" x1="618.0" x2="618.0" y1="256.0" y2="210.0" /><line stroke="rgb(0%,0%,0%)" x1="334.0" x2="334.0" y1="130.0" y2="4.0" /><line stroke="rgb(0%,0%,0%)" x1="623.0" x2="709.0" y1="206.0" y2="206.0" /><line stroke="rgb(0%,0%,0%)" x1="617.0" x2="617.0" y1="371.0" y2="301.0" /><line stroke="rgb(0%,0%,0%)" x1="854.0" x2="854.0" y1="266.0" y2="144.0" /><line stroke="rgb(0%,0%,0%)" x1="547.0" x2="653.0" y1="154.0" y2="154.0" /><line stroke="rgb(0%,0%,0%)" x1="846.0" x2="846.0" y1="279.0" y2="238.0" /><line stroke="rgb(0%,0%,0%)" x1="488.0" x2="546.0" y1="155.0" y2="155.0" /><line stroke="rgb(0%,0%,0%)" x1="516.0" x2="627.0" y1="419.0" y2="419.0" /><line stroke="rgb(0%,0%,0%)" x1="333.0" x2="333.0" y1="376.0" y2="284.0" /><line stroke="rgb(0%,0%,0%)" x1="563.0" x2="664.0" y1="153.0" y2="153.0" /><line stroke="rgb(0%,0%,0%)" x1="347.0" x2="347.0" y1="204.0" y2="135.0" /><line stroke="rgb(0%,0%,0%)" x1="847.0" x2="847.0" y1="282.0" y2="138.0" /><line stroke="rgb(0%,0%,0%)" x1="664.0" x2="791.0" y1="203.0" y2="203.0" /><line stroke="rgb(0%,0%,0%)" x1="709.0" x2="791.0" y1="201.0" y2="201.0" /><line stroke="rgb(0%,0%,0%)" x1="762.0" x2="853.0" y1="142.0" y2="142.0" /><line stroke="rgb(0%,0%,0%)" x1="614.0" x2="675.0" y1="208.0" y2="208.0" /><line stroke="rgb(0%,0%,0%)" x1="340.0" x2="340.0" y1="373.0" y2="312.0" /><line stroke="rgb(0%,0%,0%)" x1="488.0" x2="488.0" y1="193.0" y2="86.0" /><line stroke="rgb(0%,0%,0%)" x1="764.0" x2="853.0" y1="141.0" y2="141.0" /><line stroke="rgb(0%,0%,0%)" x1="745.0" x2="798.0" y1="143.0" y2="143.0" /><line stroke="rgb(0%,0%,0%)" x1="516.0" x2="585.0" y1="423.0" y2="423.0" /><line stroke="rgb(0%,0%,0%)" x1="486.0" x2="486.0" y1="124.0" y2="27.0" /><line stroke="rgb(0%,0%,0%)" x1="619.0" x2="619.0" y1="413.0" y2="331.0" /><line stroke="rgb(0%,0%,0%)" x1="431.0" x2="513.0" y1="367.0" y2="367.0" /><line stroke="rgb(0%,0%,0%)" x1="339.0" x2="339.0" y1="374.0" y2="310.0" /><line stroke="rgb(0%,0%,0%)" x1="848.0" x2="848.0" y1="298.0" y2="224.0" /><line stroke="rgb(0%,0%,0%)" x1="335.0" x2="480.0" y1="4.0" y2="4.0" /><line stroke="rgb(0%,0%,0%)" x1="459.0" x2="516.0" y1="362.0" y2="362.0" /><line stroke="rgb(0%,0%,0%)" x1="562.0" x2="610.0" y1="156.0" y2="156.0" /><line stroke="rgb(0%,0%,0%)" x1="615.0" x2="615.0" y1="303.0" y2="243.0" /><line stroke="rgb(0%,0%,0%)" x1="328.0" x2="379.0" y1="8.0" y2="8.0" /><line stroke="rgb(0%,0%,0%)" x1="341.0" x2="341.0" y1="149.0" y2="109.0" /><line stroke="rgb(0%,0%,0%)" x1="487.0" x2="487.0" y1="194.0" y2="46.0" /><line stroke="rgb(0%,0%,0%)" x1="853.0" x2="853.0" y1="280.0" y2="143.0" /><line stroke="rgb(0%,0%,0%)" x1="339.0" x2="483.0" y1="3.0" y2="3.0" /></svg>