<?xml version="1.0" encoding="utf-8" ?>
<svg baseProfile="tiny" height="581.0" version="1.2" viewBox="0,0,1118,581" width="1118.0" xmlns="http://www.w3.org/2000/svg" xmlns:ev="http://www.w3.org/2001/xml-events" xmlns:xlink="http://www.w3.org/1999/xlink"><defs /><line stroke="rgb(0%,0%,0%)" x1="3.0" x2="577.0" y1="251.0" y2="451.0" /><line stroke="rgb(0%,0%,0%)" x1="141.0" x2="579.0" y1="302.0" y2="457.0" /><line stroke="rgb(0%,0%,0%)" x1="92.0" x2="299.0" y1="1.0" y2="75.0" /><line stroke="rgb(0%,0%,0%)" x1="2.0" x2="121.0" y1="249.0" y2="291.0" /><line stroke="rgb(0%,0%,0%)" x1="4.0" x2="334.0" y1="253.0" y2="368.0" /><line stroke="rgb(0%,0%,0%)" x1="783.0" x2="847.0" y1="548.0" y2="554.0" /><line stroke="rgb(0%,0%,0%)" x1="682.0" x2="823.0" y1="544.0" y2="556.0" /><line stroke="rgb(0%,0%,0%)" x1="1015.0" x2="1114.0" y1="570.0" y2="580.0" /><line stroke="rgb(0%,0%,0%)" x1="226.0" x2="297.0" y1="269.0" y2="73.0" /><line stroke="rgb(0%,0%,0%)" x1="240.0" x2="294.0" y1="50.0" y2="70.0" /><line stroke="rgb(0%,0%,0%)" x1="565.0" x2="699.0" y1="345.0" y2="373.0" /><line stroke="rgb(0%,0%,0%)" x1="95.0" x2="296.0" y1="0.0" y2="72.0" /><line stroke="rgb(0%,0%,0%)" x1="226.0" x2="399.0" y1="270.0" y2="326.0" /><line stroke="rgb(0%,0%,0%)" x1="916.0" x2="1115.0" y1="559.0" y2="578.0" /><line stroke="rgb(0%,0%,0%)" x1="890.0" x2="943.0" y1="409.0" y2="413.0" /><line stroke="rgb(0%,0%,0%)" x1="686.0" x2="1003.0" y1="393.0" y2="415.0" /><line stroke="rgb(0%,0%,0%)" x1="753.0" x2="923.0" y1="386.0" y2="417.0" /><line stroke="rgb(0%,0%,0%)" x1="391.0" x2="469.0" y1="329.0" y2="132.0" /><line stroke="rgb(0%,0%,0%)" x1="229.0" x2="299.0" y1="272.0" y2="76.0" /><line stroke="rgb(0%,0%,0%)" x1="728.0" x2="847.0" y1="544.0" y2="556.0" /><line stroke="rgb(0%,0%,0%)" x1="514.0" x2="559.0" y1="316.0" y2="325.0" /><line stroke="rgb(0%,0%,0%)" x1="399.0" x2="548.0" y1="387.0" y2="440.0" /><line stroke="rgb(0%,0%,0%)" x1="731.0" x2="835.0" y1="542.0" y2="551.0" /><line stroke="rgb(0%,0%,0%)" x1="754.0" x2="879.0" y1="384.0" y2="407.0" /><line stroke="rgb(0%,0%,0%)" x1="597.0" x2="698.0" y1="356.0" y2="371.0" /><line stroke="rgb(0%,0%,0%)" x1="103.0" x2="148.0" y1="228.0" y2="237.0" /><line stroke="rgb(0%,0%,0%)" x1="394.0" x2="474.0" y1="330.0" y2="133.0" /><line stroke="rgb(0%,0%,0%)" x1="976.0" x2="1061.0" y1="409.0" y2="425.0" /><line stroke="rgb(0%,0%,0%)" x1="681.0" x2="728.0" y1="549.0" y2="552.0" /><line stroke="rgb(0%,0%,0%)" x1="570.0" x2="690.0" y1="482.0" y2="489.0" /><line stroke="rgb(0%,0%,0%)" x1="510.0" x2="617.0" y1="308.0" y2="362.0" /><line stroke="rgb(0%,0%,0%)" x1="842.0" x2="920.0" y1="418.0" y2="437.0" /><line stroke="rgb(0%,0%,0%)" x1="806.0" x2="856.0" y1="436.0" y2="451.0" /><line stroke="rgb(0%,0%,0%)" x1="687.0" x2="918.0" y1="376.0" y2="428.0" /><line stroke="rgb(0%,0%,0%)" x1="753.0" x2="922.0" y1="389.0" y2="426.0" /><line stroke="rgb(0%,0%,0%)" x1="682.0" x2="845.0" y1="542.0" y2="556.0" /><line stroke="rgb(0%,0%,0%)" x1="908.0" x2="980.0" y1="564.0" y2="568.0" /><line stroke="rgb(0%,0%,0%)" x1="991.0" x2="1061.0" y1="411.0" y2="424.0" /><line stroke="rgb(0%,0%,0%)" x1="228.0" x2="311.0" y1="269.0" y2="293.0" /><line stroke="rgb(0%,0%,0%)" x1="519.0" x2="568.0" y1="318.0" y2="334.0" /><line stroke="rgb(0%,0%,0%)" x1="468.0" x2="568.0" y1="132.0" y2="169.0" /><line stroke="rgb(0%,0%,0%)" x1="841.0" x2="909.0" y1="423.0" y2="444.0" /><line stroke="rgb(0%,0%,0%)" x1="98.0" x2="269.0" y1="0.0" y2="60.0" /><line stroke="rgb(0%,0%,0%)" x1="652.0" x2="792.0" y1="361.0" y2="405.0" /><line stroke="rgb(0%,0%,0%)" x1="584.0" x2="922.0" y1="352.0" y2="424.0" /><line stroke="rgb(0%,0%,0%)" x1="282.0" x2="342.0" y1="287.0" y2="305.0" /><line stroke="rgb(0%,0%,0%)" x1="798.0" x2="924.0" y1="553.0" y2="537.0" /><line stroke="rgb(0%,0%,0%)" x1="228.0" x2="311.0" y1="268.0" y2="291.0" /><line stroke="rgb(0%,0%,0%)" x1="511.0" x2="645.0" y1="307.0" y2="366.0" /><line stroke="rgb(0%,0%,0%)" x1="685.0" x2="761.0" y1="397.0" y2="416.0" /><line stroke="rgb(0%,0%,0%)" x1="309.0" x2="398.0" y1="299.0" y2="323.0" /><line stroke="rgb(0%,0%,0%)" x1="343.0" x2="390.0" y1="312.0" y2="324.0" /><line stroke="rgb(0%,0%,0%)" x1="228.0" x2="309.0" y1="270.0" y2="293.0" /><line stroke="rgb(0%,0%,0%)" x1="510.0" x2="637.0" y1="313.0" y2="365.0" /><line stroke="rgb(0%,0%,0%)" x1="510.0" x2="566.0" y1="311.0" y2="167.0" /><line stroke="rgb(0%,0%,0%)" x1="1.0" x2="38.0" y1="237.0" y2="154.0" /><line stroke="rgb(0%,0%,0%)" x1="963.0" x2="1116.0" y1="564.0" y2="574.0" /><line stroke="rgb(0%,0%,0%)" x1="4.0" x2="35.0" y1="254.0" y2="166.0" /><line stroke="rgb(0%,0%,0%)" x1="389.0" x2="580.0" y1="387.0" y2="455.0" /><line stroke="rgb(0%,0%,0%)" x1="836.0" x2="845.0" y1="471.0" y2="378.0" /><line stroke="rgb(0%,0%,0%)" x1="886.0" x2="975.0" y1="406.0" y2="409.0" /><line stroke="rgb(0%,0%,0%)" x1="521.0" x2="564.0" y1="278.0" y2="164.0" /><line stroke="rgb(0%,0%,0%)" x1="784.0" x2="921.0" y1="549.0" y2="533.0" /><line stroke="rgb(0%,0%,0%)" x1="570.0" x2="690.0" y1="483.0" y2="497.0" /><line stroke="rgb(0%,0%,0%)" x1="658.0" x2="855.0" y1="362.0" y2="459.0" /><line stroke="rgb(0%,0%,0%)" x1="564.0" x2="643.0" y1="340.0" y2="366.0" /><line stroke="rgb(0%,0%,0%)" x1="1047.0" x2="1055.0" y1="504.0" y2="417.0" /><line stroke="rgb(0%,0%,0%)" x1="1.0" x2="36.0" y1="246.0" y2="162.0" /><line stroke="rgb(0%,0%,0%)" x1="847.0" x2="920.0" y1="420.0" y2="438.0" /><line stroke="rgb(0%,0%,0%)" x1="408.0" x2="468.0" y1="305.0" y2="136.0" /><line stroke="rgb(0%,0%,0%)" x1="233.0" x2="295.0" y1="268.0" y2="285.0" /><line stroke="rgb(0%,0%,0%)" x1="79.0" x2="158.0" y1="62.0" y2="102.0" /><line stroke="rgb(0%,0%,0%)" x1="686.0" x2="778.0" y1="382.0" y2="406.0" /><line stroke="rgb(0%,0%,0%)" x1="1051.0" x2="1060.0" y1="512.0" y2="429.0" /><line stroke="rgb(0%,0%,0%)" x1="806.0" x2="856.0" y1="438.0" y2="452.0" /><line stroke="rgb(0%,0%,0%)" x1="843.0" x2="851.0" y1="473.0" y2="380.0" /><line stroke="rgb(0%,0%,0%)" x1="840.0" x2="847.0" y1="472.0" y2="378.0" /><line stroke="rgb(0%,0%,0%)" x1="685.0" x2="745.0" y1="394.0" y2="410.0" /><line stroke="rgb(0%,0%,0%)" x1="681.0" x2="773.0" y1="547.0" y2="552.0" /><line stroke="rgb(0%,0%,0%)" x1="195.0" x2="264.0" y1="33.0" y2="57.0" /><line stroke="rgb(0%,0%,0%)" x1="985.0" x2="1040.0" y1="569.0" y2="576.0" /><line stroke="rgb(0%,0%,0%)" x1="56.0" x2="141.0" y1="221.0" y2="243.0" /><line stroke="rgb(0%,0%,0%)" x1="685.0" x2="742.0" y1="404.0" y2="406.0" /><line stroke="rgb(0%,0%,0%)" x1="689.0" x2="777.0" y1="381.0" y2="404.0" /><line stroke="rgb(0%,0%,0%)" x1="845.0" x2="919.0" y1="420.0" y2="439.0" /><line stroke="rgb(0%,0%,0%)" x1="686.0" x2="751.0" y1="386.0" y2="403.0" /><line stroke="rgb(0%,0%,0%)" x1="686.0" x2="746.0" y1="387.0" y2="407.0" /><line stroke="rgb(0%,0%,0%)" x1="1022.0" x2="1116.0" y1="566.0" y2="576.0" /><line stroke="rgb(0%,0%,0%)" x1="516.0" x2="566.0" y1="306.0" y2="166.0" /><line stroke="rgb(0%,0%,0%)" x1="500.0" x2="563.0" y1="140.0" y2="163.0" /><line stroke="rgb(0%,0%,0%)" x1="1008.0" x2="1060.0" y1="413.0" y2="422.0" /><line stroke="rgb(0%,0%,0%)" x1="96.0" x2="183.0" y1="3.0" y2="34.0" /><line stroke="rgb(0%,0%,0%)" x1="570.0" x2="691.0" y1="486.0" y2="491.0" /><line stroke="rgb(0%,0%,0%)" x1="859.0" x2="920.0" y1="421.0" y2="435.0" /><line stroke="rgb(0%,0%,0%)" x1="682.0" x2="683.0" y1="545.0" y2="493.0" /><line stroke="rgb(0%,0%,0%)" x1="464.0" x2="552.0" y1="134.0" y2="164.0" /><line stroke="rgb(0%,0%,0%)" x1="349.0" x2="397.0" y1="315.0" y2="328.0" /><line stroke="rgb(0%,0%,0%)" x1="291.0" x2="467.0" y1="352.0" y2="418.0" /><line stroke="rgb(0%,0%,0%)" x1="686.0" x2="691.0" y1="545.0" y2="490.0" /><line stroke="rgb(0%,0%,0%)" x1="6.0" x2="37.0" y1="246.0" y2="158.0" /><line stroke="rgb(0%,0%,0%)" x1="644.0" x2="785.0" y1="360.0" y2="404.0" /><line stroke="rgb(0%,0%,0%)" x1="785.0" x2="911.0" y1="391.0" y2="447.0" /><line stroke="rgb(0%,0%,0%)" x1="692.0" x2="747.0" y1="388.0" y2="407.0" /><line stroke="rgb(0%,0%,0%)" x1="687.0" x2="744.0" y1="409.0" y2="410.0" /><line stroke="rgb(0%,0%,0%)" x1="1112.0" x2="1118.0" y1="581.0" y2="517.0" /><line stroke="rgb(0%,0%,0%)" x1="845.0" x2="941.0" y1="396.0" y2="414.0" /><line stroke="rgb(0%,0%,0%)" x1="64.0" x2="97.0" y1="157.0" y2="28.0" /><line stroke="rgb(0%,0%,0%)" x1="477.0" x2="554.0" y1="135.0" y2="160.0" /><line stroke="rgb(0%,0%,0%)" x1="925.0" x2="982.0" y1="405.0" y2="414.0" /><line stroke="rgb(0%,0%,0%)" x1="563.0" x2="607.0" y1="341.0" y2="356.0" /><line stroke="rgb(0%,0%,0%)" x1="878.0" x2="923.0" y1="411.0" y2="421.0" /><line stroke="rgb(0%,0%,0%)" x1="290.0" x2="344.0" y1="292.0" y2="306.0" /><line stroke="rgb(0%,0%,0%)" x1="509.0" x2="565.0" y1="312.0" y2="165.0" /><line stroke="rgb(0%,0%,0%)" x1="63.0" x2="100.0" y1="155.0" y2="5.0" /><line stroke="rgb(0%,0%,0%)" x1="686.0" x2="749.0" y1="384.0" y2="405.0" /><line stroke="rgb(0%,0%,0%)" x1="846.0" x2="920.0" y1="414.0" y2="436.0" /><line stroke="rgb(0%,0%,0%)" x1="233.0" x2="290.0" y1="266.0" y2="103.0" /><line stroke="rgb(0%,0%,0%)" x1="0.0" x2="27.0" y1="241.0" y2="183.0" /><line stroke="rgb(0%,0%,0%)" x1="685.0" x2="728.0" y1="396.0" y2="407.0" /><line stroke="rgb(0%,0%,0%)" x1="1008.0" x2="1054.0" y1="571.0" y2="576.0" /><line stroke="rgb(0%,0%,0%)" x1="845.0" x2="917.0" y1="422.0" y2="442.0" /><line stroke="rgb(0%,0%,0%)" x1="788.0" x2="879.0" y1="391.0" y2="413.0" /><line stroke="rgb(0%,0%,0%)" x1="103.0" x2="145.0" y1="230.0" y2="241.0" /><line stroke="rgb(0%,0%,0%)" x1="325.0" x2="554.0" y1="364.0" y2="445.0" /><line stroke="rgb(0%,0%,0%)" x1="205.0" x2="273.0" y1="326.0" y2="346.0" /><line stroke="rgb(0%,0%,0%)" x1="234.0" x2="296.0" y1="249.0" y2="81.0" /><line stroke="rgb(0%,0%,0%)" x1="847.0" x2="918.0" y1="413.0" y2="430.0" /><line stroke="rgb(0%,0%,0%)" x1="770.0" x2="922.0" y1="396.0" y2="427.0" /><line stroke="rgb(0%,0%,0%)" x1="753.0" x2="873.0" y1="387.0" y2="412.0" /><line stroke="rgb(0%,0%,0%)" x1="115.0" x2="155.0" y1="88.0" y2="104.0" /><line stroke="rgb(0%,0%,0%)" x1="314.0" x2="399.0" y1="301.0" y2="324.0" /><line stroke="rgb(0%,0%,0%)" x1="570.0" x2="574.0" y1="508.0" y2="451.0" /><line stroke="rgb(0%,0%,0%)" x1="316.0" x2="384.0" y1="303.0" y2="322.0" /><line stroke="rgb(0%,0%,0%)" x1="1028.0" x2="1087.0" y1="566.0" y2="577.0" /><line stroke="rgb(0%,0%,0%)" x1="851.0" x2="861.0" y1="473.0" y2="416.0" /><line stroke="rgb(0%,0%,0%)" x1="231.0" x2="315.0" y1="328.0" y2="363.0" /><line stroke="rgb(0%,0%,0%)" x1="687.0" x2="777.0" y1="379.0" y2="402.0" /><line stroke="rgb(0%,0%,0%)" x1="473.0" x2="538.0" y1="133.0" y2="154.0" /><line stroke="rgb(0%,0%,0%)" x1="563.0" x2="693.0" y1="344.0" y2="369.0" /><line stroke="rgb(0%,0%,0%)" x1="1024.0" x2="1116.0" y1="566.0" y2="575.0" /><line stroke="rgb(0%,0%,0%)" x1="103.0" x2="147.0" y1="229.0" y2="238.0" /><line stroke="rgb(0%,0%,0%)" x1="567.0" x2="614.0" y1="346.0" y2="360.0" /><line stroke="rgb(0%,0%,0%)" x1="1047.0" x2="1056.0" y1="508.0" y2="417.0" /><line stroke="rgb(0%,0%,0%)" x1="570.0" x2="661.0" y1="487.0" y2="491.0" /><line stroke="rgb(0%,0%,0%)" x1="64.0" x2="89.0" y1="147.0" y2="6.0" /><line stroke="rgb(0%,0%,0%)" x1="686.0" x2="746.0" y1="389.0" y2="408.0" /><line stroke="rgb(0%,0%,0%)" x1="780.0" x2="923.0" y1="551.0" y2="534.0" /><line stroke="rgb(0%,0%,0%)" x1="93.0" x2="150.0" y1="3.0" y2="23.0" /><line stroke="rgb(0%,0%,0%)" x1="523.0" x2="567.0" y1="314.0" y2="331.0" /><line stroke="rgb(0%,0%,0%)" x1="849.0" x2="856.0" y1="474.0" y2="418.0" /><line stroke="rgb(0%,0%,0%)" x1="686.0" x2="726.0" y1="390.0" y2="404.0" /><line stroke="rgb(0%,0%,0%)" x1="841.0" x2="848.0" y1="473.0" y2="378.0" /><line stroke="rgb(0%,0%,0%)" x1="1060.0" x2="1114.0" y1="569.0" y2="579.0" /><line stroke="rgb(0%,0%,0%)" x1="419.0" x2="470.0" y1="264.0" y2="139.0" /></svg>