<?xml version="1.0" encoding="utf-8" ?>
<svg baseProfile="tiny" height="1740.0" version="1.2" viewBox="147,4,1173,1740" width="1173.0" xmlns="http://www.w3.org/2000/svg" xmlns:ev="http://www.w3.org/2001/xml-events" xmlns:xlink="http://www.w3.org/1999/xlink"><defs /><line stroke="rgb(0%,0%,0%)" x1="1150.0" x2="1150.0" y1="523.0" y2="421.0" /><line stroke="rgb(0%,0%,0%)" x1="1154.0" x2="1154.0" y1="877.0" y2="788.0" /><line stroke="rgb(0%,0%,0%)" x1="736.0" x2="736.0" y1="1669.0" y2="1383.0" /><line stroke="rgb(0%,0%,0%)" x1="1151.0" x2="1151.0" y1="532.0" y2="420.0" /><line stroke="rgb(0%,0%,0%)" x1="492.0" x2="492.0" y1="848.0" y2="635.0" /><line stroke="rgb(0%,0%,0%)" x1="910.0" x2="910.0" y1="1499.0" y2="1374.0" /><line stroke="rgb(0%,0%,0%)" x1="1187.0" x2="1277.0" y1="1373.0" y2="1373.0" /><line stroke="rgb(0%,0%,0%)" x1="691.0" x2="794.0" y1="26.0" y2="26.0" /><line stroke="rgb(0%,0%,0%)" x1="573.0" x2="645.0" y1="25.0" y2="25.0" /><line stroke="rgb(0%,0%,0%)" x1="1010.0" x2="1010.0" y1="346.0" y2="230.0" /><line stroke="rgb(0%,0%,0%)" x1="505.0" x2="650.0" y1="30.0" y2="30.0" /><line stroke="rgb(0%,0%,0%)" x1="1014.0" x2="1014.0" y1="341.0" y2="273.0" /><line stroke="rgb(0%,0%,0%)" x1="503.0" x2="641.0" y1="31.0" y2="31.0" /><line stroke="rgb(0%,0%,0%)" x1="738.0" x2="738.0" y1="1660.0" y2="1443.0" /><line stroke="rgb(0%,0%,0%)" x1="503.0" x2="663.0" y1="29.0" y2="29.0" /><line stroke="rgb(0%,0%,0%)" x1="1237.0" x2="1237.0" y1="217.0" y2="17.0" /><line stroke="rgb(0%,0%,0%)" x1="1153.0" x2="1153.0" y1="572.0" y2="522.0" /><line stroke="rgb(0%,0%,0%)" x1="1012.0" x2="1012.0" y1="1086.0" y2="1000.0" /><line stroke="rgb(0%,0%,0%)" x1="1146.0" x2="1146.0" y1="517.0" y2="421.0" /><line stroke="rgb(0%,0%,0%)" x1="1238.0" x2="1238.0" y1="126.0" y2="13.0" /><line stroke="rgb(0%,0%,0%)" x1="737.0" x2="737.0" y1="1654.0" y2="1383.0" /><line stroke="rgb(0%,0%,0%)" x1="524.0" x2="524.0" y1="636.0" y2="554.0" /><line stroke="rgb(0%,0%,0%)" x1="489.0" x2="489.0" y1="793.0" y2="643.0" /><line stroke="rgb(0%,0%,0%)" x1="480.0" x2="480.0" y1="554.0" y2="414.0" /><line stroke="rgb(0%,0%,0%)" x1="1152.0" x2="1152.0" y1="879.0" y2="787.0" /><line stroke="rgb(0%,0%,0%)" x1="523.0" x2="523.0" y1="1075.0" y2="934.0" /><line stroke="rgb(0%,0%,0%)" x1="1009.0" x2="1009.0" y1="54.0" y2="14.0" /><line stroke="rgb(0%,0%,0%)" x1="731.0" x2="790.0" y1="853.0" y2="853.0" /><line stroke="rgb(0%,0%,0%)" x1="934.0" x2="1074.0" y1="1371.0" y2="1371.0" /><line stroke="rgb(0%,0%,0%)" x1="1013.0" x2="1013.0" y1="301.0" y2="230.0" /><line stroke="rgb(0%,0%,0%)" x1="1186.0" x2="1277.0" y1="1372.0" y2="1372.0" /><line stroke="rgb(0%,0%,0%)" x1="1243.0" x2="1243.0" y1="714.0" y2="616.0" /><line stroke="rgb(0%,0%,0%)" x1="731.0" x2="845.0" y1="857.0" y2="857.0" /><line stroke="rgb(0%,0%,0%)" x1="485.0" x2="485.0" y1="710.0" y2="644.0" /><line stroke="rgb(0%,0%,0%)" x1="619.0" x2="692.0" y1="24.0" y2="24.0" /><line stroke="rgb(0%,0%,0%)" x1="735.0" x2="735.0" y1="1543.0" y2="1383.0" /><line stroke="rgb(0%,0%,0%)" x1="731.0" x2="731.0" y1="856.0" y2="774.0" /><line stroke="rgb(0%,0%,0%)" x1="912.0" x2="912.0" y1="122.0" y2="65.0" /><line stroke="rgb(0%,0%,0%)" x1="1244.0" x2="1244.0" y1="788.0" y2="659.0" /><line stroke="rgb(0%,0%,0%)" x1="503.0" x2="680.0" y1="28.0" y2="28.0" /><line stroke="rgb(0%,0%,0%)" x1="1240.0" x2="1240.0" y1="682.0" y2="612.0" /><line stroke="rgb(0%,0%,0%)" x1="536.0" x2="738.0" y1="1388.0" y2="1388.0" /><line stroke="rgb(0%,0%,0%)" x1="1006.0" x2="1006.0" y1="1009.0" y2="925.0" /><line stroke="rgb(0%,0%,0%)" x1="756.0" x2="818.0" y1="20.0" y2="20.0" /><line stroke="rgb(0%,0%,0%)" x1="1009.0" x2="1009.0" y1="1056.0" y2="981.0" /><line stroke="rgb(0%,0%,0%)" x1="1148.0" x2="1148.0" y1="1221.0" y2="1075.0" /><line stroke="rgb(0%,0%,0%)" x1="1149.0" x2="1149.0" y1="879.0" y2="786.0" /><line stroke="rgb(0%,0%,0%)" x1="1008.0" x2="1008.0" y1="101.0" y2="14.0" /><line stroke="rgb(0%,0%,0%)" x1="752.0" x2="752.0" y1="1742.0" y2="1669.0" /><line stroke="rgb(0%,0%,0%)" x1="473.0" x2="473.0" y1="264.0" y2="131.0" /><line stroke="rgb(0%,0%,0%)" x1="517.0" x2="517.0" y1="589.0" y2="525.0" /><line stroke="rgb(0%,0%,0%)" x1="896.0" x2="1046.0" y1="1375.0" y2="1375.0" /><line stroke="rgb(0%,0%,0%)" x1="498.0" x2="608.0" y1="32.0" y2="32.0" /><line stroke="rgb(0%,0%,0%)" x1="620.0" x2="669.0" y1="1374.0" y2="1374.0" /><line stroke="rgb(0%,0%,0%)" x1="527.0" x2="527.0" y1="660.0" y2="554.0" /><line stroke="rgb(0%,0%,0%)" x1="1245.0" x2="1245.0" y1="787.0" y2="689.0" /><line stroke="rgb(0%,0%,0%)" x1="921.0" x2="980.0" y1="1182.0" y2="1182.0" /><line stroke="rgb(0%,0%,0%)" x1="732.0" x2="732.0" y1="1509.0" y2="1389.0" /><line stroke="rgb(0%,0%,0%)" x1="532.0" x2="604.0" y1="27.0" y2="27.0" /><line stroke="rgb(0%,0%,0%)" x1="1050.0" x2="1145.0" y1="1368.0" y2="1368.0" /><line stroke="rgb(0%,0%,0%)" x1="478.0" x2="478.0" y1="551.0" y2="401.0" /><line stroke="rgb(0%,0%,0%)" x1="1016.0" x2="1016.0" y1="436.0" y2="358.0" /><line stroke="rgb(0%,0%,0%)" x1="479.0" x2="479.0" y1="542.0" y2="410.0" /><line stroke="rgb(0%,0%,0%)" x1="925.0" x2="925.0" y1="1733.0" y2="1693.0" /><line stroke="rgb(0%,0%,0%)" x1="1017.0" x2="1017.0" y1="100.0" y2="57.0" /><line stroke="rgb(0%,0%,0%)" x1="172.0" x2="172.0" y1="814.0" y2="699.0" /><line stroke="rgb(0%,0%,0%)" x1="528.0" x2="528.0" y1="1086.0" y2="1008.0" /><line stroke="rgb(0%,0%,0%)" x1="911.0" x2="911.0" y1="122.0" y2="67.0" /><line stroke="rgb(0%,0%,0%)" x1="443.0" x2="541.0" y1="852.0" y2="852.0" /><line stroke="rgb(0%,0%,0%)" x1="1015.0" x2="1015.0" y1="100.0" y2="54.0" /><line stroke="rgb(0%,0%,0%)" x1="540.0" x2="540.0" y1="1086.0" y2="933.0" /><line stroke="rgb(0%,0%,0%)" x1="449.0" x2="545.0" y1="850.0" y2="850.0" /><line stroke="rgb(0%,0%,0%)" x1="1049.0" x2="1138.0" y1="1369.0" y2="1369.0" /><line stroke="rgb(0%,0%,0%)" x1="913.0" x2="1014.0" y1="101.0" y2="101.0" /><line stroke="rgb(0%,0%,0%)" x1="917.0" x2="917.0" y1="124.0" y2="64.0" /><line stroke="rgb(0%,0%,0%)" x1="1241.0" x2="1241.0" y1="91.0" y2="22.0" /><line stroke="rgb(0%,0%,0%)" x1="1152.0" x2="1238.0" y1="608.0" y2="608.0" /><line stroke="rgb(0%,0%,0%)" x1="751.0" x2="751.0" y1="1580.0" y2="1380.0" /><line stroke="rgb(0%,0%,0%)" x1="1147.0" x2="1147.0" y1="1221.0" y2="1073.0" /><line stroke="rgb(0%,0%,0%)" x1="542.0" x2="542.0" y1="1087.0" y2="1003.0" /><line stroke="rgb(0%,0%,0%)" x1="734.0" x2="734.0" y1="1535.0" y2="1389.0" /><line stroke="rgb(0%,0%,0%)" x1="926.0" x2="926.0" y1="67.0" y2="16.0" /><line stroke="rgb(0%,0%,0%)" x1="927.0" x2="927.0" y1="1654.0" y2="1595.0" /><line stroke="rgb(0%,0%,0%)" x1="487.0" x2="487.0" y1="710.0" y2="638.0" /><line stroke="rgb(0%,0%,0%)" x1="749.0" x2="749.0" y1="1601.0" y2="1494.0" /><line stroke="rgb(0%,0%,0%)" x1="476.0" x2="476.0" y1="551.0" y2="344.0" /><line stroke="rgb(0%,0%,0%)" x1="1007.0" x2="1007.0" y1="1030.0" y2="954.0" /><line stroke="rgb(0%,0%,0%)" x1="755.0" x2="755.0" y1="1737.0" y2="1670.0" /><line stroke="rgb(0%,0%,0%)" x1="525.0" x2="525.0" y1="636.0" y2="554.0" /><line stroke="rgb(0%,0%,0%)" x1="518.0" x2="518.0" y1="337.0" y2="228.0" /><line stroke="rgb(0%,0%,0%)" x1="526.0" x2="526.0" y1="636.0" y2="554.0" /><line stroke="rgb(0%,0%,0%)" x1="579.0" x2="666.0" y1="1392.0" y2="1392.0" /><line stroke="rgb(0%,0%,0%)" x1="737.0" x2="859.0" y1="856.0" y2="856.0" /><line stroke="rgb(0%,0%,0%)" x1="488.0" x2="488.0" y1="792.0" y2="641.0" /><line stroke="rgb(0%,0%,0%)" x1="733.0" x2="733.0" y1="1533.0" y2="1391.0" /><line stroke="rgb(0%,0%,0%)" x1="1239.0" x2="1239.0" y1="666.0" y2="610.0" /><line stroke="rgb(0%,0%,0%)" x1="475.0" x2="475.0" y1="205.0" y2="131.0" /><line stroke="rgb(0%,0%,0%)" x1="913.0" x2="913.0" y1="1497.0" y2="1434.0" /><line stroke="rgb(0%,0%,0%)" x1="730.0" x2="730.0" y1="858.0" y2="774.0" /><line stroke="rgb(0%,0%,0%)" x1="482.0" x2="482.0" y1="554.0" y2="425.0" /><line stroke="rgb(0%,0%,0%)" x1="1013.0" x2="1138.0" y1="429.0" y2="429.0" /><line stroke="rgb(0%,0%,0%)" x1="727.0" x2="727.0" y1="815.0" y2="775.0" /><line stroke="rgb(0%,0%,0%)" x1="1220.0" x2="1270.0" y1="1181.0" y2="1181.0" /><line stroke="rgb(0%,0%,0%)" x1="1316.0" x2="1316.0" y1="1303.0" y2="1180.0" /><line stroke="rgb(0%,0%,0%)" x1="729.0" x2="838.0" y1="774.0" y2="774.0" /><line stroke="rgb(0%,0%,0%)" x1="1188.0" x2="1271.0" y1="1374.0" y2="1374.0" /><line stroke="rgb(0%,0%,0%)" x1="495.0" x2="495.0" y1="843.0" y2="701.0" /><line stroke="rgb(0%,0%,0%)" x1="542.0" x2="739.0" y1="1389.0" y2="1389.0" /><line stroke="rgb(0%,0%,0%)" x1="1019.0" x2="1062.0" y1="35.0" y2="35.0" /><line stroke="rgb(0%,0%,0%)" x1="495.0" x2="586.0" y1="33.0" y2="33.0" /><line stroke="rgb(0%,0%,0%)" x1="914.0" x2="914.0" y1="1519.0" y2="1439.0" /><line stroke="rgb(0%,0%,0%)" x1="491.0" x2="491.0" y1="204.0" y2="135.0" /><line stroke="rgb(0%,0%,0%)" x1="928.0" x2="928.0" y1="1730.0" y2="1610.0" /><line stroke="rgb(0%,0%,0%)" x1="1242.0" x2="1242.0" y1="211.0" y2="163.0" /><line stroke="rgb(0%,0%,0%)" x1="599.0" x2="599.0" y1="667.0" y2="614.0" /><line stroke="rgb(0%,0%,0%)" x1="1022.0" x2="1022.0" y1="97.0" y2="10.0" /><line stroke="rgb(0%,0%,0%)" x1="816.0" x2="917.0" y1="1737.0" y2="1737.0" /><line stroke="rgb(0%,0%,0%)" x1="472.0" x2="472.0" y1="264.0" y2="169.0" /><line stroke="rgb(0%,0%,0%)" x1="493.0" x2="493.0" y1="845.0" y2="694.0" /><line stroke="rgb(0%,0%,0%)" x1="532.0" x2="532.0" y1="626.0" y2="560.0" /><line stroke="rgb(0%,0%,0%)" x1="993.0" x2="993.0" y1="98.0" y2="55.0" /><line stroke="rgb(0%,0%,0%)" x1="521.0" x2="521.0" y1="1033.0" y2="934.0" /><line stroke="rgb(0%,0%,0%)" x1="519.0" x2="519.0" y1="336.0" y2="233.0" /><line stroke="rgb(0%,0%,0%)" x1="471.0" x2="471.0" y1="263.0" y2="215.0" /><line stroke="rgb(0%,0%,0%)" x1="728.0" x2="728.0" y1="1470.0" y2="1391.0" /><line stroke="rgb(0%,0%,0%)" x1="475.0" x2="475.0" y1="425.0" y2="345.0" /><line stroke="rgb(0%,0%,0%)" x1="529.0" x2="529.0" y1="1087.0" y2="1043.0" /><line stroke="rgb(0%,0%,0%)" x1="923.0" x2="923.0" y1="1598.0" y2="1557.0" /><line stroke="rgb(0%,0%,0%)" x1="477.0" x2="477.0" y1="547.0" y2="344.0" /><line stroke="rgb(0%,0%,0%)" x1="466.0" x2="466.0" y1="169.0" y2="44.0" /><line stroke="rgb(0%,0%,0%)" x1="1248.0" x2="1248.0" y1="786.0" y2="735.0" /><line stroke="rgb(0%,0%,0%)" x1="499.0" x2="499.0" y1="854.0" y2="769.0" /><line stroke="rgb(0%,0%,0%)" x1="490.0" x2="490.0" y1="785.0" y2="637.0" /><line stroke="rgb(0%,0%,0%)" x1="750.0" x2="750.0" y1="1741.0" y2="1669.0" /><line stroke="rgb(0%,0%,0%)" x1="470.0" x2="470.0" y1="261.0" y2="134.0" /><line stroke="rgb(0%,0%,0%)" x1="148.0" x2="148.0" y1="422.0" y2="315.0" /><line stroke="rgb(0%,0%,0%)" x1="669.0" x2="811.0" y1="23.0" y2="23.0" /><line stroke="rgb(0%,0%,0%)" x1="893.0" x2="967.0" y1="1376.0" y2="1376.0" /><line stroke="rgb(0%,0%,0%)" x1="530.0" x2="530.0" y1="662.0" y2="554.0" /><line stroke="rgb(0%,0%,0%)" x1="1315.0" x2="1315.0" y1="1287.0" y2="1178.0" /><line stroke="rgb(0%,0%,0%)" x1="580.0" x2="729.0" y1="1393.0" y2="1393.0" /><line stroke="rgb(0%,0%,0%)" x1="751.0" x2="904.0" y1="1738.0" y2="1738.0" /><line stroke="rgb(0%,0%,0%)" x1="1150.0" x2="1150.0" y1="879.0" y2="788.0" /><line stroke="rgb(0%,0%,0%)" x1="925.0" x2="925.0" y1="1633.0" y2="1569.0" /><line stroke="rgb(0%,0%,0%)" x1="754.0" x2="754.0" y1="1739.0" y2="1669.0" /><line stroke="rgb(0%,0%,0%)" x1="1236.0" x2="1236.0" y1="162.0" y2="88.0" /><line stroke="rgb(0%,0%,0%)" x1="751.0" x2="817.0" y1="34.0" y2="34.0" /><line stroke="rgb(0%,0%,0%)" x1="1152.0" x2="1238.0" y1="609.0" y2="609.0" /><line stroke="rgb(0%,0%,0%)" x1="900.0" x2="1011.0" y1="843.0" y2="843.0" /><line stroke="rgb(0%,0%,0%)" x1="956.0" x2="956.0" y1="577.0" y2="509.0" /><line stroke="rgb(0%,0%,0%)" x1="915.0" x2="915.0" y1="1526.0" y2="1444.0" /><line stroke="rgb(0%,0%,0%)" x1="898.0" x2="1068.0" y1="1373.0" y2="1373.0" /><line stroke="rgb(0%,0%,0%)" x1="147.0" x2="147.0" y1="407.0" y2="233.0" /><line stroke="rgb(0%,0%,0%)" x1="535.0" x2="741.0" y1="1386.0" y2="1386.0" /><line stroke="rgb(0%,0%,0%)" x1="533.0" x2="533.0" y1="628.0" y2="571.0" /><line stroke="rgb(0%,0%,0%)" x1="1072.0" x2="1189.0" y1="1365.0" y2="1365.0" /><line stroke="rgb(0%,0%,0%)" x1="445.0" x2="543.0" y1="846.0" y2="846.0" /><line stroke="rgb(0%,0%,0%)" x1="494.0" x2="494.0" y1="768.0" y2="700.0" /><line stroke="rgb(0%,0%,0%)" x1="496.0" x2="496.0" y1="780.0" y2="724.0" /><line stroke="rgb(0%,0%,0%)" x1="517.0" x2="517.0" y1="339.0" y2="222.0" /><line stroke="rgb(0%,0%,0%)" x1="835.0" x2="918.0" y1="123.0" y2="123.0" /><line stroke="rgb(0%,0%,0%)" x1="531.0" x2="531.0" y1="662.0" y2="558.0" /><line stroke="rgb(0%,0%,0%)" x1="1151.0" x2="1151.0" y1="879.0" y2="788.0" /><line stroke="rgb(0%,0%,0%)" x1="481.0" x2="481.0" y1="554.0" y2="421.0" /><line stroke="rgb(0%,0%,0%)" x1="916.0" x2="916.0" y1="1535.0" y2="1454.0" /><line stroke="rgb(0%,0%,0%)" x1="484.0" x2="484.0" y1="557.0" y2="478.0" /><line stroke="rgb(0%,0%,0%)" x1="740.0" x2="740.0" y1="1576.0" y2="1489.0" /><line stroke="rgb(0%,0%,0%)" x1="173.0" x2="173.0" y1="814.0" y2="701.0" /><line stroke="rgb(0%,0%,0%)" x1="907.0" x2="907.0" y1="1479.0" y2="1380.0" /><line stroke="rgb(0%,0%,0%)" x1="1152.0" x2="1234.0" y1="610.0" y2="610.0" /><line stroke="rgb(0%,0%,0%)" x1="166.0" x2="166.0" y1="727.0" y2="663.0" /><line stroke="rgb(0%,0%,0%)" x1="168.0" x2="168.0" y1="790.0" y2="668.0" /><line stroke="rgb(0%,0%,0%)" x1="520.0" x2="520.0" y1="1017.0" y2="934.0" /><line stroke="rgb(0%,0%,0%)" x1="940.0" x2="999.0" y1="1370.0" y2="1370.0" /><line stroke="rgb(0%,0%,0%)" x1="1020.0" x2="1020.0" y1="99.0" y2="10.0" /><line stroke="rgb(0%,0%,0%)" x1="604.0" x2="604.0" y1="1268.0" y2="1202.0" /><line stroke="rgb(0%,0%,0%)" x1="1024.0" x2="1248.0" y1="9.0" y2="9.0" /><line stroke="rgb(0%,0%,0%)" x1="747.0" x2="747.0" y1="1598.0" y2="1495.0" /><line stroke="rgb(0%,0%,0%)" x1="749.0" x2="749.0" y1="1741.0" y2="1669.0" /><line stroke="rgb(0%,0%,0%)" x1="1153.0" x2="1251.0" y1="1182.0" y2="1182.0" /><line stroke="rgb(0%,0%,0%)" x1="582.0" x2="582.0" y1="1341.0" y2="1297.0" /><line stroke="rgb(0%,0%,0%)" x1="929.0" x2="929.0" y1="1728.0" y2="1641.0" /><line stroke="rgb(0%,0%,0%)" x1="926.0" x2="926.0" y1="1641.0" y2="1578.0" /><line stroke="rgb(0%,0%,0%)" x1="600.0" x2="600.0" y1="1277.0" y2="1199.0" /><line stroke="rgb(0%,0%,0%)" x1="839.0" x2="929.0" y1="849.0" y2="849.0" /><line stroke="rgb(0%,0%,0%)" x1="913.0" x2="1011.0" y1="97.0" y2="97.0" /><line stroke="rgb(0%,0%,0%)" x1="469.0" x2="469.0" y1="251.0" y2="128.0" /><line stroke="rgb(0%,0%,0%)" x1="1149.0" x2="1149.0" y1="1217.0" y2="1069.0" /><line stroke="rgb(0%,0%,0%)" x1="1152.0" x2="1152.0" y1="1212.0" y2="1071.0" /><line stroke="rgb(0%,0%,0%)" x1="159.0" x2="159.0" y1="668.0" y2="456.0" /><line stroke="rgb(0%,0%,0%)" x1="1155.0" x2="1155.0" y1="1129.0" y2="1071.0" /><line stroke="rgb(0%,0%,0%)" x1="1061.0" x2="1154.0" y1="1079.0" y2="1079.0" /><line stroke="rgb(0%,0%,0%)" x1="958.0" x2="1048.0" y1="593.0" y2="593.0" /><line stroke="rgb(0%,0%,0%)" x1="603.0" x2="603.0" y1="1274.0" y2="1205.0" /><line stroke="rgb(0%,0%,0%)" x1="424.0" x2="468.0" y1="124.0" y2="124.0" /><line stroke="rgb(0%,0%,0%)" x1="538.0" x2="538.0" y1="1087.0" y2="934.0" /><line stroke="rgb(0%,0%,0%)" x1="993.0" x2="993.0" y1="917.0" y2="838.0" /><line stroke="rgb(0%,0%,0%)" x1="157.0" x2="157.0" y1="594.0" y2="454.0" /><line stroke="rgb(0%,0%,0%)" x1="602.0" x2="602.0" y1="1276.0" y2="1206.0" /><line stroke="rgb(0%,0%,0%)" x1="908.0" x2="908.0" y1="1505.0" y2="1380.0" /><line stroke="rgb(0%,0%,0%)" x1="467.0" x2="467.0" y1="223.0" y2="42.0" /><line stroke="rgb(0%,0%,0%)" x1="958.0" x2="1016.0" y1="597.0" y2="597.0" /><line stroke="rgb(0%,0%,0%)" x1="909.0" x2="909.0" y1="1502.0" y2="1374.0" /><line stroke="rgb(0%,0%,0%)" x1="534.0" x2="653.0" y1="1384.0" y2="1384.0" /><line stroke="rgb(0%,0%,0%)" x1="501.0" x2="547.0" y1="855.0" y2="855.0" /><line stroke="rgb(0%,0%,0%)" x1="465.0" x2="465.0" y1="166.0" y2="45.0" /><line stroke="rgb(0%,0%,0%)" x1="959.0" x2="959.0" y1="576.0" y2="510.0" /><line stroke="rgb(0%,0%,0%)" x1="729.0" x2="729.0" y1="1471.0" y2="1391.0" /><line stroke="rgb(0%,0%,0%)" x1="1221.0" x2="1312.0" y1="1179.0" y2="1179.0" /><line stroke="rgb(0%,0%,0%)" x1="753.0" x2="753.0" y1="1743.0" y2="1668.0" /><line stroke="rgb(0%,0%,0%)" x1="726.0" x2="825.0" y1="778.0" y2="778.0" /><line stroke="rgb(0%,0%,0%)" x1="1247.0" x2="1247.0" y1="786.0" y2="719.0" /><line stroke="rgb(0%,0%,0%)" x1="516.0" x2="516.0" y1="569.0" y2="525.0" /><line stroke="rgb(0%,0%,0%)" x1="836.0" x2="902.0" y1="851.0" y2="851.0" /><line stroke="rgb(0%,0%,0%)" x1="464.0" x2="464.0" y1="112.0" y2="49.0" /><line stroke="rgb(0%,0%,0%)" x1="678.0" x2="815.0" y1="22.0" y2="22.0" /><line stroke="rgb(0%,0%,0%)" x1="1112.0" x2="1225.0" y1="422.0" y2="422.0" /><line stroke="rgb(0%,0%,0%)" x1="171.0" x2="171.0" y1="611.0" y2="551.0" /><line stroke="rgb(0%,0%,0%)" x1="483.0" x2="483.0" y1="709.0" y2="648.0" /><line stroke="rgb(0%,0%,0%)" x1="1053.0" x2="1151.0" y1="1367.0" y2="1367.0" /><line stroke="rgb(0%,0%,0%)" x1="536.0" x2="536.0" y1="990.0" y2="933.0" /><line stroke="rgb(0%,0%,0%)" x1="1104.0" x2="1218.0" y1="4.0" y2="4.0" /><line stroke="rgb(0%,0%,0%)" x1="1220.0" x2="1312.0" y1="1180.0" y2="1180.0" /><line stroke="rgb(0%,0%,0%)" x1="1015.0" x2="1112.0" y1="1082.0" y2="1082.0" /><line stroke="rgb(0%,0%,0%)" x1="1156.0" x2="1156.0" y1="1128.0" y2="1070.0" /><line stroke="rgb(0%,0%,0%)" x1="513.0" x2="513.0" y1="344.0" y2="215.0" /><line stroke="rgb(0%,0%,0%)" x1="759.0" x2="759.0" y1="1744.0" y2="1704.0" /><line stroke="rgb(0%,0%,0%)" x1="1011.0" x2="1011.0" y1="88.0" y2="17.0" /><line stroke="rgb(0%,0%,0%)" x1="515.0" x2="515.0" y1="569.0" y2="526.0" /><line stroke="rgb(0%,0%,0%)" x1="918.0" x2="918.0" y1="124.0" y2="64.0" /><line stroke="rgb(0%,0%,0%)" x1="447.0" x2="502.0" y1="847.0" y2="847.0" /><line stroke="rgb(0%,0%,0%)" x1="522.0" x2="522.0" y1="1061.0" y2="934.0" /><line stroke="rgb(0%,0%,0%)" x1="161.0" x2="161.0" y1="677.0" y2="461.0" /><line stroke="rgb(0%,0%,0%)" x1="491.0" x2="491.0" y1="797.0" y2="635.0" /><line stroke="rgb(0%,0%,0%)" x1="741.0" x2="741.0" y1="1569.0" y2="1492.0" /><line stroke="rgb(0%,0%,0%)" x1="1017.0" x2="1017.0" y1="436.0" y2="395.0" /><line stroke="rgb(0%,0%,0%)" x1="1153.0" x2="1153.0" y1="1212.0" y2="1071.0" /><line stroke="rgb(0%,0%,0%)" x1="954.0" x2="1040.0" y1="509.0" y2="509.0" /><line stroke="rgb(0%,0%,0%)" x1="1019.0" x2="1019.0" y1="99.0" y2="10.0" /><line stroke="rgb(0%,0%,0%)" x1="1014.0" x2="1014.0" y1="1089.0" y2="1029.0" /><line stroke="rgb(0%,0%,0%)" x1="744.0" x2="744.0" y1="1582.0" y2="1516.0" /><line stroke="rgb(0%,0%,0%)" x1="1013.0" x2="1142.0" y1="430.0" y2="430.0" /><line stroke="rgb(0%,0%,0%)" x1="790.0" x2="831.0" y1="859.0" y2="859.0" /><line stroke="rgb(0%,0%,0%)" x1="911.0" x2="911.0" y1="1502.0" y2="1379.0" /><line stroke="rgb(0%,0%,0%)" x1="149.0" x2="149.0" y1="469.0" y2="326.0" /><line stroke="rgb(0%,0%,0%)" x1="740.0" x2="787.0" y1="1385.0" y2="1385.0" /><line stroke="rgb(0%,0%,0%)" x1="924.0" x2="924.0" y1="1611.0" y2="1562.0" /><line stroke="rgb(0%,0%,0%)" x1="1230.0" x2="1310.0" y1="1178.0" y2="1178.0" /><line stroke="rgb(0%,0%,0%)" x1="1072.0" x2="1189.0" y1="1364.0" y2="1364.0" /><line stroke="rgb(0%,0%,0%)" x1="1013.0" x2="1138.0" y1="428.0" y2="428.0" /><line stroke="rgb(0%,0%,0%)" x1="170.0" x2="170.0" y1="612.0" y2="550.0" /><line stroke="rgb(0%,0%,0%)" x1="484.0" x2="560.0" y1="34.0" y2="34.0" /><line stroke="rgb(0%,0%,0%)" x1="1148.0" x2="1148.0" y1="567.0" y2="421.0" /><line stroke="rgb(0%,0%,0%)" x1="498.0" x2="498.0" y1="853.0" y2="768.0" /><line stroke="rgb(0%,0%,0%)" x1="587.0" x2="646.0" y1="614.0" y2="614.0" /><line stroke="rgb(0%,0%,0%)" x1="1318.0" x2="1318.0" y1="1357.0" y2="1228.0" /><line stroke="rgb(0%,0%,0%)" x1="599.0" x2="599.0" y1="1277.0" y2="1201.0" /><line stroke="rgb(0%,0%,0%)" x1="992.0" x2="992.0" y1="920.0" y2="838.0" /><line stroke="rgb(0%,0%,0%)" x1="1008.0" x2="1008.0" y1="304.0" y2="230.0" /><line stroke="rgb(0%,0%,0%)" x1="1015.0" x2="1161.0" y1="1084.0" y2="1084.0" /><line stroke="rgb(0%,0%,0%)" x1="960.0" x2="960.0" y1="563.0" y2="514.0" /><line stroke="rgb(0%,0%,0%)" x1="978.0" x2="1162.0" y1="1081.0" y2="1081.0" /><line stroke="rgb(0%,0%,0%)" x1="162.0" x2="162.0" y1="625.0" y2="461.0" /><line stroke="rgb(0%,0%,0%)" x1="1148.0" x2="1243.0" y1="788.0" y2="788.0" /><line stroke="rgb(0%,0%,0%)" x1="497.0" x2="497.0" y1="851.0" y2="745.0" /><line stroke="rgb(0%,0%,0%)" x1="540.0" x2="602.0" y1="860.0" y2="860.0" /><line stroke="rgb(0%,0%,0%)" x1="1014.0" x2="1135.0" y1="427.0" y2="427.0" /><line stroke="rgb(0%,0%,0%)" x1="516.0" x2="516.0" y1="340.0" y2="217.0" /><line stroke="rgb(0%,0%,0%)" x1="757.0" x2="757.0" y1="1741.0" y2="1690.0" /><line stroke="rgb(0%,0%,0%)" x1="473.0" x2="473.0" y1="425.0" y2="347.0" /><line stroke="rgb(0%,0%,0%)" x1="1320.0" x2="1320.0" y1="1357.0" y2="1259.0" /><line stroke="rgb(0%,0%,0%)" x1="541.0" x2="541.0" y1="1025.0" y2="933.0" /><line stroke="rgb(0%,0%,0%)" x1="519.0" x2="519.0" y1="637.0" y2="555.0" /><line stroke="rgb(0%,0%,0%)" x1="1015.0" x2="1163.0" y1="1083.0" y2="1083.0" /><line stroke="rgb(0%,0%,0%)" x1="788.0" x2="788.0" y1="1399.0" y2="1339.0" /><line stroke="rgb(0%,0%,0%)" x1="509.0" x2="509.0" y1="349.0" y2="218.0" /><line stroke="rgb(0%,0%,0%)" x1="169.0" x2="169.0" y1="796.0" y2="670.0" /><line stroke="rgb(0%,0%,0%)" x1="975.0" x2="1124.0" y1="1080.0" y2="1080.0" /><line stroke="rgb(0%,0%,0%)" x1="739.0" x2="739.0" y1="1571.0" y2="1446.0" /><line stroke="rgb(0%,0%,0%)" x1="583.0" x2="739.0" y1="1390.0" y2="1390.0" /><line stroke="rgb(0%,0%,0%)" x1="585.0" x2="585.0" y1="1349.0" y2="1299.0" /><line stroke="rgb(0%,0%,0%)" x1="961.0" x2="961.0" y1="592.0" y2="514.0" /><line stroke="rgb(0%,0%,0%)" x1="940.0" x2="1019.0" y1="837.0" y2="837.0" /><line stroke="rgb(0%,0%,0%)" x1="463.0" x2="463.0" y1="161.0" y2="58.0" /><line stroke="rgb(0%,0%,0%)" x1="1240.0" x2="1314.0" y1="1177.0" y2="1177.0" /><line stroke="rgb(0%,0%,0%)" x1="1246.0" x2="1246.0" y1="89.0" y2="12.0" /><line stroke="rgb(0%,0%,0%)" x1="537.0" x2="537.0" y1="1008.0" y2="933.0" /><line stroke="rgb(0%,0%,0%)" x1="899.0" x2="1011.0" y1="844.0" y2="844.0" /><line stroke="rgb(0%,0%,0%)" x1="746.0" x2="787.0" y1="1383.0" y2="1383.0" /><line stroke="rgb(0%,0%,0%)" x1="510.0" x2="510.0" y1="348.0" y2="219.0" /><line stroke="rgb(0%,0%,0%)" x1="525.0" x2="525.0" y1="1085.0" y2="933.0" /><line stroke="rgb(0%,0%,0%)" x1="483.0" x2="483.0" y1="552.0" y2="430.0" /><line stroke="rgb(0%,0%,0%)" x1="745.0" x2="745.0" y1="1591.0" y2="1517.0" /><line stroke="rgb(0%,0%,0%)" x1="836.0" x2="923.0" y1="1735.0" y2="1735.0" /><line stroke="rgb(0%,0%,0%)" x1="751.0" x2="815.0" y1="35.0" y2="35.0" /><line stroke="rgb(0%,0%,0%)" x1="1147.0" x2="1147.0" y1="565.0" y2="421.0" /><line stroke="rgb(0%,0%,0%)" x1="535.0" x2="741.0" y1="1387.0" y2="1387.0" /><line stroke="rgb(0%,0%,0%)" x1="474.0" x2="474.0" y1="206.0" y2="131.0" /><line stroke="rgb(0%,0%,0%)" x1="1141.0" x2="1141.0" y1="1170.0" y2="1075.0" /><line stroke="rgb(0%,0%,0%)" x1="504.0" x2="597.0" y1="858.0" y2="858.0" /><line stroke="rgb(0%,0%,0%)" x1="809.0" x2="869.0" y1="771.0" y2="771.0" /><line stroke="rgb(0%,0%,0%)" x1="596.0" x2="596.0" y1="1279.0" y2="1202.0" /><line stroke="rgb(0%,0%,0%)" x1="743.0" x2="743.0" y1="1565.0" y2="1516.0" /><line stroke="rgb(0%,0%,0%)" x1="171.0" x2="171.0" y1="814.0" y2="696.0" /><line stroke="rgb(0%,0%,0%)" x1="1161.0" x2="1225.0" y1="1184.0" y2="1184.0" /><line stroke="rgb(0%,0%,0%)" x1="160.0" x2="160.0" y1="677.0" y2="561.0" /><line stroke="rgb(0%,0%,0%)" x1="535.0" x2="655.0" y1="1385.0" y2="1385.0" /><line stroke="rgb(0%,0%,0%)" x1="1062.0" x2="1151.0" y1="1078.0" y2="1078.0" /><line stroke="rgb(0%,0%,0%)" x1="164.0" x2="164.0" y1="713.0" y2="664.0" /><line stroke="rgb(0%,0%,0%)" x1="578.0" x2="667.0" y1="1391.0" y2="1391.0" /><line stroke="rgb(0%,0%,0%)" x1="468.0" x2="468.0" y1="225.0" y2="119.0" /><line stroke="rgb(0%,0%,0%)" x1="781.0" x2="870.0" y1="854.0" y2="854.0" /><line stroke="rgb(0%,0%,0%)" x1="581.0" x2="581.0" y1="1340.0" y2="1294.0" /><line stroke="rgb(0%,0%,0%)" x1="167.0" x2="167.0" y1="609.0" y2="530.0" /><line stroke="rgb(0%,0%,0%)" x1="1255.0" x2="1314.0" y1="1176.0" y2="1176.0" /><line stroke="rgb(0%,0%,0%)" x1="1091.0" x2="1146.0" y1="880.0" y2="880.0" /><line stroke="rgb(0%,0%,0%)" x1="1160.0" x2="1238.0" y1="1183.0" y2="1183.0" /><line stroke="rgb(0%,0%,0%)" x1="1076.0" x2="1154.0" y1="1077.0" y2="1077.0" /><line stroke="rgb(0%,0%,0%)" x1="1011.0" x2="1011.0" y1="1079.0" y2="998.0" /><line stroke="rgb(0%,0%,0%)" x1="486.0" x2="486.0" y1="710.0" y2="638.0" /><line stroke="rgb(0%,0%,0%)" x1="756.0" x2="756.0" y1="1740.0" y2="1674.0" /><line stroke="rgb(0%,0%,0%)" x1="526.0" x2="526.0" y1="1086.0" y2="933.0" /><line stroke="rgb(0%,0%,0%)" x1="736.0" x2="824.0" y1="45.0" y2="45.0" /><line stroke="rgb(0%,0%,0%)" x1="997.0" x2="997.0" y1="918.0" y2="836.0" /><line stroke="rgb(0%,0%,0%)" x1="445.0" x2="501.0" y1="845.0" y2="845.0" /><line stroke="rgb(0%,0%,0%)" x1="922.0" x2="922.0" y1="1589.0" y2="1549.0" /><line stroke="rgb(0%,0%,0%)" x1="1157.0" x2="1157.0" y1="1127.0" y2="1070.0" /></svg>