<?xml version="1.0" encoding="utf-8" ?>
<svg baseProfile="tiny" height="177.0" version="1.2" viewBox="570,393,548,177" width="548.0" xmlns="http://www.w3.org/2000/svg" xmlns:ev="http://www.w3.org/2001/xml-events" xmlns:xlink="http://www.w3.org/1999/xlink"><defs /><line stroke="rgb(0%,0%,0%)" x1="684.0" x2="848.0" y1="550.0" y2="550.0" /><line stroke="rgb(0%,0%,0%)" x1="681.0" x2="855.0" y1="546.0" y2="546.0" /><line stroke="rgb(0%,0%,0%)" x1="685.0" x2="890.0" y1="404.0" y2="404.0" /><line stroke="rgb(0%,0%,0%)" x1="684.0" x2="800.0" y1="406.0" y2="406.0" /><line stroke="rgb(0%,0%,0%)" x1="694.0" x2="835.0" y1="551.0" y2="551.0" /><line stroke="rgb(0%,0%,0%)" x1="842.0" x2="994.0" y1="411.0" y2="411.0" /><line stroke="rgb(0%,0%,0%)" x1="842.0" x2="976.0" y1="409.0" y2="409.0" /><line stroke="rgb(0%,0%,0%)" x1="817.0" x2="865.0" y1="545.0" y2="545.0" /><line stroke="rgb(0%,0%,0%)" x1="919.0" x2="1019.0" y1="414.0" y2="414.0" /><line stroke="rgb(0%,0%,0%)" x1="681.0" x2="849.0" y1="549.0" y2="549.0" /><line stroke="rgb(0%,0%,0%)" x1="681.0" x2="850.0" y1="548.0" y2="548.0" /><line stroke="rgb(0%,0%,0%)" x1="685.0" x2="849.0" y1="395.0" y2="395.0" /><line stroke="rgb(0%,0%,0%)" x1="681.0" x2="852.0" y1="547.0" y2="547.0" /><line stroke="rgb(0%,0%,0%)" x1="842.0" x2="1002.0" y1="412.0" y2="412.0" /><line stroke="rgb(0%,0%,0%)" x1="685.0" x2="849.0" y1="396.0" y2="396.0" /><line stroke="rgb(0%,0%,0%)" x1="685.0" x2="849.0" y1="400.0" y2="400.0" /><line stroke="rgb(0%,0%,0%)" x1="685.0" x2="849.0" y1="398.0" y2="398.0" /><line stroke="rgb(0%,0%,0%)" x1="842.0" x2="983.0" y1="410.0" y2="410.0" /><line stroke="rgb(0%,0%,0%)" x1="1053.0" x2="1053.0" y1="511.0" y2="417.0" /><line stroke="rgb(0%,0%,0%)" x1="685.0" x2="849.0" y1="397.0" y2="397.0" /><line stroke="rgb(0%,0%,0%)" x1="685.0" x2="849.0" y1="402.0" y2="402.0" /><line stroke="rgb(0%,0%,0%)" x1="685.0" x2="884.0" y1="403.0" y2="403.0" /><line stroke="rgb(0%,0%,0%)" x1="843.0" x2="962.0" y1="408.0" y2="408.0" /><line stroke="rgb(0%,0%,0%)" x1="686.0" x2="850.0" y1="393.0" y2="393.0" /><line stroke="rgb(0%,0%,0%)" x1="685.0" x2="848.0" y1="399.0" y2="399.0" /><line stroke="rgb(0%,0%,0%)" x1="685.0" x2="806.0" y1="401.0" y2="401.0" /><line stroke="rgb(0%,0%,0%)" x1="1004.0" x2="1046.0" y1="416.0" y2="416.0" /><line stroke="rgb(0%,0%,0%)" x1="685.0" x2="882.0" y1="405.0" y2="405.0" /><line stroke="rgb(0%,0%,0%)" x1="570.0" x2="689.0" y1="487.0" y2="487.0" /><line stroke="rgb(0%,0%,0%)" x1="952.0" x2="1043.0" y1="567.0" y2="567.0" /><line stroke="rgb(0%,0%,0%)" x1="683.0" x2="683.0" y1="537.0" y2="489.0" /><line stroke="rgb(0%,0%,0%)" x1="987.0" x2="1118.0" y1="570.0" y2="570.0" /><line stroke="rgb(0%,0%,0%)" x1="1016.0" x2="1056.0" y1="417.0" y2="417.0" /><line stroke="rgb(0%,0%,0%)" x1="842.0" x2="941.0" y1="418.0" y2="418.0" /><line stroke="rgb(0%,0%,0%)" x1="771.0" x2="835.0" y1="552.0" y2="552.0" /><line stroke="rgb(0%,0%,0%)" x1="842.0" x2="1011.0" y1="413.0" y2="413.0" /></svg>